<?xml version="1.0" encoding="utf-8"?>
<!-- Generator: Adobe Adobe Illustrator 24.2.0, SVG Export Plug-In . SVG Version: 6.00 Build 0)  -->
<svg version="1.1" xmlns="http://www.w3.org/2000/svg" xmlns:xlink="http://www.w3.org/1999/xlink" x="0px" y="0px" width="2500px"
	 height="2500px" viewBox="0 0 2500 2500" style="enable-background:new 0 0 2500 2500;" xml:space="preserve">
<style type="text/css">
	.st0{display:none;}
	.st1{display:inline;fill:#889177;}
	.st2{display:inline;}
	.st3{fill:#FFF4DE;}
	.st4{fill:#853710;}
	.st5{fill:#889177;}
	.st6{display:inline;fill:#FFF4DE;}
	.st7{fill:#F5D482;}
	.st8{display:inline;fill:#853710;}
</style>
<g id="Layer_1" class="st0">
	<rect class="st1" width="2500" height="2500"/>
	<g class="st2">
		<path class="st3" d="M1201.16,666.54c-10.41,23.26-4.43,47.54-4.62,71.21c-0.75,89.29-0.94,178.6-1.08,267.91
			c-0.03,25.44-0.03,50.91-0.08,76.38c0,19.49-0.03,38.98-0.06,58.47c-0.03,13.04-0.19,26.08,2.02,39.04
			c0.17,1.19,0.39,2.38,0.64,3.57c2.35,11.57-1.19,22.2-8.47,31.87c-3.9,5.2-8.89,10.47-15.75,8.39c-16.22-4.85-32,0.61-47.95,0.25
			c-9.14-0.19-17.3-1.88-25.5-6.12c-6.42-3.32-13.04-6.51-15.75-11.77c-1.41-2.66-1.8-5.84-0.66-9.86
			c3.02-10.66,11.49-18.38,24.03-19.46c10.11-0.86,20.38-0.33,32.78-0.22c2.16,0.03,4.01-1.58,4.1-3.57
			c0.53-11.43,0.97-22.87,1.33-34.3c0.94-29.07,1.38-58.06,1.52-86.99c0.11-26.05-0.06-52.05-0.39-78.02
			c-0.5-42.55-1.47-84.97-2.38-127.27c-0.55-27.38-1.11-54.71-1.52-82c-0.03-1.83-1.49-3.46-3.46-3.65c-5.65-0.58-6.67,2.8-8.19,5.4
			c-26.52,45.24-53.49,90.28-76.55,137.13c-5.59,11.35-13.54,18.85-26.94,19.63c-13.93,0.8-21.76-7-28.21-17.77
			c-21.07-35.13-42.75-69.99-64.62-104.71c-3.35-5.29-5.68-8.2-10.16-14.84c-1.3-1.91-3.71-2.16-5.43-1.27
			c-1.19,0.58-2.05,1.72-2.05,3.24v384.97c0,1.44,0.89,2.85,2.35,3.38c9.03,3.24,20.38,1.11,31.12,0.91c2.49-0.06,4.87,0.06,7.2,0.3
			c9.58,0.91,18,4.04,26.63,8.72c0.06,0.03,0.14,0.08,0.19,0.11c9.3,5.07,12.46,11.63,11.38,20.35c-0.22,1.85-0.58,3.6-1.08,5.26
			c-2.08,6.81-6.76,11.82-15.95,14.09c-0.17,0.03-0.3,0.08-0.47,0.11c-9.47,2.33-18.96,3.24-28.43,3.32
			c-11.41,0.17-22.76-0.86-34.03-1.94c-1.61-0.17-3.24-0.3-4.85-0.47c-29.76-2.85-39.92-7.36-43.69-25.14
			c-1.22-5.7-1.77-12.76-2.13-21.59c-0.11-2.85-0.22-5.7-0.3-8.55c-5.43-149.36-1.05-298.76-3.32-448.15
			c-0.22-14.98-1.02-31.23-0.06-46.18c0.17-2.33,0.08-4.68,0.19-7c0.22-6.06,1.58-11.68,10.63-14.84
			c13.32-4.6,38.54,0.08,44.93,8.67c3.65,4.93,6.34,10.47,10.33,17.22c31.48,56.56,64.48,110.49,93,166.53
			c1.25,2.41,3.32,4.65,7.36,4.87c0.66,0.06,1.36-0.11,1.97-0.36c7.84-3.43,10.88-11.57,14.09-18.33
			c12.21-25.42,29.1-48.51,41.89-73.53c15.89-31.15,35.38-60.44,52.74-90.81c7.56-13.26,45.93-21.35,57.97-12.51
			C1200.86,659.15,1202.82,662.89,1201.16,666.54z"/>
		<path class="st3" d="M1875.46,659.41c14.11,8.25,11.21,20.87,11.22,32.09c0.1,99.8-0.1,199.6-0.1,299.4
			c0,51.43,0.21,102.86,0.39,154.29c0.05,14.37,0.4,28.12,18.48,32.52c10.23,2.49,14.39,12.4,13.62,21.84
			c-0.79,9.57-7.29,16.76-17.08,19.88c-18.81,5.99-35.06,1.13-50.25-10c-3.32-2.43-7.65-2.81-11.24-0.84
			c-11.43,6.29-22.94,12.23-33.55,19.54c-7.15,4.93-14.33,4.74-21.73,4.9c-23.64,0.51-47.49-1.34-70.91,1.13
			c-49.73,5.23-100.85-52.43-97.72-101.2c2.54-39.63,1.21-79.34,3.02-119.03c1.56-34.24,15.85-59.38,41.22-78.82
			c19.2-14.71,43.1-14.99,65.75-16.06c28.88-1.35,58.01-2.12,86.35,6.45c0.03,0.01,0.07,0.02,0.1,0.03
			c6.61,1.94,13.12-3.53,13.12-10.61V700.52c0-5.3-3.69-9.95-8.78-10.76c-3.18-0.51-6.37-0.19-9.43-0.19
			c-35.66,0.04-71.32,0.6-106.98,0.35c-16.8-0.12-30.78,13.31-31.73,30.57c-1.92,34.79,1.22,69.59,0.57,104.37
			c-0.17,8.98,7.19,10.69,13.48,13.61c8.97,4.16,14.91,10.57,13.4,21.84c-1.6,11.91-10.51,15.02-19.68,16
			c-23.99,2.57-49.61-2.38-49.18-36.19c0.59-46.79-5.44-93.39-2.47-140.18c1.13-17.86,5.75-33.23,21.54-43.93
			c5.45-3.69,10.43-5.81,16.62-6.01c55.66-1.78,111.33-4.02,167-2.12C1845.28,648.39,1861.39,646.56,1875.46,659.41z
			 M1721.41,961.33c-3.8,0.14-7.61,0.18-11.41,0.43c-32.25,2.08-41.3,11.49-41.64,44.62c-0.49,47.42,0.27,94.84-3.21,142.21
			c-1.43,19.47,6.04,30.44,23.35,34.32c38.24,8.58,76.63,11.02,114.69-1.77c21.56-7.25,24.96-11.89,24.95-35.17
			c-0.01-49.77-0.04-99.53-0.05-149.3c-0.01-25.5-6.41-33.45-31.62-34.81C1772.95,960.59,1749.33,961.29,1721.41,961.33z"/>
		<path class="st3" d="M1875.46,1285.62c14.11,8.14,11.21,20.58,11.22,31.65c0.1,98.44-0.1,196.87-0.1,295.31
			c0,50.73,0.21,101.45,0.39,152.18c0.05,14.18,0.4,27.73,18.48,32.08c10.23,2.46,14.39,12.23,13.62,21.55
			c-0.79,9.44-7.29,16.54-17.08,19.61c-18.79,5.9-35.03,1.12-50.21-9.83c-3.33-2.41-7.72-2.78-11.33-0.82
			c-11.41,6.19-22.91,12.04-33.49,19.24c-7.15,4.86-14.33,4.67-21.73,4.83c-23.64,0.5-47.49-1.32-70.91,1.11
			c-49.73,5.16-100.85-51.72-97.72-99.82c2.54-39.09,1.21-78.26,3.02-117.4c1.56-33.77,15.85-58.57,41.22-77.74
			c19.2-14.51,43.1-14.79,65.75-15.84c28.88-1.34,58.01-2.09,86.35,6.36c0.03,0.01,0.07,0.02,0.1,0.03
			c6.6,1.91,13.12-3.39,13.12-10.26v-211.87c0-5.13-3.67-9.61-8.73-10.42c-3.2-0.51-6.4-0.2-9.48-0.19
			c-38.91,0.04-77.82,0.69-116.71,0.25c-13.2-0.15-19.81,4.6-21.07,17.92c-3.65,38.43,0.37,76.85-0.36,115.27
			c-0.17,8.86,7.19,10.55,13.48,13.43c8.97,4.11,14.91,10.43,13.4,21.54c-1.6,11.75-10.51,14.81-19.68,15.78
			c-23.99,2.53-49.61-2.35-49.18-35.7c0.59-46.15-5.44-92.11-2.47-138.27c1.13-17.61,5.75-32.78,21.54-43.33
			c5.45-3.64,10.43-5.73,16.62-5.93c55.66-1.76,111.33-3.97,167-2.09C1845.28,1274.75,1861.39,1272.95,1875.46,1285.62z
			 M1721.41,1583.41c-3.8,0.14-7.61,0.18-11.41,0.42c-32.25,2.05-41.3,11.34-41.64,44.01c-0.49,46.77,0.27,93.54-3.21,140.27
			c-1.43,19.2,6.04,30.02,23.35,33.85c38.24,8.46,76.63,10.87,114.69-1.75c21.56-7.15,24.96-11.73,24.95-34.69
			c-0.01-49.09-0.04-98.17-0.05-147.26c-0.01-25.15-6.41-32.99-31.62-34.33C1772.95,1582.68,1749.33,1583.37,1721.41,1583.41z"/>
		<path class="st3" d="M1433.28,959.06c-28.94,0.76-56.26-1.09-84.51-4.6c-12.59-1.57-23.93,7.09-24.33,18.72
			c-2.18,62.7,1.96,124.38,0.66,187.14c-0.22,10.87,9.39,19.78,21.27,19.78h179.21c10.91,0,20.04-7.55,21.18-17.48
			c0.32-2.83,0.74-5.59,1.74-8.24c3.4-9.03,9.04-14.53,19.77-14.96c11.17-0.45,14,7.24,16.31,14.66c4.45,14.3,4.95,29.02,1.5,43.45
			c-4.54,18.99-35.67,33.98-58.64,26.99c-21.04-6.4-41.48-4.97-62.05-0.71c-49.21,10.19-99,4.32-148.5,4.59
			c-13.53,0.07-26.45-8.35-40.42-11.14c-10.28-2.05-13.31-11.12-13.71-20.07c-0.45-10-0.37-20.03-0.37-30.04
			c0.02-131.75-0.18-263.5,0.22-395.25c0.18-57.8,12.47-93.01,69.5-115.77c7.25-2.9,34.05-6.88,41.62-7.09
			c22.72-0.62,45.45-1.46,68.18-1.81c56.27-0.87,90.09,5.95,113.17,53.15c8.42,17.22-13.8,49.8-13.7,67.28
			c0.24,39.25,20.16,75.83,11.05,114.73c-10.04,42.83-28.62,69.82-89.14,74.28C1454.04,957.34,1444.83,958.21,1433.28,959.06z
			 M1324.12,882.53c1.42,24.6,6,30.44,34.2,32.82c37.73,3.19,75.71,2.68,113.42-1.26c19-1.98,27.3-9.53,27.71-27.2
			c1.23-53.87,1.21-107.74,4.16-161.59c0.9-16.34-12.34-30.52-29.87-31.95c-36.05-2.94-72.84-5.68-108.21,1.07
			c-28.03,5.35-43.25,19.8-41.26,48.68C1327.4,788.37,1324,832.76,1324.12,882.53z"/>
		<path class="st3" d="M1201.66,1833.55c-2.74,9.19-9.19,15.89-19.38,16.92c-5.98,0.61-12.1,0.39-18.13,0.39
			c-88.57,0.03-177.13,0.03-267.89,0.06c-7.5-0.03-12.82-0.39-18.11,0c-1.94,0.14-3.71,0.06-5.29-0.25h-0.03
			c-7-1.27-10.44-6.59-10.8-14.53c-0.5-11.46,0.08-22.98,0.28-34.47c2.41-154.24,1.86-308.45,1.02-462.68
			c0-2.55-0.03-5.12-0.03-7.67c-0.06-8.55,0.66-16.03,2.21-22.48c5.43-22.48,21.1-32.42,50.47-32.5c1.44,0,2.91,0,4.35-0.03
			c10.63-0.06,21.29-0.25,31.98-0.44c9.58-0.19,19.19-0.36,28.77-0.42c16.69-0.11,33.39,0.11,50,1.25h0.03l0.03,0.03
			c3.96,0.25,7.92,0.55,11.88,0.94c39.15,3.74,78.43,4.71,117.5,8.94c5.18,0.55,12.87-7.48,17.47-5.09
			c10.6,5.56,8.28,26.33-2.13,32.59c-2.91,1.74-5.95,2.91-9.08,3.68c-5.59,1.38-11.46,1.61-17.3,1.97
			c-36.24,2.27-72.98-3.05-108.75,3.96c-2.08,0.42-4.15,0.78-6.23,1.14c-15.28,2.57-30.59,3.68-45.9,4.13
			c-10.05,0.3-20.1,0.3-30.15,0.25c-10.22-0.06-20.43-0.17-30.65-0.08c-19.88,0.14-23.56,1-21.26,20.21
			c0.53,4.37,1.02,8.75,1.52,13.15c3.1,28.29,5.48,57.14,7.14,86.46c0.03,0.03,0.03,0.03,0.03,0.06
			c5.43,93.88,3.85,192.36-3.1,292.25c-1.05,15.34-2.24,30.7-3.54,46.1c-1.33,15.64,6.37,22.43,21.35,22.59
			c24.97,0.28,49.97,2.08,74.89,1.16c51.3-1.91,102.58-5.23,153.85-7.84c11.38-0.58,22.12,0.08,32.34,7.45
			C1199.53,1816.86,1204.65,1823.44,1201.66,1833.55z"/>
		<path class="st3" d="M1504.75,1277.15c18.91,0.01,35.57-0.29,52.2,0.09c25.44,0.57,29.84,4.65,30.92,32.27
			c0.92,23.71,0.22,47.49,0.11,71.24c-0.27,58.62-0.69,117.24-0.88,175.86c-0.09,26.69-5.51,33.81-31.88,34.28
			c-37.06,0.67-74.14-0.37-111.21-0.69c-1.51-0.01-3.03-0.09-4.54-0.12c-35.54-0.66-35.48-0.66-35.97,35.41
			c-0.5,36.41-1.22,72.81-1.67,109.21c-0.14,10.92-2.19,20.63-12.62,25.77c-10.74,5.29-22.9-0.57-27.09-13.12
			c-3.06-9.14-2.61-18.75-2.62-28.25c-0.07-131.51-0.12-263.02-0.17-394.53c0-0.79,0-1.58,0.01-2.38
			c0.52-39.15,5.71-45.75,43.3-46.6C1435.89,1274.84,1469.2,1276.53,1504.75,1277.15z M1404.58,1436.15
			c-0.14,27.71-0.3,55.42-0.4,83.13c-0.1,28.3-0.04,28.63,28.14,28.52c25.7-0.1,51.41-0.69,77.1-1.57c1.14-0.04,2.29-0.06,3.44-0.07
			c18.46-0.16,33.24-15.44,33.22-33.9c-0.06-54.43,0.24-108.7-1.58-163.62c-0.6-18.21-15.59-32.67-33.81-32.7
			c-25.03-0.05-49.67-0.49-74.79,1.44c-17.67,1.36-31.31,16.09-31.32,33.81C1404.58,1378.59,1404.58,1406.09,1404.58,1436.15z"/>
		<path class="st3" d="M1291.03,1622.13c9.54,71.87,0,123.9,0,188.14c43.74,1.26,114.73-11.53,154.1,5.61
			c38.07,16.58,62.97-4.43,106.12-4.57c6.72-14.56,2.91-27.81,6.91-39.83c2.71-8.16,6.16-14.44,15.24-14.9
			c8.17-0.42,14.23,2.34,18.55,10.5c6.88,12.99,9.56,26.26,7.54,40.99c-5.86,42.82-5.72,42.83-47.47,42.82
			c-88.62-0.01-177.23,0.05-265.85-0.04c-24.55-0.02-34.88-10.4-37.16-36.56c-2.41-27.58-2.6-55.22-2.64-82.89
			c-0.19-137.51-0.53-275.02-0.83-412.54c-0.02-9.48-0.57-18.97,2.75-28.11c4.07-11.24,12.9-15.24,23.22-15.35
			c10.58-0.11,23.95,5.66,25.54,15.94c1.56,10.06,1.67,20.43,1.66,30.67C1298.55,1420.81,1277.72,1521.86,1291.03,1622.13z"/>
		<path class="st3" d="M1190.67,1701.1c0.06,27.85-7.28,36.68-34.22,37.4c-40.84,1.05-81.76,1.08-122.62,0.53
			c-25.86-0.36-33-8.25-34.44-35.11c-1.33-24.56-2.08-49.11-3.07-75.94c-0.14-34.33-0.28-67.97-0.39-101.3
			c-0.11-27.08-0.19-53.93-0.28-80.79c-0.03-8.42-0.58-16.97,3.1-24.94c0.83-1.8,1.74-3.49,2.77-5.01
			c4.49-6.89,10.83-10.94,20.16-10.38c11.43,0.66,17.86,7.39,20.71,18.05c1.8,6.7,2.49,13.51,2.71,20.38
			c0.14,3.88,0.14,7.78,0.08,11.68c-0.47,38.73-1,77.46-1.55,116.2c-0.44,30.43-0.89,60.83-1.33,91.25
			c-0.42,28.63-0.47,28.74,28.65,29.21c17.41,0.28,34.83,0.39,52.22,0.22c22.65-0.22,23.17-0.69,23.42-23.12
			c0-0.97,0.03-1.97,0.03-2.93c0.44-42.83,0.83-85.66,1.22-128.49c0.25-26.36,0.5-52.71,0.75-79.07c0.03-3.6,0.08-7.17,0.11-10.77
			c0.06-7.7,0.06-15.42,1-23.01c1.25-10.08,6.23-17.94,17.25-17.83c10.91,0.08,18.88,5.62,20.65,17.39
			c1.14,7.59,2.05,15.28,2.1,22.92c0.08,16.56,0.17,33.14,0.25,49.7C1190.28,1565.28,1190.53,1633.19,1190.67,1701.1z"/>
		<g>
			<path class="st4" d="M872.84,1850.66c-0.53,0.17-1.11,0.25-1.77,0.25c-4.57,0-7-2.93-7.95-7.39c-1.66-7.78-3.93-15.42-5.26-23.26
				c-3.6-20.99-11.24-40.61-19.99-59.83c-13.54-29.79-28.49-58.86-46.95-86.02c-7.56-11.13-14.56-22.67-19.35-35.33
				c-10.38-27.49-7.64-54.49,3.29-81.2c5.48-13.4,13.95-25.08,20.93-37.6c14.12-25.22,24-52.13,32.53-79.62
				c6.73-21.71,9.88-44.05,12.6-66.47c0.89-7.45,0.17-8.36-7.2-11.41c-5.92-2.46-11.77-5.12-17.61-7.81
				c-6.73-3.1-8.89-2.33-10.19,4.6c-2.19,11.38-5.07,22.79-5.79,34.27c-2.52,39.92-17.97,75.08-38.23,108.67
				c-17,28.21-39.73,50.91-66,70.4c-17.66,13.1-35.88,25.39-53.1,39.09c-16.92,13.43-31.17,29.21-43.33,47.01
				c-4.13,6.04-7.78,12.43-13.12,17.61c-7.53,7.34-15.25,6.01-19.52-3.57c-1.63-3.63-2.44-7.5-2.49-11.57
				c-0.14-9.83,1.08-19.52,3.27-29.07c6.15-26.44,10.77-53.24,19.49-79.13c10.02-29.85,27.82-53.35,53.54-71.18
				c20.85-14.45,41.36-29.37,62.32-43.63c12.62-8.55,26.55-15.14,38.48-24.81c13.07-10.6,24.11-22.18,27.66-39.67
				c2.69-13.12,6.92-25.97,12.29-38.34c1.72-3.96,1.61-7.64-1.19-11.18c-2.27-2.88-4.21-6.01-6.45-8.91c-3.29-4.18-4.98-4.51-9-0.91
				c-8.69,7.84-16.25,16.58-20.07,27.99c-2.52,7.53-4.9,15.12-7.67,22.56c-8.25,22.23-23.78,38.04-44.08,49.64
				c-15.53,8.89-32.7,13.65-49.28,19.85c-16.92,6.34-33.64,13.01-49.17,22.34c-21.93,13.21-38.34,31.98-53.05,52.49
				c-3.02,4.24-5.76,8.64-8.8,12.87c-2.46,3.43-5.62,5.9-10.13,4.15c-4.01-1.55-5.04-5.07-4.82-9.03c0.14-3.05,0.06-6.17,0.78-9.11
				c6.26-25.89,14.2-51.25,24.64-75.78c14.45-33.89,39.59-57.48,71.84-74.14c21.01-10.85,43.16-18.69,65.59-25.94
				c12.24-3.93,24.28-8.39,36.41-12.6c3.82-1.33,7.2-3.24,9.97-6.28c8.08-8.91,18-15.56,27.91-22.18c7.25-4.85,7.28-4.79,5.76-13.21
				c-2.41-13.29-2.44-13.54-15.97-11.71c-21.46,2.91-41.97,9.25-59.99,21.35c-21.48,14.45-44.91,21.32-70.52,22.9
				c-16.11,0.97-32.23,2.57-47.81,7.5c-18.3,5.79-33.25,16.56-46.54,29.96c-1.94,1.97-3.96,3.85-5.68,6.01
				c-3.32,4.21-7.5,4.9-12.32,3.32c-4.98-1.66-7.2-5.54-7.56-10.47c-0.69-9.25,0.42-18.22,4.18-26.88
				c10.3-23.73,27.88-39.78,51.66-49.25c11.05-4.43,21.87-9.55,33.64-11.96c1.47-0.3,2.93-1,4.18-1.83
				c2.41-1.66,2.19-3.68-0.33-4.87c-2.44-1.16-5.2-1.66-7.84-2.52c-18.36-5.9-36.63-12.04-52.44-23.56
				c-15.86-11.57-26.19-27.19-32.03-45.79c-1.94-6.2-1.52-12.74-0.83-19.1c0.58-5.07,4.18-7.97,8.86-9.52
				c4.29-1.44,7.56,0.08,10.6,3.29c6.53,6.84,13.1,13.59,20.63,19.49c16.92,13.26,36.13,19.91,57.25,22.45
				c15.45,1.85,31.09,1.85,46.4,5.2c14.48,3.18,28.24,7.86,40.59,16.22c21.73,14.65,45.85,22.73,71.73,25.89
				c6.23,0.78,7.39-0.03,9.08-6.09c0.08-0.3,0.19-0.61,0.22-0.89c2.21-15.31,5.7-12.13-8.36-21.21
				c-7.7-4.98-15.17-10.38-21.35-17.22c-4.46-4.93-9.91-8-16.11-10.08c-17.39-5.84-34.72-11.9-52.1-17.77
				c-23.26-7.86-45.88-17.3-66.2-31.12c-22.87-15.53-40.92-35.58-51.99-61.43c-10.11-23.67-17.8-48.12-24.34-72.98
				c-1.27-4.79-1.69-9.61-1.61-14.53c0.06-3.74,1.47-6.51,5.12-7.84c3.79-1.41,6.7,0.33,8.8,3.13c4.4,5.87,8.36,12.07,12.74,17.94
				c14.65,19.8,31.12,37.68,52.71,50.22c14.34,8.33,29.65,14.42,45.16,20.16c14.89,5.54,30.15,10.16,44.38,17.33
				c25.97,13.12,45.13,32.12,52.99,61.02c4.32,15.89,11.38,30.26,24.2,41.31c6.7,5.76,7.81,5.9,12.82-1
				c7.97-10.99,8.14-11.07,2.82-23.67c-5.15-12.18-8-25.03-11.52-37.68c-3.16-11.32-9.05-20.49-17.64-28.35
				c-9.08-8.28-18.77-15.75-29.51-21.62c-22.87-12.51-43.38-28.52-64.78-43.22c-12.6-8.64-24.7-17.89-35.94-28.32
				c-14.53-13.48-23.84-29.96-30.76-48.2c-9.41-24.7-14.12-50.58-19.88-76.19c-2.02-8.97-3.74-17.94-4.68-27.08
				c-0.64-6.09-0.61-12.15,0.78-18.22c1.3-5.76,3.77-10.58,9.86-12.07c5.98-1.47,9.86,2.57,13.12,6.64
				c3.65,4.51,6.67,9.5,10.05,14.23c10.24,14.48,20.76,28.71,34.33,40.39c12.54,10.8,26.22,20.02,39.37,29.96
				c16.31,12.32,33.33,23.73,48.48,37.62c14.53,13.32,27.27,28.1,37.85,44.57c11.07,17.25,20.07,35.69,28.41,54.43
				c8.2,18.44,10.16,38.23,12.9,57.89c1.72,12.07,3.82,24.11,6.15,36.1c1.58,8.08,3.18,8.69,10.38,5.18
				c6.04-2.96,11.99-6.06,18.36-8.39c6.31-2.33,7.12-3.54,6.28-10.3c-2.35-19.08-4.32-38.23-9.5-56.84
				c-7.42-26.55-16.75-52.38-28.65-77.27c-5.43-11.32-12.02-21.98-18.6-32.64c-11.63-18.88-18.55-39.26-19.24-61.41
				c-0.64-20.02,4.71-38.68,15.06-55.84c11.66-19.38,24.72-37.9,35.35-57.89c14.95-28.07,28.85-56.7,38.21-87.21
				c3.32-10.77,5.12-22.01,7.61-33.03c0.42-1.74,0.8-3.49,1.25-5.23c-0.11,2.33-0.03,4.68-0.19,7c-0.97,14.95-0.17,31.2,0.06,46.18
				c2.27,149.39-2.1,298.78,3.32,448.15c-44.21,2.57-79.24,39.23-79.24,84.05c0,44.02,33.8,80.18,76.88,83.89
				c0.83,154.24,1.38,308.45-1.02,462.68c-0.19,11.49-0.78,23.01-0.28,34.47C862.4,1844.07,865.83,1849.39,872.84,1850.66z"/>
			<path class="st4" d="M924.66,1255.09c0,7.53-1.55,14.7-4.32,21.21c-1.44,0.03-2.91,0.03-4.35,0.03
				c-29.37,0.08-45.04,10.02-50.47,32.5c-27.41-2.6-48.81-25.66-48.81-53.74c0-28.96,22.79-52.58,51.41-53.9
				c3.77,17.77,13.93,22.29,43.69,25.14c1.61,0.17,3.24,0.3,4.85,0.47C921.73,1235.01,924.66,1244.7,924.66,1255.09z"/>
		</g>
	</g>
</g>
<g id="Layer_1_copy">
	<g>
		<path class="st3" d="M1201.16,666.54c-10.41,23.26-4.43,47.54-4.62,71.21c-0.75,89.29-0.94,178.6-1.08,267.91
			c-0.03,25.44-0.03,50.91-0.08,76.38c0,19.49-0.03,38.98-0.06,58.47c-0.03,13.04-0.19,26.08,2.02,39.04
			c0.17,1.19,0.39,2.38,0.64,3.57c2.35,11.57-1.19,22.2-8.47,31.87c-3.9,5.2-8.89,10.47-15.75,8.39c-16.22-4.85-32,0.61-47.95,0.25
			c-9.14-0.19-17.3-1.88-25.5-6.12c-6.42-3.32-13.04-6.51-15.75-11.77c-1.41-2.66-1.8-5.84-0.66-9.86
			c3.02-10.66,11.49-18.38,24.03-19.46c10.11-0.86,20.38-0.33,32.78-0.22c2.16,0.03,4.01-1.58,4.1-3.57
			c0.53-11.43,0.97-22.87,1.33-34.3c0.94-29.07,1.38-58.06,1.52-86.99c0.11-26.05-0.06-52.05-0.39-78.02
			c-0.5-42.55-1.47-84.97-2.38-127.27c-0.55-27.38-1.11-54.71-1.52-82c-0.03-1.83-1.49-3.46-3.46-3.65c-5.65-0.58-6.67,2.8-8.19,5.4
			c-26.52,45.24-53.49,90.28-76.55,137.13c-5.59,11.35-13.54,18.85-26.94,19.63c-13.93,0.8-21.76-7-28.21-17.77
			c-21.07-35.13-42.75-69.99-64.62-104.71c-3.35-5.29-5.68-8.2-10.16-14.84c-1.3-1.91-3.71-2.16-5.43-1.27
			c-1.19,0.58-2.05,1.72-2.05,3.24v384.97c0,1.44,0.89,2.85,2.35,3.38c9.03,3.24,20.38,1.11,31.12,0.91c2.49-0.06,4.87,0.06,7.2,0.3
			c9.58,0.91,18,4.04,26.63,8.72c0.06,0.03,0.14,0.08,0.19,0.11c9.3,5.07,12.46,11.63,11.38,20.35c-0.22,1.85-0.58,3.6-1.08,5.26
			c-2.08,6.81-6.76,11.82-15.95,14.09c-0.17,0.03-0.3,0.08-0.47,0.11c-9.47,2.33-18.96,3.24-28.43,3.32
			c-11.41,0.17-22.76-0.86-34.03-1.94c-1.61-0.17-3.24-0.3-4.85-0.47c-29.76-2.85-39.92-7.36-43.69-25.14
			c-1.22-5.7-1.77-12.76-2.13-21.59c-0.11-2.85-0.22-5.7-0.3-8.55c-5.43-149.36-1.05-298.76-3.32-448.15
			c-0.22-14.98-1.02-31.23-0.06-46.18c0.17-2.33,0.08-4.68,0.19-7c0.22-6.06,1.58-11.68,10.63-14.84
			c13.32-4.6,38.54,0.08,44.93,8.67c3.65,4.93,6.34,10.47,10.33,17.22c31.48,56.56,64.48,110.49,93,166.53
			c1.25,2.41,3.32,4.65,7.36,4.87c0.66,0.06,1.36-0.11,1.97-0.36c7.84-3.43,10.88-11.57,14.09-18.33
			c12.21-25.42,29.1-48.51,41.89-73.53c15.89-31.15,35.38-60.44,52.74-90.81c7.56-13.26,45.93-21.35,57.97-12.51
			C1200.86,659.15,1202.82,662.89,1201.16,666.54z"/>
		<path class="st3" d="M1875.46,659.41c14.11,8.25,11.21,20.87,11.22,32.09c0.1,99.8-0.1,199.6-0.1,299.4
			c0,51.43,0.21,102.86,0.39,154.29c0.05,14.37,0.4,28.12,18.48,32.52c10.23,2.49,14.39,12.4,13.62,21.84
			c-0.79,9.57-7.29,16.76-17.08,19.88c-18.81,5.99-35.06,1.13-50.25-10c-3.32-2.43-7.65-2.81-11.24-0.84
			c-11.43,6.29-22.94,12.23-33.55,19.54c-7.15,4.93-14.33,4.74-21.73,4.9c-23.64,0.51-47.49-1.34-70.91,1.13
			c-49.73,5.23-100.85-52.43-97.72-101.2c2.54-39.63,1.21-79.34,3.02-119.03c1.56-34.24,15.85-59.38,41.22-78.82
			c19.2-14.71,43.1-14.99,65.75-16.06c28.88-1.35,58.01-2.12,86.35,6.45c0.03,0.01,0.07,0.02,0.1,0.03
			c6.61,1.94,13.12-3.53,13.12-10.61V700.52c0-5.3-3.69-9.95-8.78-10.76c-3.18-0.51-6.37-0.19-9.43-0.19
			c-35.66,0.04-71.32,0.6-106.98,0.35c-16.8-0.12-30.78,13.31-31.73,30.57c-1.92,34.79,1.22,69.59,0.57,104.37
			c-0.17,8.98,7.19,10.69,13.48,13.61c8.97,4.16,14.91,10.57,13.4,21.84c-1.6,11.91-10.51,15.02-19.68,16
			c-23.99,2.57-49.61-2.38-49.18-36.19c0.59-46.79-5.44-93.39-2.47-140.18c1.13-17.86,5.75-33.23,21.54-43.93
			c5.45-3.69,10.43-5.81,16.62-6.01c55.66-1.78,111.33-4.02,167-2.12C1845.28,648.39,1861.39,646.56,1875.46,659.41z
			 M1721.41,961.33c-3.8,0.14-7.61,0.18-11.41,0.43c-32.25,2.08-41.3,11.49-41.64,44.62c-0.49,47.42,0.27,94.84-3.21,142.21
			c-1.43,19.47,6.04,30.44,23.35,34.32c38.24,8.58,76.63,11.02,114.69-1.77c21.56-7.25,24.96-11.89,24.95-35.17
			c-0.01-49.77-0.04-99.53-0.05-149.3c-0.01-25.5-6.41-33.45-31.62-34.81C1772.95,960.59,1749.33,961.29,1721.41,961.33z"/>
		<path class="st3" d="M1875.46,1285.62c14.11,8.14,11.21,20.58,11.22,31.65c0.1,98.44-0.1,196.87-0.1,295.31
			c0,50.73,0.21,101.45,0.39,152.18c0.05,14.18,0.4,27.73,18.48,32.08c10.23,2.46,14.39,12.23,13.62,21.55
			c-0.79,9.44-7.29,16.54-17.08,19.61c-18.79,5.9-35.03,1.12-50.21-9.83c-3.33-2.41-7.72-2.78-11.33-0.82
			c-11.41,6.19-22.91,12.04-33.49,19.24c-7.15,4.86-14.33,4.67-21.73,4.83c-23.64,0.5-47.49-1.32-70.91,1.11
			c-49.73,5.16-100.85-51.72-97.72-99.82c2.54-39.09,1.21-78.26,3.02-117.4c1.56-33.77,15.85-58.57,41.22-77.74
			c19.2-14.51,43.1-14.79,65.75-15.84c28.88-1.34,58.01-2.09,86.35,6.36c0.03,0.01,0.07,0.02,0.1,0.03
			c6.6,1.91,13.12-3.39,13.12-10.26v-211.87c0-5.13-3.67-9.61-8.73-10.42c-3.2-0.51-6.4-0.2-9.48-0.19
			c-38.91,0.04-77.82,0.69-116.71,0.25c-13.2-0.15-19.81,4.6-21.07,17.92c-3.65,38.43,0.37,76.85-0.36,115.27
			c-0.17,8.86,7.19,10.55,13.48,13.43c8.97,4.11,14.91,10.43,13.4,21.54c-1.6,11.75-10.51,14.81-19.68,15.78
			c-23.99,2.53-49.61-2.35-49.18-35.7c0.59-46.15-5.44-92.11-2.47-138.27c1.13-17.61,5.75-32.78,21.54-43.33
			c5.45-3.64,10.43-5.73,16.62-5.93c55.66-1.76,111.33-3.97,167-2.09C1845.28,1274.75,1861.39,1272.95,1875.46,1285.62z
			 M1721.41,1583.41c-3.8,0.14-7.61,0.18-11.41,0.42c-32.25,2.05-41.3,11.34-41.64,44.01c-0.49,46.77,0.27,93.54-3.21,140.27
			c-1.43,19.2,6.04,30.02,23.35,33.85c38.24,8.46,76.63,10.87,114.69-1.75c21.56-7.15,24.96-11.73,24.95-34.69
			c-0.01-49.09-0.04-98.17-0.05-147.26c-0.01-25.15-6.41-32.99-31.62-34.33C1772.95,1582.68,1749.33,1583.37,1721.41,1583.41z"/>
		<path class="st3" d="M1433.28,959.06c-28.94,0.76-56.26-1.09-84.51-4.6c-12.59-1.57-23.93,7.09-24.33,18.72
			c-2.18,62.7,1.96,124.38,0.66,187.14c-0.22,10.87,9.39,19.78,21.27,19.78h179.21c10.91,0,20.04-7.55,21.18-17.48
			c0.32-2.83,0.74-5.59,1.74-8.24c3.4-9.03,9.04-14.53,19.77-14.96c11.17-0.45,14,7.24,16.31,14.66c4.45,14.3,4.95,29.02,1.5,43.45
			c-4.54,18.99-35.67,33.98-58.64,26.99c-21.04-6.4-41.48-4.97-62.05-0.71c-49.21,10.19-99,4.32-148.5,4.59
			c-13.53,0.07-26.45-8.35-40.42-11.14c-10.28-2.05-13.31-11.12-13.71-20.07c-0.45-10-0.37-20.03-0.37-30.04
			c0.02-131.75-0.18-263.5,0.22-395.25c0.18-57.8,12.47-93.01,69.5-115.77c7.25-2.9,34.05-6.88,41.62-7.09
			c22.72-0.62,45.45-1.46,68.18-1.81c56.27-0.87,90.09,5.95,113.17,53.15c8.42,17.22-13.8,49.8-13.7,67.28
			c0.24,39.25,20.16,75.83,11.05,114.73c-10.04,42.83-28.62,69.82-89.14,74.28C1454.04,957.34,1444.83,958.21,1433.28,959.06z
			 M1324.12,882.53c1.42,24.6,6,30.44,34.2,32.82c37.73,3.19,75.71,2.68,113.42-1.26c19-1.98,27.3-9.53,27.71-27.2
			c1.23-53.87,1.21-107.74,4.16-161.59c0.9-16.34-12.34-30.52-29.87-31.95c-36.05-2.94-72.84-5.68-108.21,1.07
			c-28.03,5.35-43.25,19.8-41.26,48.68C1327.4,788.37,1324,832.76,1324.12,882.53z"/>
		<path class="st3" d="M1201.66,1833.55c-2.74,9.19-9.19,15.89-19.38,16.92c-5.98,0.61-12.1,0.39-18.13,0.39
			c-88.57,0.03-177.13,0.03-267.89,0.06c-7.5-0.03-12.82-0.39-18.11,0c-1.94,0.14-3.71,0.06-5.29-0.25h-0.03
			c-7-1.27-10.44-6.59-10.8-14.53c-0.5-11.46,0.08-22.98,0.28-34.47c2.41-154.24,1.86-308.45,1.02-462.68
			c0-2.55-0.03-5.12-0.03-7.67c-0.06-8.55,0.66-16.03,2.21-22.48c5.43-22.48,21.1-32.42,50.47-32.5c1.44,0,2.91,0,4.35-0.03
			c10.63-0.06,21.29-0.25,31.98-0.44c9.58-0.19,19.19-0.36,28.77-0.42c16.69-0.11,33.39,0.11,50,1.25h0.03l0.03,0.03
			c3.96,0.25,7.92,0.55,11.88,0.94c39.15,3.74,78.43,4.71,117.5,8.94c5.18,0.55,12.87-7.48,17.47-5.09
			c10.6,5.56,8.28,26.33-2.13,32.59c-2.91,1.74-5.95,2.91-9.08,3.68c-5.59,1.38-11.46,1.61-17.3,1.97
			c-36.24,2.27-72.98-3.05-108.75,3.96c-2.08,0.42-4.15,0.78-6.23,1.14c-15.28,2.57-30.59,3.68-45.9,4.13
			c-10.05,0.3-20.1,0.3-30.15,0.25c-10.22-0.06-20.43-0.17-30.65-0.08c-19.88,0.14-23.56,1-21.26,20.21
			c0.53,4.37,1.02,8.75,1.52,13.15c3.1,28.29,5.48,57.14,7.14,86.46c0.03,0.03,0.03,0.03,0.03,0.06
			c5.43,93.88,3.85,192.36-3.1,292.25c-1.05,15.34-2.24,30.7-3.54,46.1c-1.33,15.64,6.37,22.43,21.35,22.59
			c24.97,0.28,49.97,2.08,74.89,1.16c51.3-1.91,102.58-5.23,153.85-7.84c11.38-0.58,22.12,0.08,32.34,7.45
			C1199.53,1816.86,1204.65,1823.44,1201.66,1833.55z"/>
		<path class="st3" d="M1504.75,1277.15c18.91,0.01,35.57-0.29,52.2,0.09c25.44,0.57,29.84,4.65,30.92,32.27
			c0.92,23.71,0.22,47.49,0.11,71.24c-0.27,58.62-0.69,117.24-0.88,175.86c-0.09,26.69-5.51,33.81-31.88,34.28
			c-37.06,0.67-74.14-0.37-111.21-0.69c-1.51-0.01-3.03-0.09-4.54-0.12c-35.54-0.66-35.48-0.66-35.97,35.41
			c-0.5,36.41-1.22,72.81-1.67,109.21c-0.14,10.92-2.19,20.63-12.62,25.77c-10.74,5.29-22.9-0.57-27.09-13.12
			c-3.06-9.14-2.61-18.75-2.62-28.25c-0.07-131.51-0.12-263.02-0.17-394.53c0-0.79,0-1.58,0.01-2.38
			c0.52-39.15,5.71-45.75,43.3-46.6C1435.89,1274.84,1469.2,1276.53,1504.75,1277.15z M1404.58,1436.15
			c-0.14,27.71-0.3,55.42-0.4,83.13c-0.1,28.3-0.04,28.63,28.14,28.52c25.7-0.1,51.41-0.69,77.1-1.57c1.14-0.04,2.29-0.06,3.44-0.07
			c18.46-0.16,33.24-15.44,33.22-33.9c-0.06-54.43,0.24-108.7-1.58-163.62c-0.6-18.21-15.59-32.67-33.81-32.7
			c-25.03-0.05-49.67-0.49-74.79,1.44c-17.67,1.36-31.31,16.09-31.32,33.81C1404.58,1378.59,1404.58,1406.09,1404.58,1436.15z"/>
		<path class="st3" d="M1291.03,1622.13c9.54,71.87,0,123.9,0,188.14c43.74,1.26,114.73-11.53,154.1,5.61
			c38.07,16.58,62.97-4.43,106.12-4.57c6.72-14.56,2.91-27.81,6.91-39.83c2.71-8.16,6.16-14.44,15.24-14.9
			c8.17-0.42,14.23,2.34,18.55,10.5c6.88,12.99,9.56,26.26,7.54,40.99c-5.86,42.82-5.72,42.83-47.47,42.82
			c-88.62-0.01-177.23,0.05-265.85-0.04c-24.55-0.02-34.88-10.4-37.16-36.56c-2.41-27.58-2.6-55.22-2.64-82.89
			c-0.19-137.51-0.53-275.02-0.83-412.54c-0.02-9.48-0.57-18.97,2.75-28.11c4.07-11.24,12.9-15.24,23.22-15.35
			c10.58-0.11,23.95,5.66,25.54,15.94c1.56,10.06,1.67,20.43,1.66,30.67C1298.55,1420.81,1277.72,1521.86,1291.03,1622.13z"/>
		<path class="st3" d="M1190.67,1701.1c0.06,27.85-7.28,36.68-34.22,37.4c-40.84,1.05-81.76,1.08-122.62,0.53
			c-25.86-0.36-33-8.25-34.44-35.11c-1.33-24.56-2.08-49.11-3.07-75.94c-0.14-34.33-0.28-67.97-0.39-101.3
			c-0.11-27.08-0.19-53.93-0.28-80.79c-0.03-8.42-0.58-16.97,3.1-24.94c0.83-1.8,1.74-3.49,2.77-5.01
			c4.49-6.89,10.83-10.94,20.16-10.38c11.43,0.66,17.86,7.39,20.71,18.05c1.8,6.7,2.49,13.51,2.71,20.38
			c0.14,3.88,0.14,7.78,0.08,11.68c-0.47,38.73-1,77.46-1.55,116.2c-0.44,30.43-0.89,60.83-1.33,91.25
			c-0.42,28.63-0.47,28.74,28.65,29.21c17.41,0.28,34.83,0.39,52.22,0.22c22.65-0.22,23.17-0.69,23.42-23.12
			c0-0.97,0.03-1.97,0.03-2.93c0.44-42.83,0.83-85.66,1.22-128.49c0.25-26.36,0.5-52.71,0.75-79.07c0.03-3.6,0.08-7.17,0.11-10.77
			c0.06-7.7,0.06-15.42,1-23.01c1.25-10.08,6.23-17.94,17.25-17.83c10.91,0.08,18.88,5.62,20.65,17.39
			c1.14,7.59,2.05,15.28,2.1,22.92c0.08,16.56,0.17,33.14,0.25,49.7C1190.28,1565.28,1190.53,1633.19,1190.67,1701.1z"/>
		<g>
			<path class="st5" d="M872.84,1850.66c-0.53,0.17-1.11,0.25-1.77,0.25c-4.57,0-7-2.93-7.95-7.39c-1.66-7.78-3.93-15.42-5.26-23.26
				c-3.6-20.99-11.24-40.61-19.99-59.83c-13.54-29.79-28.49-58.86-46.95-86.02c-7.56-11.13-14.56-22.67-19.35-35.33
				c-10.38-27.49-7.64-54.49,3.29-81.2c5.48-13.4,13.95-25.08,20.93-37.6c14.12-25.22,24-52.13,32.53-79.62
				c6.73-21.71,9.88-44.05,12.6-66.47c0.89-7.45,0.17-8.36-7.2-11.41c-5.92-2.46-11.77-5.12-17.61-7.81
				c-6.73-3.1-8.89-2.33-10.19,4.6c-2.19,11.38-5.07,22.79-5.79,34.27c-2.52,39.92-17.97,75.08-38.23,108.67
				c-17,28.21-39.73,50.91-66,70.4c-17.66,13.1-35.88,25.39-53.1,39.09c-16.92,13.43-31.17,29.21-43.33,47.01
				c-4.13,6.04-7.78,12.43-13.12,17.61c-7.53,7.34-15.25,6.01-19.52-3.57c-1.63-3.63-2.44-7.5-2.49-11.57
				c-0.14-9.83,1.08-19.52,3.27-29.07c6.15-26.44,10.77-53.24,19.49-79.13c10.02-29.85,27.82-53.35,53.54-71.18
				c20.85-14.45,41.36-29.37,62.32-43.63c12.62-8.55,26.55-15.14,38.48-24.81c13.07-10.6,24.11-22.18,27.66-39.67
				c2.69-13.12,6.92-25.97,12.29-38.34c1.72-3.96,1.61-7.64-1.19-11.18c-2.27-2.88-4.21-6.01-6.45-8.91c-3.29-4.18-4.98-4.51-9-0.91
				c-8.69,7.84-16.25,16.58-20.07,27.99c-2.52,7.53-4.9,15.12-7.67,22.56c-8.25,22.23-23.78,38.04-44.08,49.64
				c-15.53,8.89-32.7,13.65-49.28,19.85c-16.92,6.34-33.64,13.01-49.17,22.34c-21.93,13.21-38.34,31.98-53.05,52.49
				c-3.02,4.24-5.76,8.64-8.8,12.87c-2.46,3.43-5.62,5.9-10.13,4.15c-4.01-1.55-5.04-5.07-4.82-9.03c0.14-3.05,0.06-6.17,0.78-9.11
				c6.26-25.89,14.2-51.25,24.64-75.78c14.45-33.89,39.59-57.48,71.84-74.14c21.01-10.85,43.16-18.69,65.59-25.94
				c12.24-3.93,24.28-8.39,36.41-12.6c3.82-1.33,7.2-3.24,9.97-6.28c8.08-8.91,18-15.56,27.91-22.18c7.25-4.85,7.28-4.79,5.76-13.21
				c-2.41-13.29-2.44-13.54-15.97-11.71c-21.46,2.91-41.97,9.25-59.99,21.35c-21.48,14.45-44.91,21.32-70.52,22.9
				c-16.11,0.97-32.23,2.57-47.81,7.5c-18.3,5.79-33.25,16.56-46.54,29.96c-1.94,1.97-3.96,3.85-5.68,6.01
				c-3.32,4.21-7.5,4.9-12.32,3.32c-4.98-1.66-7.2-5.54-7.56-10.47c-0.69-9.25,0.42-18.22,4.18-26.88
				c10.3-23.73,27.88-39.78,51.66-49.25c11.05-4.43,21.87-9.55,33.64-11.96c1.47-0.3,2.93-1,4.18-1.83
				c2.41-1.66,2.19-3.68-0.33-4.87c-2.44-1.16-5.2-1.66-7.84-2.52c-18.36-5.9-36.63-12.04-52.44-23.56
				c-15.86-11.57-26.19-27.19-32.03-45.79c-1.94-6.2-1.52-12.74-0.83-19.1c0.58-5.07,4.18-7.97,8.86-9.52
				c4.29-1.44,7.56,0.08,10.6,3.29c6.53,6.84,13.1,13.59,20.63,19.49c16.92,13.26,36.13,19.91,57.25,22.45
				c15.45,1.85,31.09,1.85,46.4,5.2c14.48,3.18,28.24,7.86,40.59,16.22c21.73,14.65,45.85,22.73,71.73,25.89
				c6.23,0.78,7.39-0.03,9.08-6.09c0.08-0.3,0.19-0.61,0.22-0.89c2.21-15.31,5.7-12.13-8.36-21.21
				c-7.7-4.98-15.17-10.38-21.35-17.22c-4.46-4.93-9.91-8-16.11-10.08c-17.39-5.84-34.72-11.9-52.1-17.77
				c-23.26-7.86-45.88-17.3-66.2-31.12c-22.87-15.53-40.92-35.58-51.99-61.43c-10.11-23.67-17.8-48.12-24.34-72.98
				c-1.27-4.79-1.69-9.61-1.61-14.53c0.06-3.74,1.47-6.51,5.12-7.84c3.79-1.41,6.7,0.33,8.8,3.13c4.4,5.87,8.36,12.07,12.74,17.94
				c14.65,19.8,31.12,37.68,52.71,50.22c14.34,8.33,29.65,14.42,45.16,20.16c14.89,5.54,30.15,10.16,44.38,17.33
				c25.97,13.12,45.13,32.12,52.99,61.02c4.32,15.89,11.38,30.26,24.2,41.31c6.7,5.76,7.81,5.9,12.82-1
				c7.97-10.99,8.14-11.07,2.82-23.67c-5.15-12.18-8-25.03-11.52-37.68c-3.16-11.32-9.05-20.49-17.64-28.35
				c-9.08-8.28-18.77-15.75-29.51-21.62c-22.87-12.51-43.38-28.52-64.78-43.22c-12.6-8.64-24.7-17.89-35.94-28.32
				c-14.53-13.48-23.84-29.96-30.76-48.2c-9.41-24.7-14.12-50.58-19.88-76.19c-2.02-8.97-3.74-17.94-4.68-27.08
				c-0.64-6.09-0.61-12.15,0.78-18.22c1.3-5.76,3.77-10.58,9.86-12.07c5.98-1.47,9.86,2.57,13.12,6.64
				c3.65,4.51,6.67,9.5,10.05,14.23c10.24,14.48,20.76,28.71,34.33,40.39c12.54,10.8,26.22,20.02,39.37,29.96
				c16.31,12.32,33.33,23.73,48.48,37.62c14.53,13.32,27.27,28.1,37.85,44.57c11.07,17.25,20.07,35.69,28.41,54.43
				c8.2,18.44,10.16,38.23,12.9,57.89c1.72,12.07,3.82,24.11,6.15,36.1c1.58,8.08,3.18,8.69,10.38,5.18
				c6.04-2.96,11.99-6.06,18.36-8.39c6.31-2.33,7.12-3.54,6.28-10.3c-2.35-19.08-4.32-38.23-9.5-56.84
				c-7.42-26.55-16.75-52.38-28.65-77.27c-5.43-11.32-12.02-21.98-18.6-32.64c-11.63-18.88-18.55-39.26-19.24-61.41
				c-0.64-20.02,4.71-38.68,15.06-55.84c11.66-19.38,24.72-37.9,35.35-57.89c14.95-28.07,28.85-56.7,38.21-87.21
				c3.32-10.77,5.12-22.01,7.61-33.03c0.42-1.74,0.8-3.49,1.25-5.23c-0.11,2.33-0.03,4.68-0.19,7c-0.97,14.95-0.17,31.2,0.06,46.18
				c2.27,149.39-2.1,298.78,3.32,448.15c-44.21,2.57-79.24,39.23-79.24,84.05c0,44.02,33.8,80.18,76.88,83.89
				c0.83,154.24,1.38,308.45-1.02,462.68c-0.19,11.49-0.78,23.01-0.28,34.47C862.4,1844.07,865.83,1849.39,872.84,1850.66z"/>
			<path class="st5" d="M924.66,1255.09c0,7.53-1.55,14.7-4.32,21.21c-1.44,0.03-2.91,0.03-4.35,0.03
				c-29.37,0.08-45.04,10.02-50.47,32.5c-27.41-2.6-48.81-25.66-48.81-53.74c0-28.96,22.79-52.58,51.41-53.9
				c3.77,17.77,13.93,22.29,43.69,25.14c1.61,0.17,3.24,0.3,4.85,0.47C921.73,1235.01,924.66,1244.7,924.66,1255.09z"/>
		</g>
	</g>
</g>
<g id="Layer_2" class="st0">
	<g id="Layer_3">
		<rect x="1850" y="750" class="st6" width="1000" height="1000"/>
	</g>
	<g class="st2">
		<g>
			<path class="st7" d="M2337.42,1282.96c-13.87-2.28-25.04-13.49-27.29-27.36c-3.71-22.91,15.85-42.36,38.71-38.56
				c13.83,2.3,24.98,13.46,27.26,27.29C2379.87,1267.2,2360.33,1286.73,2337.42,1282.96z"/>
			<path class="st7" d="M2305.58,1466.8c10.97-5.42,19.31-13.44,24.64-24.48c4.82-10.02,8.59-20.39,10.88-31.3
				c0.32-1.59-0.03-4.28,2.16-4.34c2.41-0.06,1.78,2.66,2.12,4.25c2.76,13.38,7.04,26.35,14.59,37.77
				c7.58,11.42,18.11,19.12,32.06,21.37c2.5,0.41,4.98,0.41,7.42-0.44c5.45-1.97,6.72-7.13,2.7-11.23c-2-2.03-4.19-3.9-6.15-5.99
				c-9.16-9.77-14.74-21.18-17.09-34.5c-1.55-8.66-1.62-17.41-2.82-26.06c-1.43-10.65-4.63-20.61-10.46-29.55
				c-7.74-11.86-12.84-24.64-15.06-38.62c-1.2-7.58-1.01-8.05,6.41-9.67c5.14-1.14,5.14-1.14,8.15,3.49
				c3.68,5.74,7.61,11.29,12.65,15.89c1.93,1.74,3.23,3.84,4.06,6.21c3.49,9.96,7.07,19.88,10.37,29.9
				c4.57,13.95,10.43,27.33,18.33,40.21c8.94,13.35,19.95,23.91,34.37,30.38c15.51,6.98,31.65,12.18,48.23,16.08
				c1.78,0.41,3.58,0.57,5.33,0.19c2.03-0.44,3.52-1.74,4-3.87c0.41-1.97-0.35-3.52-1.97-4.63c-1.43-1.05-2.95-2-4.44-2.98
				c-20.67-13.73-36.47-31.36-44.62-55.24c-3.11-9.13-6.41-18.23-10.12-27.11c-7.42-17.85-19.41-31.11-38.75-36.43
				c-1.87-0.51-3.71-1.27-5.55-1.9c-6.22-2.09-11.61-5.36-16.17-10.15c-6.02-6.34-6.06-6.15,1.14-11.13
				c2.6-1.81,4.91-2.57,7.96-1.27c7.86,3.46,16.08,5.9,24.42,7.93c6.63,1.62,12.18,4.88,16.9,9.83c6.06,6.41,10.78,13.7,15.25,21.25
				c10.02,16.93,21.72,32.76,33.52,48.45c9.1,12.08,21.05,20.64,35.55,25.72c18.11,6.34,36.91,9.83,55.65,13.51
				c4.82,0.95,9.96,0.98,14.9-0.25c3.11-0.79,5.68-2.51,6.37-5.8c0.7-3.2-1.3-5.49-3.61-7.29c-2.38-1.87-4.92-3.55-7.45-5.23
				c-11.89-7.83-22.48-17.09-31.01-28.51c-7.48-10.02-14.68-20.23-22.07-30.31c-7.1-9.7-15.35-18.33-24.48-26.16
				c-11.67-9.99-25.15-17-38.88-23.5c-9.26-4.38-18.87-7.64-29.14-8.59c-5.17-0.48-10.27-1.3-15.38-2.12
				c-5.8-0.95-11.61-1.97-17.34-3.2c-3.46-0.76-3.93-1.9-2.28-4.85c2.19-3.93,3.9-8.02,5.39-12.24c0.79-2.28,2-3.71,4.66-3.33
				c6.02,0.82,12.08,1.33,18.04,2.41c28,5.2,54.51,14.46,78.67,29.84c10.91,6.91,22.7,11.29,35.58,12.4
				c14.71,1.27,27.84-3.77,39.86-11.73c18.36-12.18,37.42-23.05,57.71-31.68c10.02-4.28,20.01-8.66,30.92-10.37
				c4.92-0.79,9.77-2.16,14.62-3.36c2.44-0.57,5.04-1.08,5.14-4.44c0.09-2.51-0.92-3.46-4.95-4.47c-1.4-0.38-2.79-0.7-4.19-1.01
				c-6.44-1.46-13-2.51-19.31-4.44c-17.82-5.49-34.56-13.6-50.99-22.35c-11.67-6.21-22.51-13.86-33.83-20.67
				c-10.02-6.03-20.96-9.16-32.63-8.82c-12.97,0.41-24.86,4.47-35.9,11.26c-6.25,3.87-12.46,7.71-19.09,10.88
				c-14.55,6.98-29.65,12.43-45.19,16.77c-10.88,3.01-22.07,4.19-33.23,5.55c-3.93,0.48-4.63,0-5.99-3.68
				c-1.36-3.71-3.17-7.2-4.92-10.72c-2.06-4.22-1.71-5.17,3.04-6.09c7.01-1.36,14.02-2.6,21.09-3.58
				c11.51-1.62,23.05-2.76,33.83-7.55c10.97-4.88,21.75-10.12,31.84-16.62c9.61-6.18,18.26-13.63,26.03-22.13
				c8.15-8.85,14.81-18.77,22.01-28.32c5.83-7.67,11.19-15.7,17.5-23.02c6.85-7.93,15.16-14.08,23.62-20.07
				c2.76-1.97,5.68-3.74,8.31-5.87c2.38-1.93,4.76-4.19,3.9-7.67c-0.89-3.55-3.71-5.01-7.07-5.77c-3.52-0.79-7.07-0.82-10.65-0.44
				c-5.33,0.54-10.56,1.55-15.82,2.73c-14.97,3.36-30.09,6.12-44.52,11.61c-10.69,4.06-20.33,9.51-28.19,18.01
				c-6.09,6.56-11.51,13.63-16.55,20.99c-8.59,12.53-17.95,24.51-25.27,37.86c-3.42,6.31-7.8,11.95-12.65,17.25
				c-4.57,5.04-9.93,8.5-16.55,10.34c-7.39,2.06-14.9,3.71-22.04,6.72c-7.36,3.11-7.39,3.01-13.83-1.65
				c-4.03-2.92-3.96-3.58-0.6-7.48c6.47-7.52,14.87-11.64,24.16-14.14c16.9-4.6,28-15.79,35.67-30.98
				c4.19-8.34,6.91-17.25,10.12-25.94c3.36-9.07,6.94-18.04,11.8-26.41c7.32-12.62,17.79-22.26,29.36-30.82
				c3.42-2.54,7.04-4.88,10.5-7.45c1.62-1.2,2.63-2.92,1.81-5.14c-0.76-2.12-2.38-2.95-4.57-3.01c-2.89-0.03-5.71,0.22-8.5,0.95
				c-14.52,3.84-28.82,8.31-42.68,14.24c-15.09,6.47-26.83,17.03-35.9,30.41c-8.09,11.86-13.6,25.08-18.2,38.69
				c-3.42,10.15-6.98,20.29-10.37,30.44c-1.24,3.65-3.04,6.82-5.9,9.42c-4,3.65-7.17,7.99-10.08,12.49
				c-5.3,8.21-3.46,6.18-12.4,4.88c-0.16,0-0.32-0.06-0.51-0.13c-3.55-0.98-4.03-1.65-3.58-5.3c1.87-15.16,6.6-29.24,15.16-41.95
				c4.88-7.23,7.61-15.25,9.48-23.72c1.97-8.97,1.97-18.11,3.04-27.14c1.49-12.34,5.36-23.56,13.13-33.45
				c3.42-4.41,7.39-8.24,11.38-12.05c1.87-1.81,2.76-3.68,1.93-6.21c-0.92-2.73-2.6-4.82-5.55-5.17c-3.74-0.41-7.58-0.67-11.19,0.48
				c-10.88,3.42-20.01,9.48-26.76,18.74c-6.72,9.23-10.34,19.91-13.79,30.66c-0.48,1.52-0.76,3.14-1.46,4.57
				c-0.7,1.46-1.87,1.59-2.85,0.19c-0.48-0.73-0.89-1.59-1.05-2.44c-1.43-6.88-4.41-13.22-7.01-19.66
				c-5.52-13.89-14.9-24.19-28.79-30.22c-5.07-2.19-10.31-2.82-15.73-2.44c-2.85,0.22-5.14,1.52-6.09,4.44
				c-0.95,2.79-0.54,5.23,1.93,7.2c1.27,0.98,2.35,2.19,3.49,3.33c7.86,7.77,14.14,16.49,17.54,27.17
				c2.89,9.13,3.8,18.55,4.38,27.97c0.92,14.97,4.95,28.67,13.38,41.22c7.07,10.53,10.78,22.51,12.49,35.07
				c1.08,7.93,0.92,7.93-6.85,9.35c-4.92,0.89-4.88,0.86-7.71-3.39c-3.9-5.77-7.77-11.57-12.97-16.3c-1.78-1.62-2.92-3.61-3.68-5.83
				c-2.47-7.1-5.07-14.14-7.39-21.28c-4.22-13.13-8.82-26.07-15.16-38.34c-9.73-18.87-23.53-33.55-43.35-42.02
				c-14.33-6.09-29.14-10.75-44.3-14.4c-1.71-0.41-3.55-0.38-5.33-0.48c-2.28-0.1-4.34,0.48-5.26,2.82
				c-1.01,2.63,0.41,4.5,2.44,5.93c2.44,1.78,5.04,3.39,7.52,5.17c11.99,8.56,22.96,18.17,30.66,31.01
				c5.49,9.07,9.39,18.84,13.06,28.73c3.65,9.7,6.44,19.72,11.61,28.82c6.79,11.86,16.05,20.93,29.05,25.75
				c4.34,1.62,8.78,3.01,13.19,4.47c6.66,2.25,11.76,6.66,16.36,11.76c2.09,2.31,1.9,3.33-0.54,5.23c-1.71,1.33-3.52,2.47-5.2,3.77
				c-2.09,1.65-4.25,1.71-6.56,0.7c-7.23-3.14-14.74-5.61-22.42-7.17c-10.21-2.09-17-8.53-23.18-16.17
				c-5.64-6.98-9.48-15.13-14.52-22.51c-8.31-12.24-17.03-24.23-25.49-36.43c-10.43-15.03-24.16-25.43-41.6-31.3
				c-15.13-5.11-30.79-7.8-46.26-11.38c-5.58-1.3-11.26-2-17-1.9c-2.38,0.03-4.63,0.48-6.75,1.46c-5.61,2.47-6.37,7.01-2.09,11.42
				c3.01,3.11,6.75,5.26,10.31,7.67c10.4,7.07,19.63,15.41,27.49,25.3c7.99,10.08,15.19,20.74,22.83,31.04
				c11.38,15.38,24.67,28.67,41.16,38.59c19.63,11.86,40.18,20.86,63.51,22.36c6.72,0.41,13.38,2.09,20.04,3.36
				c4.06,0.79,4.5,2.03,2.7,5.96c-1.59,3.42-3.11,6.85-4.57,10.31c-1.78,4.28-2.31,4.72-6.66,4.22
				c-13.13-1.59-26.16-3.46-38.88-7.39c-16.08-4.98-31.8-10.75-46.52-18.99c-7.32-4.09-14.17-9.04-22.01-12.24
				c-15.6-6.41-31.39-7.99-47.47-1.93c-7.39,2.79-14.14,6.91-20.64,11.32c-15.89,10.78-32.88,19.53-50.29,27.46
				c-11.23,5.11-22.7,9.58-34.98,11.67c-4.57,0.79-9.04,2.12-13.57,3.08c-2.63,0.54-4.34,1.97-4.34,4.66
				c0.03,2.57,1.97,3.42,4.31,3.93c6.79,1.43,13.64,2.82,20.36,4.6c19.18,4.95,36.72,13.89,54.19,22.96
				c11.73,6.09,22.48,13.86,33.83,20.64c11.32,6.79,23.53,10.5,36.81,9.1c11.7-1.24,22.58-5.14,32.69-11.26
				c5.49-3.33,10.91-6.88,16.68-9.7c25.75-12.46,52.64-21.18,81.33-23.47c2.31-0.19,3.9,0.29,4.57,2.57
				c1.36,4.47,3.49,8.62,5.52,12.78c1.46,3.08,0.95,4.28-2.35,5.01c-8.21,1.74-16.43,3.42-24.77,4.28
				c-8.18,0.86-16.36,1.9-24.13,4.63c-13.06,4.57-25.27,10.91-37,18.14c-11.51,7.07-21.59,15.73-30.41,26.03
				c-8.12,9.51-15.32,19.75-22.48,29.97c-11.07,15.79-23.69,30-40.3,40.18c-2.12,1.3-4.09,2.85-6.09,4.38
				c-2.73,2.12-4.47,4.79-3.36,8.37c1.01,3.36,4.19,4.09,7.04,5.07c0.51,0.19,1.08,0.19,1.62,0.19c4.47,0.03,8.91,0.35,13.35-0.51
				c15.44-2.98,30.85-6.06,45.95-10.43c16.49-4.76,31.39-12.27,42.14-26.07c11.76-15.06,22.74-30.73,33.04-46.83
				c4.31-6.79,7.99-13.95,13.22-20.14c5.93-7.1,12.4-13.26,21.94-15.28c8.21-1.78,16.24-4.34,23.97-7.67
				c2.03-0.86,3.84-0.6,5.55,0.6c1.3,0.92,2.57,1.97,3.87,2.89c4.69,3.36,4.6,3.68,0.57,8.05c-6.41,7.01-14.62,10.69-23.53,13.19
				c-18.04,5.11-29.46,17.34-36.94,33.96c-3.46,7.67-5.96,15.73-8.91,23.59c-3.42,9.2-7.04,18.33-12.11,26.83
				c-7.58,12.65-18.3,22.29-30.09,30.85c-2.89,2.12-5.87,4.09-8.78,6.15c-1.81,1.27-2.38,3.04-1.97,5.17
				c0.48,2.35,2.28,3.11,4.31,3.42c1.59,0.25,3.17,0,4.76-0.35c16.46-3.68,32.44-8.82,47.75-15.79
				c10.69-4.82,19.79-11.86,27.56-20.83c9.2-10.59,15.35-22.83,20.36-35.67c5.45-13.98,10.12-28.25,15-42.46
				c1.27-3.65,3.17-6.79,5.93-9.42c4.44-4.19,8.02-9.07,11.35-14.17c2.79-4.28,3.52-4.57,8.37-3.58c0.86,0.16,1.71,0.44,2.6,0.63
				c4.15,0.98,4.72,1.68,4.15,5.83c-1.97,14.55-6.5,28.19-14.71,40.43c-4.66,6.91-7.77,14.46-9.7,22.51
				c-1.97,8.21-2.31,16.62-3.08,24.96c-0.82,8.94-2.38,17.69-6.21,25.94c-4.25,9.01-9.89,16.93-17.76,23.15
				c-2.28,1.81-3.71,3.93-2.85,6.98c0.86,3.01,2.85,4.95,5.96,5.45c1.74,0.25,3.58,0.41,5.33,0.22
				C2297.52,1469.72,2301.68,1468.74,2305.58,1466.8z M2293.91,1250.01c0-27.21,22.04-49.24,49.21-49.24
				c27.21,0,49.24,22.04,49.24,49.24c0,27.17-22.04,49.21-49.24,49.21C2315.95,1299.22,2293.91,1277.18,2293.91,1250.01z"/>
		</g>
		<g class="st0">
			<path class="st8" d="M2094.47,1163.38c-3.29,7.36-1.4,15.04-1.46,22.53c-0.24,28.25-0.3,56.51-0.34,84.77
				c-0.01,8.05-0.01,16.11-0.03,24.17c0,6.17-0.01,12.33-0.02,18.5c-0.01,4.13-0.06,8.25,0.64,12.35c0.05,0.38,0.12,0.75,0.2,1.13
				c0.74,3.66-0.38,7.03-2.68,10.08c-1.24,1.65-2.81,3.31-4.98,2.65c-5.13-1.53-10.13,0.19-15.17,0.08
				c-2.89-0.06-5.48-0.6-8.07-1.94c-2.03-1.05-4.13-2.06-4.98-3.72c-0.45-0.84-0.57-1.85-0.21-3.12c0.95-3.37,3.64-5.82,7.6-6.16
				c3.2-0.27,6.45-0.11,10.37-0.07c0.68,0.01,1.27-0.5,1.3-1.13c0.17-3.62,0.31-7.24,0.42-10.85c0.3-9.2,0.44-18.37,0.48-27.53
				c0.04-8.24-0.02-16.47-0.12-24.69c-0.16-13.46-0.46-26.89-0.75-40.27c-0.18-8.66-0.35-17.31-0.48-25.95
				c-0.01-0.58-0.47-1.09-1.09-1.16c-1.79-0.18-2.11,0.88-2.59,1.71c-8.39,14.31-16.93,28.57-24.22,43.39
				c-1.77,3.59-4.28,5.97-8.52,6.21c-4.41,0.25-6.89-2.22-8.93-5.62c-6.67-11.12-13.53-22.15-20.45-33.13
				c-1.06-1.67-1.8-2.59-3.22-4.7c-0.41-0.6-1.17-0.68-1.72-0.4c-0.38,0.18-0.65,0.54-0.65,1.02v121.81c0,0.46,0.28,0.9,0.74,1.07
				c2.86,1.03,6.45,0.35,9.85,0.29c0.79-0.02,1.54,0.02,2.28,0.1c3.03,0.29,5.69,1.28,8.43,2.76c0.02,0.01,0.04,0.03,0.06,0.04
				c2.94,1.6,3.94,3.68,3.6,6.44c-0.07,0.59-0.18,1.14-0.34,1.66c-0.66,2.16-2.14,3.74-5.05,4.46c-0.05,0.01-0.1,0.03-0.15,0.04
				c-3,0.74-6,1.03-9,1.05c-3.61,0.05-7.2-0.27-10.77-0.61c-0.51-0.05-1.02-0.1-1.53-0.15c-9.42-0.9-12.63-2.33-13.82-7.95
				c-0.39-1.8-0.56-4.04-0.67-6.83c-0.04-0.9-0.07-1.8-0.1-2.71c-1.72-47.26-0.33-94.53-1.05-141.81
				c-0.07-4.74-0.32-9.88-0.02-14.61c0.05-0.74,0.03-1.48,0.06-2.22c0.07-1.92,0.5-3.7,3.36-4.7c4.21-1.45,12.19,0.03,14.22,2.74
				c1.16,1.56,2.01,3.31,3.27,5.45c9.96,17.9,20.4,34.96,29.43,52.69c0.39,0.76,1.05,1.47,2.33,1.54c0.21,0.02,0.43-0.04,0.62-0.11
				c2.48-1.09,3.44-3.66,4.46-5.8c3.86-8.04,9.21-15.35,13.25-23.27c5.03-9.86,11.2-19.12,16.69-28.73
				c2.39-4.2,14.53-6.75,18.34-3.96C2094.37,1161.04,2094.99,1162.22,2094.47,1163.38z"/>
			<path class="st8" d="M2307.83,1161.12c4.47,2.61,3.55,6.6,3.55,10.15c0.03,31.58-0.03,63.16-0.03,94.74
				c0,16.27,0.07,32.55,0.12,48.82c0.02,4.55,0.13,8.9,5.85,10.29c3.24,0.79,4.55,3.93,4.31,6.91c-0.25,3.03-2.31,5.3-5.41,6.29
				c-5.95,1.9-11.09,0.36-15.9-3.16c-1.05-0.77-2.42-0.89-3.56-0.26c-3.62,1.99-7.26,3.87-10.61,6.18c-2.26,1.56-4.53,1.5-6.88,1.55
				c-7.48,0.16-15.03-0.42-22.44,0.36c-15.73,1.65-31.91-16.59-30.92-32.02c0.8-12.54,0.38-25.1,0.96-37.66
				c0.49-10.83,5.01-18.79,13.04-24.94c6.07-4.66,13.64-4.74,20.81-5.08c9.14-0.43,18.36-0.67,27.32,2.04
				c0.01,0,0.02,0.01,0.03,0.01c2.09,0.61,4.15-1.12,4.15-3.36v-67.85c0-1.68-1.17-3.15-2.78-3.4c-1.01-0.16-2.01-0.06-2.98-0.06
				c-11.28,0.01-22.57,0.19-33.85,0.11c-5.31-0.04-9.74,4.21-10.04,9.67c-0.61,11.01,0.39,22.02,0.18,33.03
				c-0.05,2.84,2.27,3.38,4.26,4.31c2.84,1.32,4.72,3.35,4.24,6.91c-0.51,3.77-3.33,4.75-6.23,5.06
				c-7.59,0.81-15.7-0.75-15.56-11.45c0.19-14.8-1.72-29.55-0.78-44.36c0.36-5.65,1.82-10.52,6.81-13.9c1.73-1.17,3.3-1.84,5.26-1.9
				c17.61-0.56,35.23-1.27,52.84-0.67C2298.28,1157.63,2303.38,1157.06,2307.83,1161.12z M2259.09,1256.66
				c-1.2,0.04-2.41,0.06-3.61,0.14c-10.2,0.66-13.07,3.64-13.18,14.12c-0.15,15,0.08,30.01-1.02,45c-0.45,6.16,1.91,9.63,7.39,10.86
				c12.1,2.71,24.25,3.49,36.29-0.56c6.82-2.29,7.9-3.76,7.9-11.13c0-15.75-0.01-31.49-0.02-47.24c0-8.07-2.03-10.58-10.01-11.01
				C2275.4,1256.42,2267.92,1256.64,2259.09,1256.66z"/>
			<path class="st8" d="M2167.92,1255.94c-9.16,0.24-17.8-0.35-26.74-1.46c-3.98-0.5-7.57,2.24-7.7,5.92
				c-0.69,19.84,0.62,39.36,0.21,59.22c-0.07,3.44,2.97,6.26,6.73,6.26h56.71c3.45,0,6.34-2.39,6.7-5.53
				c0.1-0.89,0.23-1.77,0.55-2.61c1.08-2.86,2.86-4.6,6.26-4.73c3.54-0.14,4.43,2.29,5.16,4.64c1.41,4.52,1.57,9.18,0.47,13.75
				c-1.44,6.01-11.29,10.75-18.56,8.54c-6.66-2.03-13.13-1.57-19.64-0.22c-15.57,3.22-31.33,1.37-46.99,1.45
				c-4.28,0.02-8.37-2.64-12.79-3.52c-3.25-0.65-4.21-3.52-4.34-6.35c-0.14-3.16-0.12-6.34-0.12-9.51
				c0.01-41.69-0.06-83.38,0.07-125.07c0.06-18.29,3.95-29.43,21.99-36.63c2.3-0.92,10.78-2.18,13.17-2.24
				c7.19-0.2,14.38-0.46,21.57-0.57c17.8-0.28,28.51,1.88,35.81,16.82c2.67,5.45-4.37,15.76-4.33,21.29
				c0.08,12.42,6.38,23.99,3.49,36.3c-3.18,13.55-9.06,22.09-28.21,23.5C2174.48,1255.39,2171.57,1255.67,2167.92,1255.94z
				 M2133.37,1231.72c0.45,7.79,1.9,9.63,10.82,10.39c11.94,1.01,23.96,0.85,35.89-0.4c6.01-0.63,8.64-3.01,8.77-8.61
				c0.39-17.04,0.38-34.09,1.32-51.13c0.28-5.17-3.91-9.66-9.45-10.11c-11.41-0.93-23.05-1.8-34.24,0.34
				c-8.87,1.69-13.69,6.26-13.06,15.4C2134.41,1201.93,2133.33,1215.98,2133.37,1231.72z"/>
			<path class="st8" d="M2482.84,1333.61c-0.87,2.91-2.91,5.03-6.13,5.35c-1.89,0.19-3.83,0.12-5.74,0.12
				c-28.02,0.01-56.05,0.01-84.77,0.02c-2.37-0.01-4.06-0.12-5.73,0c-0.61,0.04-1.17,0.02-1.67-0.08h-0.01
				c-2.22-0.4-3.3-2.08-3.42-4.6c-0.16-3.63,0.03-7.27,0.09-10.91c0.76-48.8,0.59-97.6,0.32-146.4c0-0.81-0.01-1.62-0.01-2.43
				c-0.02-2.71,0.21-5.07,0.7-7.11c1.72-7.11,6.68-10.26,15.97-10.28c0.46,0,0.92,0,1.38-0.01c3.36-0.02,6.74-0.08,10.12-0.14
				c3.03-0.06,6.07-0.11,9.1-0.13c5.28-0.04,10.57,0.04,15.82,0.39h0.01l0.01,0.01c1.25,0.08,2.51,0.18,3.76,0.3
				c12.39,1.18,24.82,1.49,37.18,2.83c1.64,0.18,4.07-2.37,5.53-1.61c3.36,1.76,2.62,8.33-0.67,10.31
				c-0.92,0.55-1.88,0.92-2.87,1.17c-1.77,0.44-3.63,0.51-5.48,0.62c-11.47,0.72-23.09-0.96-34.41,1.25
				c-0.66,0.13-1.31,0.25-1.97,0.36c-4.84,0.81-9.68,1.17-14.52,1.31c-3.18,0.1-6.36,0.1-9.54,0.08c-3.23-0.02-6.47-0.05-9.7-0.03
				c-6.29,0.04-7.46,0.32-6.73,6.4c0.17,1.38,0.32,2.77,0.48,4.16c0.98,8.95,1.73,18.08,2.26,27.36c0.01,0.01,0.01,0.01,0.01,0.02
				c1.72,29.71,1.22,60.87-0.98,92.48c-0.33,4.85-0.71,9.72-1.12,14.59c-0.42,4.95,2.01,7.1,6.75,7.15
				c7.9,0.09,15.81,0.66,23.7,0.37c16.23-0.6,32.46-1.66,48.68-2.48c3.6-0.18,7,0.03,10.23,2.36
				C2482.17,1328.33,2483.79,1330.42,2482.84,1333.61z"/>
			<path class="st8" d="M2511.12,1266.72c3.02,22.74,0,39.2,0,59.53c13.84,0.4,36.3-3.65,48.76,1.78
				c12.05,5.25,19.92-1.4,33.58-1.45c2.13-4.61,0.92-8.8,2.19-12.6c0.86-2.58,1.95-4.57,4.82-4.72c2.59-0.13,4.5,0.74,5.87,3.32
				c2.18,4.11,3.02,8.31,2.39,12.97c-1.86,13.55-1.81,13.55-15.02,13.55c-28.04,0-56.08,0.02-84.12-0.01
				c-7.77-0.01-11.04-3.29-11.76-11.57c-0.76-8.73-0.82-17.47-0.83-26.23c-0.06-43.51-0.17-87.02-0.26-130.54
				c-0.01-3-0.18-6,0.87-8.9c1.29-3.56,4.08-4.82,7.35-4.86c3.35-0.03,7.58,1.79,8.08,5.04c0.49,3.18,0.53,6.47,0.52,9.7
				C2513.5,1203.01,2506.91,1234.99,2511.12,1266.72z"/>
			<path class="st8" d="M2479.36,1291.7c0.02,8.81-2.3,11.61-10.83,11.84c-12.92,0.33-25.87,0.34-38.8,0.17
				c-8.18-0.11-10.44-2.61-10.9-11.11c-0.42-7.77-0.66-15.54-0.97-24.03c-0.04-10.86-0.09-21.51-0.12-32.05
				c-0.03-8.57-0.06-17.07-0.09-25.56c-0.01-2.66-0.18-5.37,0.98-7.89c0.26-0.57,0.55-1.1,0.88-1.59c1.42-2.18,3.43-3.46,6.38-3.29
				c3.62,0.21,5.65,2.34,6.55,5.71c0.57,2.12,0.79,4.28,0.86,6.45c0.04,1.23,0.04,2.46,0.03,3.7c-0.15,12.26-0.32,24.51-0.49,36.77
				c-0.14,9.63-0.28,19.25-0.42,28.87c-0.13,9.06-0.15,9.09,9.07,9.24c5.51,0.09,11.02,0.12,16.52,0.07
				c7.17-0.07,7.33-0.22,7.41-7.32c0-0.31,0.01-0.62,0.01-0.93c0.14-13.55,0.26-27.1,0.39-40.66c0.08-8.34,0.16-16.68,0.24-25.02
				c0.01-1.14,0.03-2.27,0.04-3.41c0.02-2.44,0.02-4.88,0.32-7.28c0.39-3.19,1.97-5.68,5.46-5.64c3.45,0.03,5.97,1.78,6.54,5.5
				c0.36,2.4,0.65,4.84,0.67,7.25c0.03,5.24,0.05,10.49,0.08,15.73C2479.24,1248.73,2479.32,1270.22,2479.36,1291.7z"/>
		</g>
	</g>
</g>
<g id="Layer_4" class="st0">
</g>
</svg>
