<?xml version="1.0" encoding="utf-8"?>
<!-- Generator: Adobe Adobe Illustrator 24.2.0, SVG Export Plug-In . SVG Version: 6.00 Build 0)  -->
<svg version="1.1" xmlns="http://www.w3.org/2000/svg" xmlns:xlink="http://www.w3.org/1999/xlink" x="0px" y="0px" width="1000px"
	 height="1000px" viewBox="0 0 1000 1000" style="enable-background:new 0 0 1000 1000;" xml:space="preserve">
<style type="text/css">
	.st0{fill:#889177;}
	.st1{fill:#FFF4DE;}
	.st2{fill:#853710;}
	.st3{display:none;}
	.st4{display:inline;fill:#FFF4DE;}
	.st5{display:inline;}
	.st6{fill:#F5D482;}
	.st7{display:inline;fill:#853710;}
</style>
<g id="Layer_1">
	<rect class="st0" width="1000" height="1000"/>
	<g>
		<path class="st1" d="M480.46,266.62c-4.16,9.3-1.77,19.01-1.85,28.48c-0.3,35.71-0.38,71.44-0.43,107.17
			c-0.01,10.18-0.01,20.37-0.03,30.55c0,7.8-0.01,15.59-0.02,23.39c-0.01,5.22-0.08,10.43,0.81,15.61c0.07,0.48,0.16,0.95,0.25,1.43
			c0.94,4.63-0.48,8.88-3.39,12.75c-1.56,2.08-3.55,4.19-6.3,3.36c-6.49-1.94-12.8,0.24-19.18,0.1c-3.65-0.08-6.92-0.75-10.2-2.45
			c-2.57-1.33-5.22-2.6-6.3-4.71c-0.56-1.06-0.72-2.34-0.27-3.94c1.21-4.26,4.6-7.35,9.61-7.79c4.04-0.34,8.15-0.13,13.11-0.09
			c0.86,0.01,1.61-0.63,1.64-1.43c0.21-4.57,0.39-9.15,0.53-13.72c0.38-11.63,0.55-23.22,0.61-34.8
			c0.04-10.42-0.02-20.82-0.16-31.21c-0.2-17.02-0.59-33.99-0.95-50.91c-0.22-10.95-0.44-21.88-0.61-32.8
			c-0.01-0.73-0.6-1.38-1.38-1.46c-2.26-0.23-2.67,1.12-3.28,2.16c-10.61,18.1-21.4,36.11-30.62,54.85
			c-2.24,4.54-5.42,7.54-10.78,7.85c-5.57,0.32-8.7-2.8-11.28-7.11c-8.43-14.05-17.1-28-25.85-41.88c-1.34-2.12-2.27-3.28-4.06-5.94
			c-0.52-0.76-1.48-0.86-2.17-0.51c-0.48,0.23-0.82,0.69-0.82,1.3v153.99c0,0.58,0.35,1.14,0.94,1.35c3.61,1.3,8.15,0.44,12.45,0.37
			c1-0.02,1.95,0.02,2.88,0.12c3.83,0.37,7.2,1.62,10.65,3.49c0.02,0.01,0.06,0.03,0.08,0.04c3.72,2.03,4.98,4.65,4.55,8.14
			c-0.09,0.74-0.23,1.44-0.43,2.1c-0.83,2.72-2.7,4.73-6.38,5.64c-0.07,0.01-0.12,0.03-0.19,0.04c-3.79,0.93-7.59,1.3-11.37,1.33
			c-4.56,0.07-9.1-0.34-13.61-0.78c-0.64-0.07-1.3-0.12-1.94-0.19c-11.9-1.14-15.97-2.95-17.48-10.06
			c-0.49-2.28-0.71-5.11-0.85-8.64c-0.04-1.14-0.09-2.28-0.12-3.42c-2.17-59.75-0.42-119.5-1.33-179.26
			c-0.09-5.99-0.41-12.49-0.02-18.47c0.07-0.93,0.03-1.87,0.08-2.8c0.09-2.43,0.63-4.67,4.25-5.94c5.33-1.84,15.42,0.03,17.97,3.47
			c1.46,1.97,2.54,4.19,4.13,6.89c12.59,22.62,25.79,44.2,37.2,66.61c0.5,0.96,1.33,1.86,2.95,1.95c0.27,0.02,0.54-0.04,0.79-0.14
			c3.13-1.37,4.35-4.63,5.64-7.33c4.88-10.17,11.64-19.4,16.76-29.41c6.36-12.46,14.15-24.18,21.1-36.32
			c3.02-5.3,18.37-8.54,23.19-5.01C480.34,263.66,481.13,265.16,480.46,266.62z"/>
		<path class="st1" d="M750.18,263.76c5.64,3.3,4.48,8.35,4.49,12.83c0.04,39.92-0.04,79.84-0.04,119.76
			c0,20.57,0.08,41.14,0.15,61.72c0.02,5.75,0.16,11.25,7.39,13.01c4.09,1,5.76,4.96,5.45,8.74c-0.31,3.83-2.92,6.71-6.83,7.95
			c-7.52,2.4-14.02,0.45-20.1-4c-1.33-0.97-3.06-1.12-4.5-0.33c-4.57,2.51-9.18,4.89-13.42,7.82c-2.86,1.97-5.73,1.9-8.69,1.96
			c-9.46,0.2-18.99-0.53-28.36,0.45c-19.89,2.09-40.34-20.97-39.09-40.48c1.02-15.85,0.48-31.74,1.21-47.61
			c0.63-13.69,6.34-23.75,16.49-31.53c7.68-5.88,17.24-6,26.3-6.42c11.55-0.54,23.2-0.85,34.54,2.58c0.01,0,0.03,0.01,0.04,0.01
			c2.65,0.77,5.25-1.41,5.25-4.24v-85.77c0-2.12-1.48-3.98-3.51-4.3c-1.27-0.2-2.55-0.08-3.77-0.07
			c-14.26,0.02-28.53,0.24-42.79,0.14c-6.72-0.05-12.31,5.32-12.69,12.23c-0.77,13.92,0.49,27.83,0.23,41.75
			c-0.07,3.59,2.87,4.28,5.39,5.44c3.59,1.67,5.96,4.23,5.36,8.74c-0.64,4.76-4.21,6.01-7.87,6.4c-9.59,1.03-19.84-0.95-19.67-14.48
			c0.24-18.71-2.17-37.36-0.99-56.07c0.45-7.14,2.3-13.29,8.61-17.57c2.18-1.48,4.17-2.33,6.65-2.4c22.26-0.71,44.53-1.61,66.8-0.85
			C738.11,259.36,744.56,258.62,750.18,263.76z M688.56,384.53c-1.52,0.06-3.04,0.07-4.56,0.17c-12.9,0.83-16.52,4.6-16.65,17.85
			c-0.19,18.97,0.11,37.94-1.29,56.88c-0.57,7.79,2.42,12.18,9.34,13.73c15.3,3.43,30.65,4.41,45.88-0.71
			c8.62-2.9,9.98-4.76,9.98-14.07c0-19.91-0.01-39.81-0.02-59.72c0-10.2-2.56-13.38-12.65-13.92
			C709.18,384.23,699.73,384.51,688.56,384.53z"/>
		<path class="st1" d="M750.18,514.25c5.64,3.26,4.48,8.23,4.49,12.66c0.04,39.37-0.04,78.75-0.04,118.12
			c0,20.29,0.08,40.58,0.15,60.87c0.02,5.67,0.16,11.09,7.39,12.83c4.09,0.98,5.76,4.89,5.45,8.62c-0.31,3.78-2.92,6.61-6.83,7.84
			c-7.52,2.36-14.01,0.45-20.09-3.93c-1.33-0.96-3.09-1.11-4.53-0.33c-4.56,2.48-9.16,4.82-13.4,7.7c-2.86,1.94-5.73,1.87-8.69,1.93
			c-9.46,0.2-18.99-0.53-28.36,0.44c-19.89,2.06-40.34-20.69-39.09-39.93c1.02-15.63,0.48-31.3,1.21-46.96
			c0.63-13.51,6.34-23.43,16.49-31.1c7.68-5.8,17.24-5.92,26.3-6.33c11.55-0.53,23.2-0.84,34.54,2.55c0.01,0,0.03,0.01,0.04,0.01
			c2.64,0.76,5.25-1.36,5.25-4.11v-84.75c0-2.05-1.47-3.84-3.49-4.17c-1.28-0.2-2.56-0.08-3.79-0.08
			c-15.56,0.02-31.13,0.28-46.69,0.1c-5.28-0.06-7.92,1.84-8.43,7.17c-1.46,15.37,0.15,30.74-0.14,46.11
			c-0.07,3.54,2.87,4.22,5.39,5.37c3.59,1.64,5.96,4.17,5.36,8.62c-0.64,4.7-4.21,5.93-7.87,6.31c-9.59,1.01-19.84-0.94-19.67-14.28
			c0.24-18.46-2.17-36.84-0.99-55.31c0.45-7.05,2.3-13.11,8.61-17.33c2.18-1.46,4.17-2.29,6.65-2.37c22.26-0.7,44.53-1.59,66.8-0.84
			C738.11,509.9,744.56,509.18,750.18,514.25z M688.56,633.36c-1.52,0.05-3.04,0.07-4.56,0.17c-12.9,0.82-16.52,4.53-16.65,17.6
			c-0.19,18.71,0.11,37.42-1.29,56.11c-0.57,7.68,2.42,12.01,9.34,13.54c15.3,3.38,30.65,4.35,45.88-0.7
			c8.62-2.86,9.98-4.69,9.98-13.88c0-19.63-0.01-39.27-0.02-58.9c0-10.06-2.56-13.2-12.65-13.73
			C709.18,633.07,699.73,633.35,688.56,633.36z"/>
		<path class="st1" d="M573.31,383.62c-11.57,0.3-22.5-0.44-33.8-1.84c-5.04-0.63-9.57,2.84-9.73,7.49
			c-0.87,25.08,0.78,49.75,0.26,74.86c-0.09,4.35,3.75,7.91,8.51,7.91h71.69c4.37,0,8.01-3.02,8.47-6.99
			c0.13-1.13,0.29-2.23,0.69-3.3c1.36-3.61,3.62-5.81,7.91-5.98c4.47-0.18,5.6,2.9,6.52,5.87c1.78,5.72,1.98,11.61,0.6,17.38
			c-1.82,7.6-14.27,13.59-23.46,10.79c-8.41-2.56-16.59-1.99-24.82-0.28c-19.68,4.08-39.6,1.73-59.4,1.84
			c-5.41,0.03-10.58-3.34-16.17-4.45c-4.11-0.82-5.32-4.45-5.49-8.03c-0.18-4-0.15-8.01-0.15-12.02c0.01-52.7-0.07-105.4,0.09-158.1
			c0.07-23.12,4.99-37.2,27.8-46.31c2.9-1.16,13.62-2.75,16.65-2.84c9.09-0.25,18.18-0.58,27.27-0.72
			c22.51-0.35,36.03,2.38,45.27,21.26c3.37,6.89-5.52,19.92-5.48,26.91c0.1,15.7,8.06,30.33,4.42,45.89
			c-4.01,17.13-11.45,27.93-35.66,29.71C581.62,382.94,577.93,383.28,573.31,383.62z M529.65,353.01
			c0.57,9.84,2.4,12.18,13.68,13.13c15.09,1.27,30.28,1.07,45.37-0.5c7.6-0.79,10.92-3.81,11.08-10.88
			c0.49-21.55,0.48-43.1,1.66-64.64c0.36-6.53-4.94-12.21-11.95-12.78c-14.42-1.18-29.14-2.27-43.28,0.43
			c-11.21,2.14-17.3,7.92-16.5,19.47C530.96,315.35,529.6,333.11,529.65,353.01z"/>
		<path class="st1" d="M480.66,733.42c-1.1,3.68-3.68,6.36-7.75,6.77c-2.39,0.24-4.84,0.16-7.25,0.16
			c-35.43,0.01-70.85,0.01-107.15,0.02c-3-0.01-5.13-0.16-7.24,0c-0.78,0.06-1.48,0.02-2.12-0.1h-0.01
			c-2.8-0.51-4.18-2.64-4.32-5.81c-0.2-4.58,0.03-9.19,0.11-13.79c0.96-61.69,0.74-123.38,0.41-185.07c0-1.02-0.01-2.05-0.01-3.07
			c-0.02-3.42,0.27-6.41,0.89-8.99c2.17-8.99,8.44-12.97,20.19-13c0.58,0,1.16,0,1.74-0.01c4.25-0.02,8.52-0.1,12.79-0.18
			c3.83-0.08,7.67-0.14,11.51-0.17c6.68-0.04,13.36,0.04,20,0.5h0.01l0.01,0.01c1.58,0.1,3.17,0.22,4.75,0.38
			c15.66,1.49,31.37,1.88,47,3.58c2.07,0.22,5.15-2.99,6.99-2.04c4.24,2.23,3.31,10.53-0.85,13.03c-1.16,0.7-2.38,1.16-3.63,1.47
			c-2.24,0.55-4.58,0.64-6.92,0.79c-14.5,0.91-29.19-1.22-43.5,1.58c-0.83,0.17-1.66,0.31-2.49,0.45
			c-6.11,1.03-12.24,1.47-18.36,1.65c-4.02,0.12-8.04,0.12-12.06,0.1c-4.09-0.02-8.17-0.07-12.26-0.03
			c-7.95,0.06-9.42,0.4-8.51,8.08c0.21,1.75,0.41,3.5,0.61,5.26c1.24,11.32,2.19,22.86,2.86,34.58c0.01,0.01,0.01,0.01,0.01,0.02
			c2.17,37.55,1.54,76.94-1.24,116.9c-0.42,6.14-0.9,12.28-1.42,18.44c-0.53,6.26,2.55,8.97,8.54,9.04
			c9.99,0.11,19.99,0.83,29.96,0.47c20.52-0.76,41.03-2.09,61.54-3.13c4.55-0.23,8.85,0.03,12.93,2.98
			C479.81,726.74,481.86,729.38,480.66,733.42z"/>
		<path class="st1" d="M601.9,510.86c7.57,0.01,14.23-0.12,20.88,0.03c10.18,0.23,11.94,1.86,12.37,12.91
			c0.37,9.48,0.09,19,0.04,28.5c-0.11,23.45-0.28,46.9-0.35,70.34c-0.03,10.67-2.2,13.52-12.75,13.71
			c-14.82,0.27-29.66-0.15-44.48-0.28c-0.61-0.01-1.21-0.04-1.82-0.05c-14.21-0.26-14.19-0.26-14.39,14.16
			c-0.2,14.56-0.49,29.12-0.67,43.69c-0.05,4.37-0.87,8.25-5.05,10.31c-4.3,2.12-9.16-0.23-10.84-5.25
			c-1.22-3.66-1.04-7.5-1.05-11.3c-0.03-52.6-0.05-105.21-0.07-157.81c0-0.32,0-0.63,0.01-0.95c0.21-15.66,2.28-18.3,17.32-18.64
			C574.36,509.94,587.68,510.61,601.9,510.86z M561.83,574.46c-0.05,11.08-0.12,22.17-0.16,33.25
			c-0.04,11.32-0.01,11.45,11.26,11.41c10.28-0.04,20.56-0.28,30.84-0.63c0.46-0.02,0.92-0.02,1.38-0.03
			c7.39-0.06,13.3-6.18,13.29-13.56c-0.02-21.77,0.1-43.48-0.63-65.45c-0.24-7.28-6.23-13.07-13.52-13.08
			c-10.01-0.02-19.87-0.2-29.92,0.58c-7.07,0.54-12.53,6.44-12.53,13.52C561.83,551.43,561.83,562.43,561.83,574.46z"/>
		<path class="st1" d="M516.41,648.85c3.82,28.75,0,49.56,0,75.26c17.49,0.51,45.89-4.61,61.64,2.25
			c15.23,6.63,25.19-1.77,42.45-1.83c2.69-5.82,1.17-11.12,2.76-15.93c1.08-3.26,2.46-5.78,6.1-5.96c3.27-0.17,5.69,0.94,7.42,4.2
			c2.75,5.2,3.82,10.5,3.02,16.4c-2.35,17.13-2.29,17.13-18.99,17.13c-35.45,0-70.89,0.02-106.34-0.02
			c-9.82-0.01-13.95-4.16-14.87-14.62c-0.96-11.03-1.04-22.09-1.05-33.16c-0.08-55-0.21-110.01-0.33-165.01
			c-0.01-3.79-0.23-7.59,1.1-11.25c1.63-4.5,5.16-6.1,9.29-6.14c4.23-0.04,9.58,2.26,10.22,6.38c0.63,4.02,0.67,8.17,0.66,12.27
			C519.42,568.32,511.09,608.74,516.41,648.85z"/>
		<path class="st1" d="M476.27,680.44c0.02,11.14-2.91,14.67-13.69,14.96c-16.33,0.42-32.7,0.43-49.05,0.21
			c-10.34-0.14-13.2-3.3-13.78-14.04c-0.53-9.82-0.83-19.65-1.23-30.38c-0.06-13.73-0.11-27.19-0.16-40.52
			c-0.04-10.83-0.08-21.57-0.11-32.31c-0.01-3.37-0.23-6.79,1.24-9.98c0.33-0.72,0.7-1.4,1.11-2c1.79-2.76,4.33-4.37,8.06-4.15
			c4.57,0.27,7.14,2.96,8.28,7.22c0.72,2.68,1,5.4,1.09,8.15c0.06,1.55,0.06,3.11,0.03,4.67c-0.19,15.49-0.4,30.99-0.62,46.48
			c-0.18,12.17-0.35,24.33-0.53,36.5c-0.17,11.45-0.19,11.5,11.46,11.68c6.97,0.11,13.93,0.16,20.89,0.09
			c9.06-0.09,9.27-0.28,9.37-9.25c0-0.39,0.01-0.79,0.01-1.17c0.18-17.13,0.33-34.26,0.49-51.4c0.1-10.54,0.2-21.09,0.3-31.63
			c0.01-1.44,0.03-2.87,0.04-4.31c0.02-3.08,0.02-6.17,0.4-9.2c0.5-4.03,2.49-7.18,6.9-7.13c4.36,0.03,7.55,2.25,8.26,6.95
			c0.45,3.03,0.82,6.11,0.84,9.17c0.03,6.62,0.07,13.26,0.1,19.88C476.11,626.11,476.21,653.28,476.27,680.44z"/>
		<g>
			<path class="st2" d="M349.13,740.26c-0.21,0.07-0.44,0.1-0.71,0.1c-1.83,0-2.8-1.17-3.18-2.96c-0.66-3.11-1.57-6.17-2.1-9.3
				c-1.44-8.39-4.5-16.25-8-23.93c-5.42-11.92-11.4-23.54-18.78-34.41c-3.02-4.45-5.83-9.07-7.74-14.13
				c-4.15-11-3.06-21.79,1.32-32.48c2.19-5.36,5.58-10.03,8.37-15.04c5.65-10.09,9.6-20.85,13.01-31.85
				c2.69-8.68,3.95-17.62,5.04-26.59c0.35-2.98,0.07-3.34-2.88-4.56c-2.37-0.99-4.71-2.05-7.04-3.12c-2.69-1.24-3.55-0.93-4.08,1.84
				c-0.87,4.55-2.03,9.11-2.31,13.71c-1.01,15.97-7.19,30.03-15.29,43.47c-6.8,11.28-15.89,20.37-26.4,28.16
				c-7.07,5.24-14.35,10.16-21.24,15.64c-6.77,5.37-12.47,11.68-17.33,18.8c-1.65,2.41-3.11,4.97-5.25,7.04
				c-3.01,2.93-6.1,2.4-7.81-1.43c-0.65-1.45-0.97-3-1-4.63c-0.06-3.93,0.43-7.81,1.31-11.63c2.46-10.58,4.31-21.3,7.8-31.65
				c4.01-11.94,11.13-21.34,21.42-28.47c8.34-5.78,16.54-11.75,24.93-17.45c5.05-3.42,10.62-6.06,15.39-9.92
				c5.23-4.24,9.65-8.87,11.06-15.87c1.07-5.25,2.77-10.39,4.92-15.34c0.69-1.58,0.64-3.06-0.48-4.47c-0.91-1.15-1.68-2.4-2.58-3.57
				c-1.32-1.67-1.99-1.81-3.6-0.37c-3.48,3.13-6.5,6.63-8.03,11.2c-1.01,3.01-1.96,6.05-3.07,9.03c-3.3,8.89-9.51,15.22-17.63,19.86
				c-6.21,3.55-13.08,5.46-19.71,7.94c-6.77,2.54-13.46,5.2-19.67,8.94c-8.77,5.28-15.34,12.79-21.22,21
				c-1.21,1.69-2.3,3.46-3.52,5.15c-0.99,1.37-2.25,2.36-4.05,1.66c-1.61-0.62-2.02-2.03-1.93-3.61c0.06-1.22,0.02-2.47,0.31-3.64
				c2.5-10.35,5.68-20.5,9.86-30.31c5.78-13.55,15.84-22.99,28.74-29.66c8.41-4.34,17.26-7.48,26.23-10.38
				c4.89-1.57,9.71-3.36,14.56-5.04c1.53-0.53,2.88-1.3,3.99-2.51c3.23-3.57,7.2-6.22,11.16-8.87c2.9-1.94,2.91-1.92,2.3-5.28
				c-0.96-5.32-0.97-5.42-6.39-4.68c-8.58,1.16-16.79,3.7-24,8.54c-8.59,5.78-17.96,8.53-28.21,9.16c-6.45,0.39-12.89,1.03-19.13,3
				c-7.32,2.31-13.3,6.62-18.62,11.98c-0.78,0.79-1.58,1.54-2.27,2.4c-1.33,1.68-3,1.96-4.93,1.33c-1.99-0.66-2.88-2.21-3.02-4.19
				c-0.28-3.7,0.17-7.29,1.67-10.75c4.12-9.49,11.15-15.91,20.66-19.7c4.42-1.77,8.75-3.82,13.46-4.78c0.59-0.12,1.17-0.4,1.67-0.73
				c0.96-0.66,0.87-1.47-0.13-1.95c-0.97-0.47-2.08-0.66-3.13-1.01c-7.34-2.36-14.65-4.82-20.97-9.42
				c-6.35-4.63-10.48-10.87-12.81-18.32c-0.78-2.48-0.61-5.09-0.33-7.64c0.23-2.03,1.67-3.19,3.54-3.81
				c1.72-0.58,3.02,0.03,4.24,1.32c2.61,2.74,5.24,5.44,8.25,7.8c6.77,5.3,14.45,7.96,22.9,8.98c6.18,0.74,12.44,0.74,18.56,2.08
				c5.79,1.27,11.3,3.15,16.23,6.49c8.69,5.86,18.34,9.09,28.69,10.35c2.49,0.31,2.96-0.01,3.63-2.44c0.03-0.12,0.08-0.24,0.09-0.35
				c0.89-6.12,2.28-4.85-3.34-8.48c-3.08-1.99-6.07-4.15-8.54-6.89c-1.78-1.97-3.96-3.2-6.45-4.03c-6.95-2.34-13.89-4.76-20.84-7.11
				c-9.3-3.15-18.35-6.92-26.48-12.45c-9.15-6.21-16.37-14.23-20.8-24.57c-4.04-9.47-7.12-19.25-9.73-29.19
				c-0.51-1.92-0.68-3.84-0.64-5.81c0.02-1.5,0.59-2.6,2.05-3.13c1.52-0.56,2.68,0.13,3.52,1.25c1.76,2.35,3.34,4.83,5.09,7.18
				c5.86,7.92,12.45,15.07,21.09,20.09c5.74,3.33,11.86,5.77,18.06,8.06c5.96,2.21,12.06,4.06,17.75,6.93
				c10.39,5.25,18.05,12.85,21.2,24.41c1.73,6.36,4.55,12.1,9.68,16.52c2.68,2.3,3.12,2.36,5.13-0.4c3.19-4.4,3.26-4.43,1.13-9.47
				c-2.06-4.87-3.2-10.01-4.61-15.07c-1.26-4.53-3.62-8.19-7.05-11.34c-3.63-3.31-7.51-6.3-11.81-8.65
				c-9.15-5.01-17.35-11.41-25.91-17.29c-5.04-3.46-9.88-7.15-14.37-11.33c-5.81-5.39-9.54-11.98-12.3-19.28
				c-3.77-9.88-5.65-20.23-7.95-30.48c-0.81-3.59-1.49-7.18-1.87-10.83c-0.25-2.44-0.24-4.86,0.31-7.29
				c0.52-2.3,1.51-4.23,3.94-4.83c2.39-0.59,3.94,1.03,5.25,2.66c1.46,1.81,2.67,3.8,4.02,5.69c4.1,5.79,8.31,11.48,13.73,16.16
				c5.02,4.32,10.49,8.01,15.75,11.98c6.52,4.93,13.33,9.49,19.39,15.05c5.81,5.33,10.91,11.24,15.14,17.83
				c4.43,6.9,8.03,14.27,11.36,21.77c3.28,7.38,4.06,15.29,5.16,23.16c0.69,4.83,1.53,9.65,2.46,14.44
				c0.63,3.23,1.27,3.48,4.15,2.07c2.41-1.18,4.8-2.43,7.34-3.36c2.52-0.93,2.85-1.42,2.51-4.12c-0.94-7.63-1.73-15.29-3.8-22.74
				c-2.97-10.62-6.7-20.95-11.46-30.91c-2.17-4.53-4.81-8.79-7.44-13.06c-4.65-7.55-7.42-15.7-7.7-24.56
				c-0.25-8.01,1.88-15.47,6.02-22.34c4.66-7.75,9.89-15.16,14.14-23.16c5.98-11.23,11.54-22.68,15.28-34.88
				c1.33-4.31,2.05-8.8,3.05-13.21c0.17-0.7,0.32-1.4,0.5-2.09c-0.04,0.93-0.01,1.87-0.08,2.8c-0.39,5.98-0.07,12.48,0.02,18.47
				c0.91,59.76-0.84,119.51,1.33,179.26c-17.69,1.03-31.69,15.69-31.69,33.62c0,17.61,13.52,32.07,30.75,33.56
				c0.33,61.69,0.55,123.38-0.41,185.07c-0.08,4.6-0.31,9.2-0.11,13.79C344.96,737.63,346.33,739.75,349.13,740.26z"/>
			<path class="st2" d="M369.87,502.03c0,3.01-0.62,5.88-1.73,8.48c-0.58,0.01-1.16,0.01-1.74,0.01c-11.75,0.03-18.02,4.01-20.19,13
				c-10.96-1.04-19.52-10.27-19.52-21.5c0-11.58,9.11-21.03,20.56-21.56c1.51,7.11,5.57,8.91,17.48,10.06
				c0.64,0.07,1.3,0.12,1.94,0.19C368.69,494.01,369.87,497.88,369.87,502.03z"/>
		</g>
	</g>
</g>
<g id="Layer_2" class="st3">
	<g id="Layer_3">
	</g>
</g>
<g id="Layer_4" class="st3">
</g>
</svg>
