<?xml version="1.0" encoding="utf-8"?>
<!-- Generator: Adobe Adobe Illustrator 24.2.0, SVG Export Plug-In . SVG Version: 6.00 Build 0)  -->
<svg version="1.1" xmlns="http://www.w3.org/2000/svg" xmlns:xlink="http://www.w3.org/1999/xlink" x="0px" y="0px" width="2500px"
	 height="2500px" viewBox="0 0 2500 2500" style="enable-background:new 0 0 2500 2500;" xml:space="preserve">
<style type="text/css">
	.st0{display:none;}
	.st1{fill:#889177;}
	.st2{display:inline;fill:#FFF4DE;}
	.st3{display:inline;}
	.st4{fill:#853710;}
	.st5{display:inline;fill:#AB6C4D;}
	.st6{fill:#FFF4DE;}
	.st7{fill:#F5D482;}
	.st8{display:none;fill:#FFF4DE;}
</style>
<g id="Layer_1" class="st0">
	<rect class="st1" width="2500" height="2500"/>
	<g>
		<path class="st2" d="M1201.16,666.54c-10.41,23.26-4.43,47.54-4.62,71.21c-0.75,89.29-0.94,178.6-1.08,267.91
			c-0.03,25.44-0.03,50.91-0.08,76.38c0,19.49-0.03,38.98-0.06,58.47c-0.03,13.04-0.19,26.08,2.02,39.04
			c0.17,1.19,0.39,2.38,0.64,3.57c2.35,11.57-1.19,22.2-8.47,31.87c-3.9,5.2-8.89,10.47-15.75,8.39c-16.22-4.85-32,0.61-47.95,0.25
			c-9.14-0.19-17.3-1.88-25.5-6.12c-6.42-3.32-13.04-6.51-15.75-11.77c-1.41-2.66-1.8-5.84-0.66-9.86
			c3.02-10.66,11.49-18.38,24.03-19.46c10.11-0.86,20.38-0.33,32.78-0.22c2.16,0.03,4.01-1.58,4.1-3.57
			c0.53-11.43,0.97-22.87,1.33-34.3c0.94-29.07,1.38-58.06,1.52-86.99c0.11-26.05-0.06-52.05-0.39-78.02
			c-0.5-42.55-1.47-84.97-2.38-127.27c-0.55-27.38-1.11-54.71-1.52-82c-0.03-1.83-1.49-3.46-3.46-3.65c-5.65-0.58-6.67,2.8-8.19,5.4
			c-26.52,45.24-53.49,90.28-76.55,137.13c-5.59,11.35-13.54,18.85-26.94,19.63c-13.93,0.8-21.76-7-28.21-17.77
			c-21.07-35.13-42.75-69.99-64.62-104.71c-3.35-5.29-5.68-8.2-10.16-14.84c-1.3-1.91-3.71-2.16-5.43-1.27
			c-1.19,0.58-2.05,1.72-2.05,3.24v384.97c0,1.44,0.89,2.85,2.35,3.38c9.03,3.24,20.38,1.11,31.12,0.91c2.49-0.06,4.87,0.06,7.2,0.3
			c9.58,0.91,18,4.04,26.63,8.72c0.06,0.03,0.14,0.08,0.19,0.11c9.3,5.07,12.46,11.63,11.38,20.35c-0.22,1.85-0.58,3.6-1.08,5.26
			c-2.08,6.81-6.76,11.82-15.95,14.09c-0.17,0.03-0.3,0.08-0.47,0.11c-9.47,2.33-18.96,3.24-28.43,3.32
			c-11.41,0.17-22.76-0.86-34.03-1.94c-1.61-0.17-3.24-0.3-4.85-0.47c-29.76-2.85-39.92-7.36-43.69-25.14
			c-1.22-5.7-1.77-12.76-2.13-21.59c-0.11-2.85-0.22-5.7-0.3-8.55c-5.43-149.36-1.05-298.76-3.32-448.15
			c-0.22-14.98-1.02-31.23-0.06-46.18c0.17-2.33,0.08-4.68,0.19-7c0.22-6.06,1.58-11.68,10.63-14.84
			c13.32-4.6,38.54,0.08,44.93,8.67c3.65,4.93,6.34,10.47,10.33,17.22c31.48,56.56,64.48,110.49,93,166.53
			c1.25,2.41,3.32,4.65,7.36,4.87c0.66,0.06,1.36-0.11,1.97-0.36c7.84-3.43,10.88-11.57,14.09-18.33
			c12.21-25.42,29.1-48.51,41.89-73.53c15.89-31.15,35.38-60.44,52.74-90.81c7.56-13.26,45.93-21.35,57.97-12.51
			C1200.86,659.15,1202.82,662.89,1201.16,666.54z"/>
		<path class="st2" d="M1875.46,659.41c14.11,8.25,11.21,20.87,11.22,32.09c0.1,99.8-0.1,199.6-0.1,299.4
			c0,51.43,0.21,102.86,0.39,154.29c0.05,14.37,0.4,28.12,18.48,32.52c10.23,2.49,14.39,12.4,13.62,21.84
			c-0.79,9.57-7.29,16.76-17.08,19.88c-18.81,5.99-35.06,1.13-50.25-10c-3.32-2.43-7.65-2.81-11.24-0.84
			c-11.43,6.29-22.94,12.23-33.55,19.54c-7.15,4.93-14.33,4.74-21.73,4.9c-23.64,0.51-47.49-1.34-70.91,1.13
			c-49.73,5.23-100.85-52.43-97.72-101.2c2.54-39.63,1.21-79.34,3.02-119.03c1.56-34.24,15.85-59.38,41.22-78.82
			c19.2-14.71,43.1-14.99,65.75-16.06c28.88-1.35,58.01-2.12,86.35,6.45c0.03,0.01,0.07,0.02,0.1,0.03
			c6.61,1.94,13.12-3.53,13.12-10.61V700.52c0-5.3-3.69-9.95-8.78-10.76c-3.18-0.51-6.37-0.19-9.43-0.19
			c-35.66,0.04-71.32,0.6-106.98,0.35c-16.8-0.12-30.78,13.31-31.73,30.57c-1.92,34.79,1.22,69.59,0.57,104.37
			c-0.17,8.98,7.19,10.69,13.48,13.61c8.97,4.16,14.91,10.57,13.4,21.84c-1.6,11.91-10.51,15.02-19.68,16
			c-23.99,2.57-49.61-2.38-49.18-36.19c0.59-46.79-5.44-93.39-2.47-140.18c1.13-17.86,5.75-33.23,21.54-43.93
			c5.45-3.69,10.43-5.81,16.62-6.01c55.66-1.78,111.33-4.02,167-2.12C1845.28,648.39,1861.39,646.56,1875.46,659.41z
			 M1721.41,961.33c-3.8,0.14-7.61,0.18-11.41,0.43c-32.25,2.08-41.3,11.49-41.64,44.62c-0.49,47.42,0.27,94.84-3.21,142.21
			c-1.43,19.47,6.04,30.44,23.35,34.32c38.24,8.58,76.63,11.02,114.69-1.77c21.56-7.25,24.96-11.89,24.95-35.17
			c-0.01-49.77-0.04-99.53-0.05-149.3c-0.01-25.5-6.41-33.45-31.62-34.81C1772.95,960.59,1749.33,961.29,1721.41,961.33z"/>
		<path class="st2" d="M1875.46,1285.62c14.11,8.14,11.21,20.58,11.22,31.65c0.1,98.44-0.1,196.87-0.1,295.31
			c0,50.73,0.21,101.45,0.39,152.18c0.05,14.18,0.4,27.73,18.48,32.08c10.23,2.46,14.39,12.23,13.62,21.55
			c-0.79,9.44-7.29,16.54-17.08,19.61c-18.79,5.9-35.03,1.12-50.21-9.83c-3.33-2.41-7.72-2.78-11.33-0.82
			c-11.41,6.19-22.91,12.04-33.49,19.24c-7.15,4.86-14.33,4.67-21.73,4.83c-23.64,0.5-47.49-1.32-70.91,1.11
			c-49.73,5.16-100.85-51.72-97.72-99.82c2.54-39.09,1.21-78.26,3.02-117.4c1.56-33.77,15.85-58.57,41.22-77.74
			c19.2-14.51,43.1-14.79,65.75-15.84c28.88-1.34,58.01-2.09,86.35,6.36c0.03,0.01,0.07,0.02,0.1,0.03
			c6.6,1.91,13.12-3.39,13.12-10.26v-211.87c0-5.13-3.67-9.61-8.73-10.42c-3.2-0.51-6.4-0.2-9.48-0.19
			c-38.91,0.04-77.82,0.69-116.71,0.25c-13.2-0.15-19.81,4.6-21.07,17.92c-3.65,38.43,0.37,76.85-0.36,115.27
			c-0.17,8.86,7.19,10.55,13.48,13.43c8.97,4.11,14.91,10.43,13.4,21.54c-1.6,11.75-10.51,14.81-19.68,15.78
			c-23.99,2.53-49.61-2.35-49.18-35.7c0.59-46.15-5.44-92.11-2.47-138.27c1.13-17.61,5.75-32.78,21.54-43.33
			c5.45-3.64,10.43-5.73,16.62-5.93c55.66-1.76,111.33-3.97,167-2.09C1845.28,1274.75,1861.39,1272.95,1875.46,1285.62z
			 M1721.41,1583.41c-3.8,0.14-7.61,0.18-11.41,0.42c-32.25,2.05-41.3,11.34-41.64,44.01c-0.49,46.77,0.27,93.54-3.21,140.27
			c-1.43,19.2,6.04,30.02,23.35,33.85c38.24,8.46,76.63,10.87,114.69-1.75c21.56-7.15,24.96-11.73,24.95-34.69
			c-0.01-49.09-0.04-98.17-0.05-147.26c-0.01-25.15-6.41-32.99-31.62-34.33C1772.95,1582.68,1749.33,1583.37,1721.41,1583.41z"/>
		<path class="st2" d="M1433.28,959.06c-28.94,0.76-56.26-1.09-84.51-4.6c-12.59-1.57-23.93,7.09-24.33,18.72
			c-2.18,62.7,1.96,124.38,0.66,187.14c-0.22,10.87,9.39,19.78,21.27,19.78h179.21c10.91,0,20.04-7.55,21.18-17.48
			c0.32-2.83,0.74-5.59,1.74-8.24c3.4-9.03,9.04-14.53,19.77-14.96c11.17-0.45,14,7.24,16.31,14.66c4.45,14.3,4.95,29.02,1.5,43.45
			c-4.54,18.99-35.67,33.98-58.64,26.99c-21.04-6.4-41.48-4.97-62.05-0.71c-49.21,10.19-99,4.32-148.5,4.59
			c-13.53,0.07-26.45-8.35-40.42-11.14c-10.28-2.05-13.31-11.12-13.71-20.07c-0.45-10-0.37-20.03-0.37-30.04
			c0.02-131.75-0.18-263.5,0.22-395.25c0.18-57.8,12.47-93.01,69.5-115.77c7.25-2.9,34.05-6.88,41.62-7.09
			c22.72-0.62,45.45-1.46,68.18-1.81c56.27-0.87,90.09,5.95,113.17,53.15c8.42,17.22-13.8,49.8-13.7,67.28
			c0.24,39.25,20.16,75.83,11.05,114.73c-10.04,42.83-28.62,69.82-89.14,74.28C1454.04,957.34,1444.83,958.21,1433.28,959.06z
			 M1324.12,882.53c1.42,24.6,6,30.44,34.2,32.82c37.73,3.19,75.71,2.68,113.42-1.26c19-1.98,27.3-9.53,27.71-27.2
			c1.23-53.87,1.21-107.74,4.16-161.59c0.9-16.34-12.34-30.52-29.87-31.95c-36.05-2.94-72.84-5.68-108.21,1.07
			c-28.03,5.35-43.25,19.8-41.26,48.68C1327.4,788.37,1324,832.76,1324.12,882.53z"/>
		<path class="st2" d="M1201.66,1833.55c-2.74,9.19-9.19,15.89-19.38,16.92c-5.98,0.61-12.1,0.39-18.13,0.39
			c-88.57,0.03-177.13,0.03-267.89,0.06c-7.5-0.03-12.82-0.39-18.11,0c-1.94,0.14-3.71,0.06-5.29-0.25h-0.03
			c-7-1.27-10.44-6.59-10.8-14.53c-0.5-11.46,0.08-22.98,0.28-34.47c2.41-154.24,1.86-308.45,1.02-462.68
			c0-2.55-0.03-5.12-0.03-7.67c-0.06-8.55,0.66-16.03,2.21-22.48c5.43-22.48,21.1-32.42,50.47-32.5c1.44,0,2.91,0,4.35-0.03
			c10.63-0.06,21.29-0.25,31.98-0.44c9.58-0.19,19.19-0.36,28.77-0.42c16.69-0.11,33.39,0.11,50,1.25h0.03l0.03,0.03
			c3.96,0.25,7.92,0.55,11.88,0.94c39.15,3.74,78.43,4.71,117.5,8.94c5.18,0.55,12.87-7.48,17.47-5.09
			c10.6,5.56,8.28,26.33-2.13,32.59c-2.91,1.74-5.95,2.91-9.08,3.68c-5.59,1.38-11.46,1.61-17.3,1.97
			c-36.24,2.27-72.98-3.05-108.75,3.96c-2.08,0.42-4.15,0.78-6.23,1.14c-15.28,2.57-30.59,3.68-45.9,4.13
			c-10.05,0.3-20.1,0.3-30.15,0.25c-10.22-0.06-20.43-0.17-30.65-0.08c-19.88,0.14-23.56,1-21.26,20.21
			c0.53,4.37,1.02,8.75,1.52,13.15c3.1,28.29,5.48,57.14,7.14,86.46c0.03,0.03,0.03,0.03,0.03,0.06
			c5.43,93.88,3.85,192.36-3.1,292.25c-1.05,15.34-2.24,30.7-3.54,46.1c-1.33,15.64,6.37,22.43,21.35,22.59
			c24.97,0.28,49.97,2.08,74.89,1.16c51.3-1.91,102.58-5.23,153.85-7.84c11.38-0.58,22.12,0.08,32.34,7.45
			C1199.53,1816.86,1204.65,1823.44,1201.66,1833.55z"/>
		<path class="st2" d="M1504.75,1277.15c18.91,0.01,35.57-0.29,52.2,0.09c25.44,0.57,29.84,4.65,30.92,32.27
			c0.92,23.71,0.22,47.49,0.11,71.24c-0.27,58.62-0.69,117.24-0.88,175.86c-0.09,26.69-5.51,33.81-31.88,34.28
			c-37.06,0.67-74.14-0.37-111.21-0.69c-1.51-0.01-3.03-0.09-4.54-0.12c-35.54-0.66-35.48-0.66-35.97,35.41
			c-0.5,36.41-1.22,72.81-1.67,109.21c-0.14,10.92-2.19,20.63-12.62,25.77c-10.74,5.29-22.9-0.57-27.09-13.12
			c-3.06-9.14-2.61-18.75-2.62-28.25c-0.07-131.51-0.12-263.02-0.17-394.53c0-0.79,0-1.58,0.01-2.38
			c0.52-39.15,5.71-45.75,43.3-46.6C1435.89,1274.84,1469.2,1276.53,1504.75,1277.15z M1404.58,1436.15
			c-0.14,27.71-0.3,55.42-0.4,83.13c-0.1,28.3-0.04,28.63,28.14,28.52c25.7-0.1,51.41-0.69,77.1-1.57c1.14-0.04,2.29-0.06,3.44-0.07
			c18.46-0.16,33.24-15.44,33.22-33.9c-0.06-54.43,0.24-108.7-1.58-163.62c-0.6-18.21-15.59-32.67-33.81-32.7
			c-25.03-0.05-49.67-0.49-74.79,1.44c-17.67,1.36-31.31,16.09-31.32,33.81C1404.58,1378.59,1404.58,1406.09,1404.58,1436.15z"/>
		<path class="st2" d="M1291.03,1622.13c9.54,71.87,0,123.9,0,188.14c43.74,1.26,114.73-11.53,154.1,5.61
			c38.07,16.58,62.97-4.43,106.12-4.57c6.72-14.56,2.91-27.81,6.91-39.83c2.71-8.16,6.16-14.44,15.24-14.9
			c8.17-0.42,14.23,2.34,18.55,10.5c6.88,12.99,9.56,26.26,7.54,40.99c-5.86,42.82-5.72,42.83-47.47,42.82
			c-88.62-0.01-177.23,0.05-265.85-0.04c-24.55-0.02-34.88-10.4-37.16-36.56c-2.41-27.58-2.6-55.22-2.64-82.89
			c-0.19-137.51-0.53-275.02-0.83-412.54c-0.02-9.48-0.57-18.97,2.75-28.11c4.07-11.24,12.9-15.24,23.22-15.35
			c10.58-0.11,23.95,5.66,25.54,15.94c1.56,10.06,1.67,20.43,1.66,30.67C1298.55,1420.81,1277.72,1521.86,1291.03,1622.13z"/>
		<path class="st2" d="M1190.67,1701.1c0.06,27.85-7.28,36.68-34.22,37.4c-40.84,1.05-81.76,1.08-122.62,0.53
			c-25.86-0.36-33-8.25-34.44-35.11c-1.33-24.56-2.08-49.11-3.07-75.94c-0.14-34.33-0.28-67.97-0.39-101.3
			c-0.11-27.08-0.19-53.93-0.28-80.79c-0.03-8.42-0.58-16.97,3.1-24.94c0.83-1.8,1.74-3.49,2.77-5.01
			c4.49-6.89,10.83-10.94,20.16-10.38c11.43,0.66,17.86,7.39,20.71,18.05c1.8,6.7,2.49,13.51,2.71,20.38
			c0.14,3.88,0.14,7.78,0.08,11.68c-0.47,38.73-1,77.46-1.55,116.2c-0.44,30.43-0.89,60.83-1.33,91.25
			c-0.42,28.63-0.47,28.74,28.65,29.21c17.41,0.28,34.83,0.39,52.22,0.22c22.65-0.22,23.17-0.69,23.42-23.12
			c0-0.97,0.03-1.97,0.03-2.93c0.44-42.83,0.83-85.66,1.22-128.49c0.25-26.36,0.5-52.71,0.75-79.07c0.03-3.6,0.08-7.17,0.11-10.77
			c0.06-7.7,0.06-15.42,1-23.01c1.25-10.08,6.23-17.94,17.25-17.83c10.91,0.08,18.88,5.62,20.65,17.39
			c1.14,7.59,2.05,15.28,2.1,22.92c0.08,16.56,0.17,33.14,0.25,49.7C1190.28,1565.28,1190.53,1633.19,1190.67,1701.1z"/>
		<g class="st3">
			<path class="st4" d="M872.84,1850.66c-0.53,0.17-1.11,0.25-1.77,0.25c-4.57,0-7-2.93-7.95-7.39c-1.66-7.78-3.93-15.42-5.26-23.26
				c-3.6-20.99-11.24-40.61-19.99-59.83c-13.54-29.79-28.49-58.86-46.95-86.02c-7.56-11.13-14.56-22.67-19.35-35.33
				c-10.38-27.49-7.64-54.49,3.29-81.2c5.48-13.4,13.95-25.08,20.93-37.6c14.12-25.22,24-52.13,32.53-79.62
				c6.73-21.71,9.88-44.05,12.6-66.47c0.89-7.45,0.17-8.36-7.2-11.41c-5.92-2.46-11.77-5.12-17.61-7.81
				c-6.73-3.1-8.89-2.33-10.19,4.6c-2.19,11.38-5.07,22.79-5.79,34.27c-2.52,39.92-17.97,75.08-38.23,108.67
				c-17,28.21-39.73,50.91-66,70.4c-17.66,13.1-35.88,25.39-53.1,39.09c-16.92,13.43-31.17,29.21-43.33,47.01
				c-4.13,6.04-7.78,12.43-13.12,17.61c-7.53,7.34-15.25,6.01-19.52-3.57c-1.63-3.63-2.44-7.5-2.49-11.57
				c-0.14-9.83,1.08-19.52,3.27-29.07c6.15-26.44,10.77-53.24,19.49-79.13c10.02-29.85,27.82-53.35,53.54-71.18
				c20.85-14.45,41.36-29.37,62.32-43.63c12.62-8.55,26.55-15.14,38.48-24.81c13.07-10.6,24.11-22.18,27.66-39.67
				c2.69-13.12,6.92-25.97,12.29-38.34c1.72-3.96,1.61-7.64-1.19-11.18c-2.27-2.88-4.21-6.01-6.45-8.91c-3.29-4.18-4.98-4.51-9-0.91
				c-8.69,7.84-16.25,16.58-20.07,27.99c-2.52,7.53-4.9,15.12-7.67,22.56c-8.25,22.23-23.78,38.04-44.08,49.64
				c-15.53,8.89-32.7,13.65-49.28,19.85c-16.92,6.34-33.64,13.01-49.17,22.34c-21.93,13.21-38.34,31.98-53.05,52.49
				c-3.02,4.24-5.76,8.64-8.8,12.87c-2.46,3.43-5.62,5.9-10.13,4.15c-4.01-1.55-5.04-5.07-4.82-9.03c0.14-3.05,0.06-6.17,0.78-9.11
				c6.26-25.89,14.2-51.25,24.64-75.78c14.45-33.89,39.59-57.48,71.84-74.14c21.01-10.85,43.16-18.69,65.59-25.94
				c12.24-3.93,24.28-8.39,36.41-12.6c3.82-1.33,7.2-3.24,9.97-6.28c8.08-8.91,18-15.56,27.91-22.18c7.25-4.85,7.28-4.79,5.76-13.21
				c-2.41-13.29-2.44-13.54-15.97-11.71c-21.46,2.91-41.97,9.25-59.99,21.35c-21.48,14.45-44.91,21.32-70.52,22.9
				c-16.11,0.97-32.23,2.57-47.81,7.5c-18.3,5.79-33.25,16.56-46.54,29.96c-1.94,1.97-3.96,3.85-5.68,6.01
				c-3.32,4.21-7.5,4.9-12.32,3.32c-4.98-1.66-7.2-5.54-7.56-10.47c-0.69-9.25,0.42-18.22,4.18-26.88
				c10.3-23.73,27.88-39.78,51.66-49.25c11.05-4.43,21.87-9.55,33.64-11.96c1.47-0.3,2.93-1,4.18-1.83
				c2.41-1.66,2.19-3.68-0.33-4.87c-2.44-1.16-5.2-1.66-7.84-2.52c-18.36-5.9-36.63-12.04-52.44-23.56
				c-15.86-11.57-26.19-27.19-32.03-45.79c-1.94-6.2-1.52-12.74-0.83-19.1c0.58-5.07,4.18-7.97,8.86-9.52
				c4.29-1.44,7.56,0.08,10.6,3.29c6.53,6.84,13.1,13.59,20.63,19.49c16.92,13.26,36.13,19.91,57.25,22.45
				c15.45,1.85,31.09,1.85,46.4,5.2c14.48,3.18,28.24,7.86,40.59,16.22c21.73,14.65,45.85,22.73,71.73,25.89
				c6.23,0.78,7.39-0.03,9.08-6.09c0.08-0.3,0.19-0.61,0.22-0.89c2.21-15.31,5.7-12.13-8.36-21.21
				c-7.7-4.98-15.17-10.38-21.35-17.22c-4.46-4.93-9.91-8-16.11-10.08c-17.39-5.84-34.72-11.9-52.1-17.77
				c-23.26-7.86-45.88-17.3-66.2-31.12c-22.87-15.53-40.92-35.58-51.99-61.43c-10.11-23.67-17.8-48.12-24.34-72.98
				c-1.27-4.79-1.69-9.61-1.61-14.53c0.06-3.74,1.47-6.51,5.12-7.84c3.79-1.41,6.7,0.33,8.8,3.13c4.4,5.87,8.36,12.07,12.74,17.94
				c14.65,19.8,31.12,37.68,52.71,50.22c14.34,8.33,29.65,14.42,45.16,20.16c14.89,5.54,30.15,10.16,44.38,17.33
				c25.97,13.12,45.13,32.12,52.99,61.02c4.32,15.89,11.38,30.26,24.2,41.31c6.7,5.76,7.81,5.9,12.82-1
				c7.97-10.99,8.14-11.07,2.82-23.67c-5.15-12.18-8-25.03-11.52-37.68c-3.16-11.32-9.05-20.49-17.64-28.35
				c-9.08-8.28-18.77-15.75-29.51-21.62c-22.87-12.51-43.38-28.52-64.78-43.22c-12.6-8.64-24.7-17.89-35.94-28.32
				c-14.53-13.48-23.84-29.96-30.76-48.2c-9.41-24.7-14.12-50.58-19.88-76.19c-2.02-8.97-3.74-17.94-4.68-27.08
				c-0.64-6.09-0.61-12.15,0.78-18.22c1.3-5.76,3.77-10.58,9.86-12.07c5.98-1.47,9.86,2.57,13.12,6.64
				c3.65,4.51,6.67,9.5,10.05,14.23c10.24,14.48,20.76,28.71,34.33,40.39c12.54,10.8,26.22,20.02,39.37,29.96
				c16.31,12.32,33.33,23.73,48.48,37.62c14.53,13.32,27.27,28.1,37.85,44.57c11.07,17.25,20.07,35.69,28.41,54.43
				c8.2,18.44,10.16,38.23,12.9,57.89c1.72,12.07,3.82,24.11,6.15,36.1c1.58,8.08,3.18,8.69,10.38,5.18
				c6.04-2.96,11.99-6.06,18.36-8.39c6.31-2.33,7.12-3.54,6.28-10.3c-2.35-19.08-4.32-38.23-9.5-56.84
				c-7.42-26.55-16.75-52.38-28.65-77.27c-5.43-11.32-12.02-21.98-18.6-32.64c-11.63-18.88-18.55-39.26-19.24-61.41
				c-0.64-20.02,4.71-38.68,15.06-55.84c11.66-19.38,24.72-37.9,35.35-57.89c14.95-28.07,28.85-56.7,38.21-87.21
				c3.32-10.77,5.12-22.01,7.61-33.03c0.42-1.74,0.8-3.49,1.25-5.23c-0.11,2.33-0.03,4.68-0.19,7c-0.97,14.95-0.17,31.2,0.06,46.18
				c2.27,149.39-2.1,298.78,3.32,448.15c-44.21,2.57-79.24,39.23-79.24,84.05c0,44.02,33.8,80.18,76.88,83.89
				c0.83,154.24,1.38,308.45-1.02,462.68c-0.19,11.49-0.78,23.01-0.28,34.47C862.4,1844.07,865.83,1849.39,872.84,1850.66z"/>
			<path class="st4" d="M924.66,1255.09c0,7.53-1.55,14.7-4.32,21.21c-1.44,0.03-2.91,0.03-4.35,0.03
				c-29.37,0.08-45.04,10.02-50.47,32.5c-27.41-2.6-48.81-25.66-48.81-53.74c0-28.96,22.79-52.58,51.41-53.9
				c3.77,17.77,13.93,22.29,43.69,25.14c1.61,0.17,3.24,0.3,4.85,0.47C921.73,1235.01,924.66,1244.7,924.66,1255.09z"/>
		</g>
	</g>
</g>
<g id="Layer_1_copy" class="st0">
	<rect x="0" class="st5" width="2500" height="2500"/>
	<g class="st3">
		<path class="st6" d="M1201.16,666.54c-10.41,23.26-4.43,47.54-4.62,71.21c-0.75,89.29-0.94,178.6-1.08,267.91
			c-0.03,25.44-0.03,50.91-0.08,76.38c0,19.49-0.03,38.98-0.06,58.47c-0.03,13.04-0.19,26.08,2.02,39.04
			c0.17,1.19,0.39,2.38,0.64,3.57c2.35,11.57-1.19,22.2-8.47,31.87c-3.9,5.2-8.89,10.47-15.75,8.39c-16.22-4.85-32,0.61-47.95,0.25
			c-9.14-0.19-17.3-1.88-25.5-6.12c-6.42-3.32-13.04-6.51-15.75-11.77c-1.41-2.66-1.8-5.84-0.66-9.86
			c3.02-10.66,11.49-18.38,24.03-19.46c10.11-0.86,20.38-0.33,32.78-0.22c2.16,0.03,4.01-1.58,4.1-3.57
			c0.53-11.43,0.97-22.87,1.33-34.3c0.94-29.07,1.38-58.06,1.52-86.99c0.11-26.05-0.06-52.05-0.39-78.02
			c-0.5-42.55-1.47-84.97-2.38-127.27c-0.55-27.38-1.11-54.71-1.52-82c-0.03-1.83-1.49-3.46-3.46-3.65c-5.65-0.58-6.67,2.8-8.19,5.4
			c-26.52,45.24-53.49,90.28-76.55,137.13c-5.59,11.35-13.54,18.85-26.94,19.63c-13.93,0.8-21.76-7-28.21-17.77
			c-21.07-35.13-42.75-69.99-64.62-104.71c-3.35-5.29-5.68-8.2-10.16-14.84c-1.3-1.91-3.71-2.16-5.43-1.27
			c-1.19,0.58-2.05,1.72-2.05,3.24v384.97c0,1.44,0.89,2.85,2.35,3.38c9.03,3.24,20.38,1.11,31.12,0.91c2.49-0.06,4.87,0.06,7.2,0.3
			c9.58,0.91,18,4.04,26.63,8.72c0.06,0.03,0.14,0.08,0.19,0.11c9.3,5.07,12.46,11.63,11.38,20.35c-0.22,1.85-0.58,3.6-1.08,5.26
			c-2.08,6.81-6.76,11.82-15.95,14.09c-0.17,0.03-0.3,0.08-0.47,0.11c-9.47,2.33-18.96,3.24-28.43,3.32
			c-11.41,0.17-22.76-0.86-34.03-1.94c-1.61-0.17-3.24-0.3-4.85-0.47c-29.76-2.85-39.92-7.36-43.69-25.14
			c-1.22-5.7-1.77-12.76-2.13-21.59c-0.11-2.85-0.22-5.7-0.3-8.55c-5.43-149.36-1.05-298.76-3.32-448.15
			c-0.22-14.98-1.02-31.23-0.06-46.18c0.17-2.33,0.08-4.68,0.19-7c0.22-6.06,1.58-11.68,10.63-14.84
			c13.32-4.6,38.54,0.08,44.93,8.67c3.65,4.93,6.34,10.47,10.33,17.22c31.48,56.56,64.48,110.49,93,166.53
			c1.25,2.41,3.32,4.65,7.36,4.87c0.66,0.06,1.36-0.11,1.97-0.36c7.84-3.43,10.88-11.57,14.09-18.33
			c12.21-25.42,29.1-48.51,41.89-73.53c15.89-31.15,35.38-60.44,52.74-90.81c7.56-13.26,45.93-21.35,57.97-12.51
			C1200.86,659.15,1202.82,662.89,1201.16,666.54z"/>
		<path class="st6" d="M1875.46,659.41c14.11,8.25,11.21,20.87,11.22,32.09c0.1,99.8-0.1,199.6-0.1,299.4
			c0,51.43,0.21,102.86,0.39,154.29c0.05,14.37,0.4,28.12,18.48,32.52c10.23,2.49,14.39,12.4,13.62,21.84
			c-0.79,9.57-7.29,16.76-17.08,19.88c-18.81,5.99-35.06,1.13-50.25-10c-3.32-2.43-7.65-2.81-11.24-0.84
			c-11.43,6.29-22.94,12.23-33.55,19.54c-7.15,4.93-14.33,4.74-21.73,4.9c-23.64,0.51-47.49-1.34-70.91,1.13
			c-49.73,5.23-100.85-52.43-97.72-101.2c2.54-39.63,1.21-79.34,3.02-119.03c1.56-34.24,15.85-59.38,41.22-78.82
			c19.2-14.71,43.1-14.99,65.75-16.06c28.88-1.35,58.01-2.12,86.35,6.45c0.03,0.01,0.07,0.02,0.1,0.03
			c6.61,1.94,13.12-3.53,13.12-10.61V700.52c0-5.3-3.69-9.95-8.78-10.76c-3.18-0.51-6.37-0.19-9.43-0.19
			c-35.66,0.04-71.32,0.6-106.98,0.35c-16.8-0.12-30.78,13.31-31.73,30.57c-1.92,34.79,1.22,69.59,0.57,104.37
			c-0.17,8.98,7.19,10.69,13.48,13.61c8.97,4.16,14.91,10.57,13.4,21.84c-1.6,11.91-10.51,15.02-19.68,16
			c-23.99,2.57-49.61-2.38-49.18-36.19c0.59-46.79-5.44-93.39-2.47-140.18c1.13-17.86,5.75-33.23,21.54-43.93
			c5.45-3.69,10.43-5.81,16.62-6.01c55.66-1.78,111.33-4.02,167-2.12C1845.28,648.39,1861.39,646.56,1875.46,659.41z
			 M1721.41,961.33c-3.8,0.14-7.61,0.18-11.41,0.43c-32.25,2.08-41.3,11.49-41.64,44.62c-0.49,47.42,0.27,94.84-3.21,142.21
			c-1.43,19.47,6.04,30.44,23.35,34.32c38.24,8.58,76.63,11.02,114.69-1.77c21.56-7.25,24.96-11.89,24.95-35.17
			c-0.01-49.77-0.04-99.53-0.05-149.3c-0.01-25.5-6.41-33.45-31.62-34.81C1772.95,960.59,1749.33,961.29,1721.41,961.33z"/>
		<path class="st6" d="M1875.46,1285.62c14.11,8.14,11.21,20.58,11.22,31.65c0.1,98.44-0.1,196.87-0.1,295.31
			c0,50.73,0.21,101.45,0.39,152.18c0.05,14.18,0.4,27.73,18.48,32.08c10.23,2.46,14.39,12.23,13.62,21.55
			c-0.79,9.44-7.29,16.54-17.08,19.61c-18.79,5.9-35.03,1.12-50.21-9.83c-3.33-2.41-7.72-2.78-11.33-0.82
			c-11.41,6.19-22.91,12.04-33.49,19.24c-7.15,4.86-14.33,4.67-21.73,4.83c-23.64,0.5-47.49-1.32-70.91,1.11
			c-49.73,5.16-100.85-51.72-97.72-99.82c2.54-39.09,1.21-78.26,3.02-117.4c1.56-33.77,15.85-58.57,41.22-77.74
			c19.2-14.51,43.1-14.79,65.75-15.84c28.88-1.34,58.01-2.09,86.35,6.36c0.03,0.01,0.07,0.02,0.1,0.03
			c6.6,1.91,13.12-3.39,13.12-10.26v-211.87c0-5.13-3.67-9.61-8.73-10.42c-3.2-0.51-6.4-0.2-9.48-0.19
			c-38.91,0.04-77.82,0.69-116.71,0.25c-13.2-0.15-19.81,4.6-21.07,17.92c-3.65,38.43,0.37,76.85-0.36,115.27
			c-0.17,8.86,7.19,10.55,13.48,13.43c8.97,4.11,14.91,10.43,13.4,21.54c-1.6,11.75-10.51,14.81-19.68,15.78
			c-23.99,2.53-49.61-2.35-49.18-35.7c0.59-46.15-5.44-92.11-2.47-138.27c1.13-17.61,5.75-32.78,21.54-43.33
			c5.45-3.64,10.43-5.73,16.62-5.93c55.66-1.76,111.33-3.97,167-2.09C1845.28,1274.75,1861.39,1272.95,1875.46,1285.62z
			 M1721.41,1583.41c-3.8,0.14-7.61,0.18-11.41,0.42c-32.25,2.05-41.3,11.34-41.64,44.01c-0.49,46.77,0.27,93.54-3.21,140.27
			c-1.43,19.2,6.04,30.02,23.35,33.85c38.24,8.46,76.63,10.87,114.69-1.75c21.56-7.15,24.96-11.73,24.95-34.69
			c-0.01-49.09-0.04-98.17-0.05-147.26c-0.01-25.15-6.41-32.99-31.62-34.33C1772.95,1582.68,1749.33,1583.37,1721.41,1583.41z"/>
		<path class="st6" d="M1433.28,959.06c-28.94,0.76-56.26-1.09-84.51-4.6c-12.59-1.57-23.93,7.09-24.33,18.72
			c-2.18,62.7,1.96,124.38,0.66,187.14c-0.22,10.87,9.39,19.78,21.27,19.78h179.21c10.91,0,20.04-7.55,21.18-17.48
			c0.32-2.83,0.74-5.59,1.74-8.24c3.4-9.03,9.04-14.53,19.77-14.96c11.17-0.45,14,7.24,16.31,14.66c4.45,14.3,4.95,29.02,1.5,43.45
			c-4.54,18.99-35.67,33.98-58.64,26.99c-21.04-6.4-41.48-4.97-62.05-0.71c-49.21,10.19-99,4.32-148.5,4.59
			c-13.53,0.07-26.45-8.35-40.42-11.14c-10.28-2.05-13.31-11.12-13.71-20.07c-0.45-10-0.37-20.03-0.37-30.04
			c0.02-131.75-0.18-263.5,0.22-395.25c0.18-57.8,12.47-93.01,69.5-115.77c7.25-2.9,34.05-6.88,41.62-7.09
			c22.72-0.62,45.45-1.46,68.18-1.81c56.27-0.87,90.09,5.95,113.17,53.15c8.42,17.22-13.8,49.8-13.7,67.28
			c0.24,39.25,20.16,75.83,11.05,114.73c-10.04,42.83-28.62,69.82-89.14,74.28C1454.04,957.34,1444.83,958.21,1433.28,959.06z
			 M1324.12,882.53c1.42,24.6,6,30.44,34.2,32.82c37.73,3.19,75.71,2.68,113.42-1.26c19-1.98,27.3-9.53,27.71-27.2
			c1.23-53.87,1.21-107.74,4.16-161.59c0.9-16.34-12.34-30.52-29.87-31.95c-36.05-2.94-72.84-5.68-108.21,1.07
			c-28.03,5.35-43.25,19.8-41.26,48.68C1327.4,788.37,1324,832.76,1324.12,882.53z"/>
		<path class="st6" d="M1201.66,1833.55c-2.74,9.19-9.19,15.89-19.38,16.92c-5.98,0.61-12.1,0.39-18.13,0.39
			c-88.57,0.03-177.13,0.03-267.89,0.06c-7.5-0.03-12.82-0.39-18.11,0c-1.94,0.14-3.71,0.06-5.29-0.25h-0.03
			c-7-1.27-10.44-6.59-10.8-14.53c-0.5-11.46,0.08-22.98,0.28-34.47c2.41-154.24,1.86-308.45,1.02-462.68
			c0-2.55-0.03-5.12-0.03-7.67c-0.06-8.55,0.66-16.03,2.21-22.48c5.43-22.48,21.1-32.42,50.47-32.5c1.44,0,2.91,0,4.35-0.03
			c10.63-0.06,21.29-0.25,31.98-0.44c9.58-0.19,19.19-0.36,28.77-0.42c16.69-0.11,33.39,0.11,50,1.25h0.03l0.03,0.03
			c3.96,0.25,7.92,0.55,11.88,0.94c39.15,3.74,78.43,4.71,117.5,8.94c5.18,0.55,12.87-7.48,17.47-5.09
			c10.6,5.56,8.28,26.33-2.13,32.59c-2.91,1.74-5.95,2.91-9.08,3.68c-5.59,1.38-11.46,1.61-17.3,1.97
			c-36.24,2.27-72.98-3.05-108.75,3.96c-2.08,0.42-4.15,0.78-6.23,1.14c-15.28,2.57-30.59,3.68-45.9,4.13
			c-10.05,0.3-20.1,0.3-30.15,0.25c-10.22-0.06-20.43-0.17-30.65-0.08c-19.88,0.14-23.56,1-21.26,20.21
			c0.53,4.37,1.02,8.75,1.52,13.15c3.1,28.29,5.48,57.14,7.14,86.46c0.03,0.03,0.03,0.03,0.03,0.06
			c5.43,93.88,3.85,192.36-3.1,292.25c-1.05,15.34-2.24,30.7-3.54,46.1c-1.33,15.64,6.37,22.43,21.35,22.59
			c24.97,0.28,49.97,2.08,74.89,1.16c51.3-1.91,102.58-5.23,153.85-7.84c11.38-0.58,22.12,0.08,32.34,7.45
			C1199.53,1816.86,1204.65,1823.44,1201.66,1833.55z"/>
		<path class="st6" d="M1504.75,1277.15c18.91,0.01,35.57-0.29,52.2,0.09c25.44,0.57,29.84,4.65,30.92,32.27
			c0.92,23.71,0.22,47.49,0.11,71.24c-0.27,58.62-0.69,117.24-0.88,175.86c-0.09,26.69-5.51,33.81-31.88,34.28
			c-37.06,0.67-74.14-0.37-111.21-0.69c-1.51-0.01-3.03-0.09-4.54-0.12c-35.54-0.66-35.48-0.66-35.97,35.41
			c-0.5,36.41-1.22,72.81-1.67,109.21c-0.14,10.92-2.19,20.63-12.62,25.77c-10.74,5.29-22.9-0.57-27.09-13.12
			c-3.06-9.14-2.61-18.75-2.62-28.25c-0.07-131.51-0.12-263.02-0.17-394.53c0-0.79,0-1.58,0.01-2.38
			c0.52-39.15,5.71-45.75,43.3-46.6C1435.89,1274.84,1469.2,1276.53,1504.75,1277.15z M1404.58,1436.15
			c-0.14,27.71-0.3,55.42-0.4,83.13c-0.1,28.3-0.04,28.63,28.14,28.52c25.7-0.1,51.41-0.69,77.1-1.57c1.14-0.04,2.29-0.06,3.44-0.07
			c18.46-0.16,33.24-15.44,33.22-33.9c-0.06-54.43,0.24-108.7-1.58-163.62c-0.6-18.21-15.59-32.67-33.81-32.7
			c-25.03-0.05-49.67-0.49-74.79,1.44c-17.67,1.36-31.31,16.09-31.32,33.81C1404.58,1378.59,1404.58,1406.09,1404.58,1436.15z"/>
		<path class="st6" d="M1291.03,1622.13c9.54,71.87,0,123.9,0,188.14c43.74,1.26,114.73-11.53,154.1,5.61
			c38.07,16.58,62.97-4.43,106.12-4.57c6.72-14.56,2.91-27.81,6.91-39.83c2.71-8.16,6.16-14.44,15.24-14.9
			c8.17-0.42,14.23,2.34,18.55,10.5c6.88,12.99,9.56,26.26,7.54,40.99c-5.86,42.82-5.72,42.83-47.47,42.82
			c-88.62-0.01-177.23,0.05-265.85-0.04c-24.55-0.02-34.88-10.4-37.16-36.56c-2.41-27.58-2.6-55.22-2.64-82.89
			c-0.19-137.51-0.53-275.02-0.83-412.54c-0.02-9.48-0.57-18.97,2.75-28.11c4.07-11.24,12.9-15.24,23.22-15.35
			c10.58-0.11,23.95,5.66,25.54,15.94c1.56,10.06,1.67,20.43,1.66,30.67C1298.55,1420.81,1277.72,1521.86,1291.03,1622.13z"/>
		<path class="st6" d="M1190.67,1701.1c0.06,27.85-7.28,36.68-34.22,37.4c-40.84,1.05-81.76,1.08-122.62,0.53
			c-25.86-0.36-33-8.25-34.44-35.11c-1.33-24.56-2.08-49.11-3.07-75.94c-0.14-34.33-0.28-67.97-0.39-101.3
			c-0.11-27.08-0.19-53.93-0.28-80.79c-0.03-8.42-0.58-16.97,3.1-24.94c0.83-1.8,1.74-3.49,2.77-5.01
			c4.49-6.89,10.83-10.94,20.16-10.38c11.43,0.66,17.86,7.39,20.71,18.05c1.8,6.7,2.49,13.51,2.71,20.38
			c0.14,3.88,0.14,7.78,0.08,11.68c-0.47,38.73-1,77.46-1.55,116.2c-0.44,30.43-0.89,60.83-1.33,91.25
			c-0.42,28.63-0.47,28.74,28.65,29.21c17.41,0.28,34.83,0.39,52.22,0.22c22.65-0.22,23.17-0.69,23.42-23.12
			c0-0.97,0.03-1.97,0.03-2.93c0.44-42.83,0.83-85.66,1.22-128.49c0.25-26.36,0.5-52.71,0.75-79.07c0.03-3.6,0.08-7.17,0.11-10.77
			c0.06-7.7,0.06-15.42,1-23.01c1.25-10.08,6.23-17.94,17.25-17.83c10.91,0.08,18.88,5.62,20.65,17.39
			c1.14,7.59,2.05,15.28,2.1,22.92c0.08,16.56,0.17,33.14,0.25,49.7C1190.28,1565.28,1190.53,1633.19,1190.67,1701.1z"/>
		<g>
			<path class="st1" d="M872.84,1850.66c-0.53,0.17-1.11,0.25-1.77,0.25c-4.57,0-7-2.93-7.95-7.39c-1.66-7.78-3.93-15.42-5.26-23.26
				c-3.6-20.99-11.24-40.61-19.99-59.83c-13.54-29.79-28.49-58.86-46.95-86.02c-7.56-11.13-14.56-22.67-19.35-35.33
				c-10.38-27.49-7.64-54.49,3.29-81.2c5.48-13.4,13.95-25.08,20.93-37.6c14.12-25.22,24-52.13,32.53-79.62
				c6.73-21.71,9.88-44.05,12.6-66.47c0.89-7.45,0.17-8.36-7.2-11.41c-5.92-2.46-11.77-5.12-17.61-7.81
				c-6.73-3.1-8.89-2.33-10.19,4.6c-2.19,11.38-5.07,22.79-5.79,34.27c-2.52,39.92-17.97,75.08-38.23,108.67
				c-17,28.21-39.73,50.91-66,70.4c-17.66,13.1-35.88,25.39-53.1,39.09c-16.92,13.43-31.17,29.21-43.33,47.01
				c-4.13,6.04-7.78,12.43-13.12,17.61c-7.53,7.34-15.25,6.01-19.52-3.57c-1.63-3.63-2.44-7.5-2.49-11.57
				c-0.14-9.83,1.08-19.52,3.27-29.07c6.15-26.44,10.77-53.24,19.49-79.13c10.02-29.85,27.82-53.35,53.54-71.18
				c20.85-14.45,41.36-29.37,62.32-43.63c12.62-8.55,26.55-15.14,38.48-24.81c13.07-10.6,24.11-22.18,27.66-39.67
				c2.69-13.12,6.92-25.97,12.29-38.34c1.72-3.96,1.61-7.64-1.19-11.18c-2.27-2.88-4.21-6.01-6.45-8.91c-3.29-4.18-4.98-4.51-9-0.91
				c-8.69,7.84-16.25,16.58-20.07,27.99c-2.52,7.53-4.9,15.12-7.67,22.56c-8.25,22.23-23.78,38.04-44.08,49.64
				c-15.53,8.89-32.7,13.65-49.28,19.85c-16.92,6.34-33.64,13.01-49.17,22.34c-21.93,13.21-38.34,31.98-53.05,52.49
				c-3.02,4.24-5.76,8.64-8.8,12.87c-2.46,3.43-5.62,5.9-10.13,4.15c-4.01-1.55-5.04-5.07-4.82-9.03c0.14-3.05,0.06-6.17,0.78-9.11
				c6.26-25.89,14.2-51.25,24.64-75.78c14.45-33.89,39.59-57.48,71.84-74.14c21.01-10.85,43.16-18.69,65.59-25.94
				c12.24-3.93,24.28-8.39,36.41-12.6c3.82-1.33,7.2-3.24,9.97-6.28c8.08-8.91,18-15.56,27.91-22.18c7.25-4.85,7.28-4.79,5.76-13.21
				c-2.41-13.29-2.44-13.54-15.97-11.71c-21.46,2.91-41.97,9.25-59.99,21.35c-21.48,14.45-44.91,21.32-70.52,22.9
				c-16.11,0.97-32.23,2.57-47.81,7.5c-18.3,5.79-33.25,16.56-46.54,29.96c-1.94,1.97-3.96,3.85-5.68,6.01
				c-3.32,4.21-7.5,4.9-12.32,3.32c-4.98-1.66-7.2-5.54-7.56-10.47c-0.69-9.25,0.42-18.22,4.18-26.88
				c10.3-23.73,27.88-39.78,51.66-49.25c11.05-4.43,21.87-9.55,33.64-11.96c1.47-0.3,2.93-1,4.18-1.83
				c2.41-1.66,2.19-3.68-0.33-4.87c-2.44-1.16-5.2-1.66-7.84-2.52c-18.36-5.9-36.63-12.04-52.44-23.56
				c-15.86-11.57-26.19-27.19-32.03-45.79c-1.94-6.2-1.52-12.74-0.83-19.1c0.58-5.07,4.18-7.97,8.86-9.52
				c4.29-1.44,7.56,0.08,10.6,3.29c6.53,6.84,13.1,13.59,20.63,19.49c16.92,13.26,36.13,19.91,57.25,22.45
				c15.45,1.85,31.09,1.85,46.4,5.2c14.48,3.18,28.24,7.86,40.59,16.22c21.73,14.65,45.85,22.73,71.73,25.89
				c6.23,0.78,7.39-0.03,9.08-6.09c0.08-0.3,0.19-0.61,0.22-0.89c2.21-15.31,5.7-12.13-8.36-21.21
				c-7.7-4.98-15.17-10.38-21.35-17.22c-4.46-4.93-9.91-8-16.11-10.08c-17.39-5.84-34.72-11.9-52.1-17.77
				c-23.26-7.86-45.88-17.3-66.2-31.12c-22.87-15.53-40.92-35.58-51.99-61.43c-10.11-23.67-17.8-48.12-24.34-72.98
				c-1.27-4.79-1.69-9.61-1.61-14.53c0.06-3.74,1.47-6.51,5.12-7.84c3.79-1.41,6.7,0.33,8.8,3.13c4.4,5.87,8.36,12.07,12.74,17.94
				c14.65,19.8,31.12,37.68,52.71,50.22c14.34,8.33,29.65,14.42,45.16,20.16c14.89,5.54,30.15,10.16,44.38,17.33
				c25.97,13.12,45.13,32.12,52.99,61.02c4.32,15.89,11.38,30.26,24.2,41.31c6.7,5.76,7.81,5.9,12.82-1
				c7.97-10.99,8.14-11.07,2.82-23.67c-5.15-12.18-8-25.03-11.52-37.68c-3.16-11.32-9.05-20.49-17.64-28.35
				c-9.08-8.28-18.77-15.75-29.51-21.62c-22.87-12.51-43.38-28.52-64.78-43.22c-12.6-8.64-24.7-17.89-35.94-28.32
				c-14.53-13.48-23.84-29.96-30.76-48.2c-9.41-24.7-14.12-50.58-19.88-76.19c-2.02-8.97-3.74-17.94-4.68-27.08
				c-0.64-6.09-0.61-12.15,0.78-18.22c1.3-5.76,3.77-10.58,9.86-12.07c5.98-1.47,9.86,2.57,13.12,6.64
				c3.65,4.51,6.67,9.5,10.05,14.23c10.24,14.48,20.76,28.71,34.33,40.39c12.54,10.8,26.22,20.02,39.37,29.96
				c16.31,12.32,33.33,23.73,48.48,37.62c14.53,13.32,27.27,28.1,37.85,44.57c11.07,17.25,20.07,35.69,28.41,54.43
				c8.2,18.44,10.16,38.23,12.9,57.89c1.72,12.07,3.82,24.11,6.15,36.1c1.58,8.08,3.18,8.69,10.38,5.18
				c6.04-2.96,11.99-6.06,18.36-8.39c6.31-2.33,7.12-3.54,6.28-10.3c-2.35-19.08-4.32-38.23-9.5-56.84
				c-7.42-26.55-16.75-52.38-28.65-77.27c-5.43-11.32-12.02-21.98-18.6-32.64c-11.63-18.88-18.55-39.26-19.24-61.41
				c-0.64-20.02,4.71-38.68,15.06-55.84c11.66-19.38,24.72-37.9,35.35-57.89c14.95-28.07,28.85-56.7,38.21-87.21
				c3.32-10.77,5.12-22.01,7.61-33.03c0.42-1.74,0.8-3.49,1.25-5.23c-0.11,2.33-0.03,4.68-0.19,7c-0.97,14.95-0.17,31.2,0.06,46.18
				c2.27,149.39-2.1,298.78,3.32,448.15c-44.21,2.57-79.24,39.23-79.24,84.05c0,44.02,33.8,80.18,76.88,83.89
				c0.83,154.24,1.38,308.45-1.02,462.68c-0.19,11.49-0.78,23.01-0.28,34.47C862.4,1844.07,865.83,1849.39,872.84,1850.66z"/>
			<path class="st1" d="M924.66,1255.09c0,7.53-1.55,14.7-4.32,21.21c-1.44,0.03-2.91,0.03-4.35,0.03
				c-29.37,0.08-45.04,10.02-50.47,32.5c-27.41-2.6-48.81-25.66-48.81-53.74c0-28.96,22.79-52.58,51.41-53.9
				c3.77,17.77,13.93,22.29,43.69,25.14c1.61,0.17,3.24,0.3,4.85,0.47C921.73,1235.01,924.66,1244.7,924.66,1255.09z"/>
		</g>
	</g>
</g>
<g id="Layer_2" class="st0">
	<g id="Layer_3">
		<rect x="1850" y="750" class="st2" width="1000" height="1000"/>
	</g>
	<g class="st3">
		<g>
			<path class="st7" d="M1233.21,1347.09c-40.85-6.72-73.76-39.72-80.39-80.59c-10.94-67.47,46.68-124.77,114.03-113.57
				c40.74,6.78,73.59,39.63,80.3,80.39C1358.23,1300.65,1300.69,1358.2,1233.21,1347.09z"/>
			<path class="st7" d="M1139.4,1888.61c32.32-15.97,56.88-39.6,72.57-72.11c14.2-29.51,25.31-60.06,32.04-92.19
				c0.93-4.67-0.09-12.61,6.35-12.8c7.1-0.19,5.23,7.85,6.26,12.52c8.13,39.42,20.73,77.62,42.96,111.24
				c22.32,33.63,53.33,56.32,94.43,62.95c7.38,1.22,14.66,1.22,21.86-1.31c16.07-5.79,19.8-21.02,7.94-33.06
				c-5.88-5.98-12.33-11.49-18.12-17.65c-26.99-28.77-43.43-62.39-50.34-101.62c-4.58-25.5-4.76-51.28-8.31-76.78
				c-4.2-31.38-13.64-60.71-30.82-87.05c-22.79-34.93-37.83-72.57-44.37-113.76c-3.55-22.32-2.99-23.72,18.87-28.49
				c15.13-3.36,15.13-3.36,24,10.28c10.83,16.91,22.42,33.25,37.27,46.79c5.7,5.14,9.53,11.3,11.96,18.31
				c10.27,29.33,20.83,58.56,30.54,88.08c13.45,41.1,30.73,80.51,53.99,118.43c26.34,39.32,58.75,70.43,101.25,89.48
				c45.67,20.55,93.21,35.87,142.06,47.36c5.23,1.21,10.55,1.68,15.69,0.56c5.98-1.31,10.37-5.14,11.77-11.39
				c1.21-5.79-1.03-10.37-5.79-13.64c-4.2-3.08-8.69-5.88-13.08-8.78c-60.9-40.44-107.41-92.37-131.42-162.71
				c-9.15-26.9-18.87-53.71-29.8-79.86c-21.86-52.59-57.16-91.63-114.14-107.32c-5.51-1.49-10.93-3.74-16.35-5.61
				c-18.31-6.16-34.18-15.78-47.63-29.89c-17.75-18.68-17.84-18.12,3.36-32.78c7.66-5.32,14.48-7.57,23.44-3.74
				c23.16,10.18,47.35,17.37,71.92,23.35c19.52,4.76,35.87,14.38,49.78,28.95c17.84,18.87,31.76,40.35,44.93,62.58
				c29.51,49.88,63.98,96.48,98.73,142.72c26.81,35.59,62.02,60.8,104.7,75.75c53.33,18.68,108.72,28.95,163.92,39.79
				c14.2,2.8,29.33,2.9,43.9-0.75c9.15-2.34,16.72-7.38,18.77-17.09c2.05-9.43-3.83-16.16-10.65-21.48
				c-7.01-5.51-14.48-10.46-21.95-15.41c-35.03-23.07-66.22-50.34-91.35-83.97c-22.04-29.51-43.25-59.59-65.01-89.29
				c-20.92-28.58-45.21-53.99-72.11-77.06c-34.37-29.42-74.07-50.06-114.51-69.21c-27.27-12.89-55.57-22.51-85.84-25.31
				c-15.22-1.4-30.26-3.83-45.3-6.26c-17.09-2.8-34.18-5.79-51.09-9.43c-10.18-2.24-11.58-5.61-6.73-14.29
				c6.44-11.58,11.49-23.63,15.88-36.05c2.34-6.72,5.88-10.93,13.73-9.81c17.75,2.43,35.59,3.92,53.15,7.1
				c82.47,15.32,160.56,42.59,231.73,87.89c32.13,20.36,66.88,33.25,104.8,36.52c43.34,3.74,82.01-11.11,117.41-34.56
				c54.08-35.87,110.21-67.9,169.99-93.31c29.52-12.61,58.94-25.5,91.07-30.54c14.48-2.33,28.77-6.35,43.06-9.9
				c7.19-1.68,14.85-3.18,15.13-13.08c0.28-7.38-2.71-10.18-14.57-13.17c-4.11-1.12-8.22-2.06-12.33-2.99
				c-18.96-4.3-38.3-7.38-56.88-13.08c-52.49-16.16-101.81-40.07-150.19-65.85c-34.37-18.31-66.32-40.82-99.66-60.9
				c-29.51-17.75-61.74-26.99-96.11-25.97c-38.2,1.21-73.23,13.17-105.73,33.16c-18.4,11.4-36.71,22.7-56.23,32.04
				c-42.87,20.55-87.33,36.61-133.1,49.41c-32.04,8.87-65.01,12.33-97.89,16.35c-11.58,1.4-13.64,0-17.65-10.84
				c-4.02-10.93-9.34-21.2-14.48-31.57c-6.07-12.42-5.04-15.23,8.97-17.93c20.64-4.02,41.28-7.66,62.11-10.55
				c33.9-4.76,67.9-8.13,99.66-22.23c32.32-14.38,64.07-29.8,93.78-48.94c28.3-18.21,53.8-40.16,76.68-65.19
				c24-26.06,43.62-55.29,64.82-83.41c17.19-22.6,32.97-46.23,51.56-67.81c20.18-23.35,44.65-41.47,69.58-59.12
				c8.13-5.79,16.72-11.02,24.47-17.28c7.01-5.7,14.01-12.33,11.49-22.6c-2.61-10.46-10.93-14.76-20.83-17
				c-10.37-2.34-20.83-2.43-31.38-1.31c-15.69,1.59-31.1,4.58-46.61,8.03c-44.09,9.9-88.64,18.03-131.14,34.18
				c-31.48,11.96-59.87,28.02-83.03,53.05c-17.93,19.33-33.9,40.16-48.76,61.83c-25.31,36.89-52.87,72.2-74.44,111.52
				c-10.09,18.59-22.98,35.21-37.27,50.81c-13.45,14.85-29.23,25.03-48.76,30.45c-21.76,6.07-43.9,10.93-64.91,19.8
				c-21.67,9.15-21.76,8.87-40.72-4.86c-11.86-8.59-11.68-10.55-1.77-22.04c19.05-22.14,43.81-34.28,71.17-41.66
				c49.78-13.54,82.47-46.51,105.08-91.25c12.33-24.56,20.36-50.81,29.8-76.4c9.9-26.71,20.46-53.15,34.75-77.8
				c21.58-37.17,52.4-65.57,86.49-90.79c10.09-7.47,20.74-14.38,30.92-21.95c4.76-3.55,7.75-8.59,5.32-15.13
				c-2.24-6.26-7.01-8.69-13.45-8.87c-8.5-0.09-16.81,0.65-25.03,2.8c-42.78,11.3-84.9,24.47-125.72,41.94
				c-44.46,19.05-79.02,50.16-105.73,89.57c-23.82,34.93-40.07,73.88-53.61,113.95c-10.09,29.89-20.55,59.78-30.54,89.67
				c-3.64,10.74-8.97,20.08-17.37,27.74c-11.77,10.74-21.11,23.54-29.7,36.8c-15.6,24.19-10.18,18.21-36.52,14.38
				c-0.47,0-0.93-0.19-1.49-0.37c-10.46-2.9-11.86-4.86-10.55-15.6c5.51-44.65,19.43-86.12,44.65-123.57
				c14.38-21.3,22.42-44.93,27.93-69.87c5.79-26.43,5.79-53.33,8.97-79.95c4.39-36.33,15.78-69.4,38.67-98.54
				c10.09-12.98,21.76-24.29,33.53-35.49c5.51-5.32,8.13-10.83,5.7-18.31c-2.71-8.03-7.66-14.2-16.35-15.23
				c-11.02-1.21-22.32-1.96-32.97,1.4c-32.04,10.09-58.94,27.93-78.83,55.2c-19.8,27.18-30.45,58.66-40.63,90.32
				c-1.4,4.48-2.24,9.25-4.3,13.45c-2.05,4.3-5.51,4.67-8.41,0.56c-1.4-2.15-2.61-4.67-3.08-7.19
				c-4.2-20.27-12.98-38.95-20.64-57.91c-16.25-40.91-43.9-71.26-84.81-89.01c-14.94-6.45-30.36-8.31-46.33-7.19
				c-8.41,0.65-15.13,4.48-17.93,13.08c-2.8,8.22-1.59,15.41,5.7,21.2c3.74,2.89,6.91,6.44,10.27,9.81
				c23.16,22.88,41.66,48.57,51.65,80.04c8.5,26.9,11.21,54.64,12.89,82.38c2.71,44.09,14.57,84.44,39.42,121.42
				c20.83,31.01,31.76,66.32,36.8,103.3c3.18,23.35,2.71,23.35-20.17,27.55c-14.48,2.62-14.38,2.52-22.7-9.99
				c-11.49-17-22.88-34.09-38.2-48.01c-5.23-4.76-8.59-10.65-10.83-17.19c-7.29-20.92-14.94-41.66-21.76-62.67
				c-12.42-38.67-25.97-76.78-44.65-112.92c-28.67-55.57-69.3-98.82-127.68-123.76c-42.22-17.93-85.84-31.66-130.48-42.4
				c-5.04-1.21-10.46-1.12-15.69-1.4c-6.72-0.28-12.8,1.4-15.5,8.31c-2.99,7.75,1.21,13.26,7.19,17.47
				c7.19,5.23,14.85,9.99,22.14,15.22c35.31,25.22,67.62,53.52,90.32,91.35c16.16,26.71,27.65,55.48,38.48,84.62
				c10.74,28.58,18.96,58.1,34.18,84.9c19.99,34.93,47.26,61.65,85.56,75.84c12.8,4.76,25.87,8.87,38.85,13.17
				c19.61,6.63,34.65,19.61,48.2,34.65c6.16,6.82,5.6,9.81-1.59,15.41c-5.04,3.92-10.37,7.29-15.32,11.12
				c-6.16,4.86-12.52,5.04-19.33,2.06c-21.3-9.25-43.43-16.53-66.04-21.11c-30.08-6.17-50.06-25.13-68.28-47.64
				c-16.63-20.55-27.93-44.55-42.78-66.32c-24.47-36.05-50.16-71.36-75.09-107.32c-30.73-44.27-71.17-74.91-122.54-92.19
				c-44.55-15.04-90.69-22.98-136.27-33.53c-16.44-3.83-33.16-5.88-50.06-5.6c-7.01,0.09-13.64,1.4-19.89,4.3
				c-16.53,7.29-18.77,20.64-6.16,33.62c8.87,9.15,19.89,15.51,30.36,22.6c30.64,20.83,57.82,45.39,80.98,74.53
				c23.54,29.7,44.74,61.09,67.25,91.44c33.53,45.3,72.67,84.43,121.24,113.67c57.82,34.93,118.34,61.46,187.08,65.85
				c19.8,1.21,39.42,6.16,59.03,9.9c11.96,2.34,13.26,5.98,7.94,17.56c-4.67,10.09-9.15,20.18-13.45,30.36
				c-5.23,12.61-6.82,13.92-19.61,12.42c-38.67-4.67-77.06-10.18-114.51-21.76c-47.35-14.66-93.68-31.66-137.02-55.95
				c-21.58-12.05-41.75-26.62-64.82-36.05c-45.95-18.87-92.47-23.54-139.82-5.7c-21.76,8.22-41.66,20.36-60.8,33.35
				c-46.79,31.76-96.86,57.53-148.14,80.89c-33.06,15.04-66.88,28.21-103.02,34.37c-13.45,2.33-26.62,6.26-39.98,9.06
				c-7.75,1.59-12.8,5.79-12.8,13.73c0.09,7.56,5.79,10.09,12.7,11.58c19.99,4.2,40.16,8.31,59.96,13.54
				c56.51,14.57,108.16,40.91,159.62,67.62c34.56,17.93,66.22,40.82,99.66,60.8c33.34,19.99,69.3,30.92,108.44,26.81
				c34.47-3.64,66.5-15.13,96.3-33.16c16.16-9.81,32.13-20.27,49.13-28.58c75.84-36.71,155.05-62.39,239.58-69.12
				c6.82-0.56,11.49,0.84,13.45,7.57c4.02,13.17,10.27,25.41,16.25,37.64c4.3,9.06,2.8,12.61-6.91,14.76
				c-24.19,5.14-48.38,10.09-72.95,12.61c-24.1,2.52-48.2,5.61-71.08,13.64c-38.48,13.45-74.44,32.13-109,53.43
				c-33.9,20.83-63.61,46.33-89.57,76.68c-23.91,28.02-45.11,58.19-66.22,88.26c-32.6,46.51-69.77,88.36-118.71,118.34
				c-6.26,3.83-12.05,8.41-17.93,12.89c-8.03,6.26-13.17,14.1-9.9,24.66c2.99,9.9,12.33,12.05,20.74,14.95
				c1.49,0.56,3.18,0.56,4.76,0.56c13.17,0.09,26.25,1.03,39.32-1.49c45.49-8.78,90.88-17.84,135.34-30.73
				c48.57-14.01,92.47-36.15,124.13-76.78c34.65-44.37,66.97-90.51,97.32-137.95c12.7-19.99,23.54-41.1,38.95-59.31
				c17.47-20.92,36.52-39.04,64.63-45.02c24.19-5.23,47.82-12.8,70.61-22.6c5.98-2.52,11.3-1.78,16.35,1.78
				c3.83,2.71,7.57,5.79,11.4,8.5c13.82,9.9,13.54,10.83,1.68,23.72c-18.87,20.64-43.06,31.48-69.3,38.86
				c-53.15,15.04-86.77,51.09-108.81,100.03c-10.18,22.6-17.56,46.33-26.25,69.49c-10.09,27.09-20.73,53.99-35.68,79.02
				c-22.32,37.27-53.89,65.66-88.64,90.88c-8.5,6.26-17.28,12.05-25.87,18.12c-5.32,3.74-7.01,8.97-5.79,15.23
				c1.4,6.91,6.73,9.15,12.7,10.09c4.67,0.75,9.34,0,14.01-1.03c48.48-10.83,95.55-25.97,140.66-46.51
				c31.48-14.2,58.28-34.93,81.17-61.37c27.09-31.2,45.21-67.25,59.96-105.08c16.06-41.19,29.8-83.22,44.18-125.06
				c3.74-10.74,9.34-19.99,17.47-27.74c13.08-12.33,23.63-26.71,33.44-41.75c8.22-12.61,10.37-13.45,24.66-10.55
				c2.52,0.47,5.04,1.31,7.66,1.87c12.24,2.9,13.92,4.95,12.24,17.19c-5.79,42.87-19.15,83.03-43.34,119.09
				c-13.73,20.36-22.88,42.59-28.58,66.31c-5.79,24.19-6.82,48.94-9.06,73.51c-2.43,26.34-7.01,52.12-18.31,76.4
				c-12.52,26.53-29.14,49.88-52.31,68.18c-6.72,5.32-10.93,11.58-8.41,20.55c2.52,8.87,8.41,14.57,17.56,16.06
				c5.14,0.75,10.55,1.22,15.69,0.65C1115.68,1897.21,1127.91,1894.31,1139.4,1888.61z M1105.03,1250.02
				c0-80.14,64.91-145.05,144.96-145.05c80.14,0,145.05,64.91,145.05,145.05c0,80.04-64.91,144.96-145.05,144.96
				C1169.95,1394.98,1105.03,1330.07,1105.03,1250.02z"/>
		</g>
	</g>
</g>
<g id="Layer_4">
	<rect class="st8" width="2500" height="2500"/>
	<g>
		<g>
			<path class="st4" d="M1217.82,1334.34c-35.48-5.84-64.07-34.51-69.83-70c-9.5-58.61,40.55-108.38,99.05-98.65
				c35.39,5.89,63.93,34.43,69.75,69.83C1326.42,1294,1276.44,1343.98,1217.82,1334.34z"/>
			<path class="st4" d="M1136.34,1804.71c28.07-13.87,49.41-34.4,63.04-62.63c12.33-25.64,21.99-52.17,27.83-80.07
				c0.81-4.06-0.08-10.95,5.52-11.12c6.17-0.16,4.54,6.82,5.44,10.87c7.06,34.24,18.01,67.42,37.32,96.63
				c19.39,29.21,46.33,48.92,82.02,54.68c6.41,1.06,12.74,1.06,18.98-1.13c13.95-5.03,17.2-18.25,6.9-28.72
				c-5.11-5.19-10.71-9.98-15.74-15.33c-23.45-24.99-37.73-54.2-43.73-88.27c-3.98-22.15-4.14-44.54-7.22-66.69
				c-3.65-27.26-11.85-52.73-26.77-75.61c-19.8-30.34-32.86-63.04-38.54-98.82c-3.08-19.39-2.6-20.61,16.39-24.75
				c13.14-2.92,13.14-2.92,20.85,8.93c9.41,14.68,19.47,28.88,32.37,40.65c4.95,4.46,8.27,9.82,10.38,15.9
				c8.92,25.47,18.09,50.87,26.53,76.51c11.68,35.7,26.69,69.93,46.89,102.87c22.88,34.16,51.03,61.17,87.95,77.72
				c39.67,17.85,80.97,31.15,123.4,41.13c4.54,1.05,9.17,1.46,13.63,0.49c5.19-1.14,9.01-4.46,10.22-9.9
				c1.05-5.03-0.89-9.01-5.03-11.85c-3.65-2.68-7.55-5.11-11.36-7.63c-52.9-35.13-93.3-80.24-114.15-141.33
				c-7.95-23.37-16.39-46.65-25.88-69.37c-18.98-45.68-49.65-79.59-99.14-93.22c-4.79-1.3-9.49-3.25-14.2-4.87
				c-15.9-5.35-29.69-13.71-41.38-25.96c-15.42-16.23-15.5-15.74,2.92-28.48c6.65-4.62,12.58-6.57,20.36-3.24
				c20.12,8.84,41.13,15.09,62.47,20.28c16.96,4.14,31.15,12.49,43.24,25.15c15.5,16.39,27.58,35.05,39.02,54.36
				c25.64,43.32,55.57,83.81,85.76,123.97c23.28,30.91,53.87,52.82,90.95,65.8c46.33,16.23,94.44,25.15,142.38,34.56
				c12.33,2.43,25.48,2.52,38.13-0.65c7.95-2.03,14.52-6.41,16.31-14.85c1.78-8.19-3.33-14.04-9.25-18.66
				c-6.08-4.79-12.58-9.09-19.07-13.39c-30.42-20.04-57.52-43.73-79.35-72.94c-19.15-25.64-37.56-51.76-56.47-77.56
				c-18.17-24.83-39.27-46.89-62.63-66.93c-29.86-25.56-64.34-43.49-99.47-60.12c-23.69-11.2-48.27-19.55-74.56-21.99
				c-13.22-1.22-26.29-3.33-39.35-5.44c-14.85-2.43-29.69-5.03-44.38-8.19c-8.84-1.95-10.06-4.87-5.84-12.41
				c5.6-10.06,9.98-20.53,13.79-31.32c2.03-5.84,5.11-9.49,11.93-8.52c15.42,2.11,30.91,3.41,46.16,6.17
				c71.64,13.31,139.46,36.99,201.28,76.34c27.91,17.69,58.09,28.88,91.03,31.72c37.64,3.25,71.23-9.65,101.98-30.02
				c46.97-31.15,95.73-58.98,147.66-81.05c25.64-10.95,51.19-22.15,79.1-26.53c12.58-2.03,24.99-5.52,37.4-8.6
				c6.25-1.46,12.9-2.76,13.14-11.36c0.24-6.41-2.35-8.84-12.66-11.44c-3.57-0.97-7.14-1.79-10.71-2.6
				c-16.47-3.73-33.26-6.41-49.41-11.36c-45.6-14.04-88.43-34.8-130.46-57.2c-29.86-15.9-57.6-35.45-86.57-52.9
				c-25.64-15.42-53.63-23.45-83.48-22.55c-33.18,1.05-63.61,11.44-91.84,28.8c-15.98,9.9-31.88,19.72-48.84,27.83
				c-37.24,17.85-75.86,31.8-115.61,42.92c-27.83,7.71-56.47,10.71-85.02,14.2c-10.06,1.22-11.85,0-15.33-9.41
				c-3.49-9.49-8.11-18.42-12.58-27.42c-5.27-10.79-4.38-13.23,7.79-15.58c17.93-3.49,35.86-6.65,53.95-9.17
				c29.45-4.14,58.98-7.06,86.57-19.31c28.07-12.49,55.66-25.88,81.45-42.51c24.58-15.82,46.73-34.89,66.61-56.63
				c20.85-22.64,37.89-48.03,56.3-72.45c14.93-19.63,28.64-40.16,44.78-58.9c17.52-20.28,38.78-36.02,60.44-51.36
				c7.06-5.03,14.52-9.57,21.26-15.01c6.08-4.95,12.17-10.71,9.98-19.63c-2.27-9.09-9.49-12.82-18.09-14.77
				c-9.01-2.03-18.09-2.11-27.26-1.14c-13.63,1.38-27.02,3.98-40.48,6.98c-38.29,8.6-76.99,15.66-113.91,29.69
				c-27.34,10.38-52,24.34-72.12,46.08c-15.58,16.79-29.45,34.89-42.35,53.71c-21.99,32.05-45.92,62.71-64.66,96.87
				c-8.76,16.14-19.96,30.59-32.37,44.14c-11.68,12.9-25.39,21.74-42.35,26.45c-18.9,5.27-38.13,9.49-56.39,17.2
				c-18.82,7.95-18.9,7.71-35.37-4.22c-10.3-7.46-10.14-9.17-1.54-19.15c16.55-19.23,38.05-29.78,61.82-36.18
				c43.24-11.76,71.64-40.4,91.27-79.26c10.71-21.34,17.69-44.14,25.88-66.37c8.6-23.2,17.77-46.16,30.18-67.58
				c18.74-32.29,45.51-56.95,75.13-78.86c8.76-6.49,18.01-12.49,26.85-19.07c4.14-3.08,6.73-7.46,4.62-13.14
				c-1.95-5.44-6.08-7.54-11.68-7.71c-7.38-0.08-14.6,0.57-21.74,2.43c-37.16,9.82-73.75,21.26-109.2,36.43
				c-38.62,16.55-68.64,43.57-91.84,77.8c-20.69,30.34-34.81,64.17-46.57,98.98c-8.76,25.96-17.85,51.92-26.53,77.89
				c-3.16,9.33-7.79,17.44-15.09,24.1c-10.22,9.33-18.34,20.44-25.8,31.97c-13.55,21.01-8.84,15.82-31.72,12.49
				c-0.41,0-0.81-0.16-1.3-0.32c-9.09-2.52-10.3-4.22-9.17-13.55c4.79-38.78,16.87-74.8,38.78-107.34
				c12.49-18.5,19.47-39.02,24.26-60.69c5.03-22.96,5.03-46.33,7.79-69.45c3.81-31.56,13.71-60.28,33.59-85.59
				c8.76-11.28,18.9-21.09,29.13-30.83c4.79-4.62,7.06-9.41,4.95-15.9c-2.35-6.98-6.65-12.33-14.2-13.23
				c-9.57-1.05-19.39-1.7-28.64,1.22c-27.83,8.76-51.19,24.26-68.47,47.95c-17.2,23.61-26.45,50.95-35.29,78.45
				c-1.22,3.89-1.95,8.03-3.73,11.68c-1.78,3.73-4.79,4.06-7.3,0.49c-1.22-1.87-2.27-4.06-2.68-6.25
				c-3.65-17.61-11.28-33.83-17.93-50.3c-14.12-35.53-38.13-61.9-73.67-77.32c-12.98-5.6-26.37-7.22-40.24-6.25
				c-7.3,0.57-13.14,3.89-15.58,11.36c-2.43,7.14-1.38,13.39,4.95,18.42c3.24,2.51,6,5.6,8.92,8.52
				c20.12,19.88,36.18,42.19,44.87,69.53c7.38,23.37,9.74,47.46,11.2,71.56c2.35,38.29,12.66,73.34,34.24,105.47
				c18.09,26.94,27.58,57.6,31.97,89.73c2.76,20.28,2.35,20.28-17.52,23.93c-12.58,2.27-12.49,2.19-19.72-8.68
				c-9.98-14.77-19.88-29.61-33.18-41.7c-4.54-4.14-7.46-9.25-9.41-14.93c-6.33-18.17-12.98-36.18-18.9-54.44
				c-10.79-33.59-22.55-66.69-38.78-98.09c-24.91-48.27-60.2-85.84-110.91-107.5c-36.67-15.58-74.56-27.5-113.34-36.83
				c-4.38-1.05-9.09-0.97-13.63-1.22c-5.84-0.24-11.11,1.22-13.47,7.22c-2.6,6.73,1.05,11.52,6.25,15.17
				c6.25,4.54,12.9,8.68,19.23,13.22c30.67,21.91,58.74,46.49,78.45,79.35c14.04,23.2,24.01,48.19,33.43,73.5
				c9.33,24.83,16.47,50.46,29.69,73.75c17.36,30.34,41.05,53.55,74.32,65.88c11.11,4.14,22.47,7.71,33.75,11.44
				c17.04,5.76,30.1,17.04,41.86,30.1c5.35,5.92,4.87,8.52-1.38,13.39c-4.38,3.41-9.01,6.33-13.31,9.66
				c-5.35,4.22-10.87,4.38-16.79,1.79c-18.5-8.03-37.73-14.36-57.36-18.34c-26.12-5.36-43.49-21.82-59.31-41.38
				c-14.44-17.85-24.26-38.7-37.16-57.6c-21.26-31.32-43.57-61.98-65.23-93.22c-26.69-38.46-61.82-65.07-106.44-80.08
				c-38.7-13.06-78.78-19.96-118.37-29.13c-14.28-3.33-28.8-5.11-43.49-4.87c-6.08,0.08-11.85,1.22-17.28,3.73
				c-14.36,6.33-16.31,17.93-5.35,29.21c7.71,7.95,17.28,13.47,26.37,19.63c26.61,18.09,50.22,39.43,70.34,64.74
				c20.45,25.8,38.86,53.06,58.41,79.43c29.13,39.35,63.12,73.34,105.31,98.74c50.22,30.34,102.79,53.38,162.5,57.2
				c17.2,1.05,34.24,5.35,51.27,8.6c10.39,2.03,11.52,5.19,6.9,15.25c-4.06,8.76-7.95,17.52-11.68,26.37
				c-4.54,10.95-5.92,12.09-17.04,10.79c-33.59-4.06-66.93-8.84-99.47-18.9c-41.13-12.74-81.37-27.5-119.02-48.6
				c-18.74-10.47-36.27-23.12-56.3-31.32c-39.92-16.39-80.32-20.45-121.45-4.95c-18.9,7.14-36.18,17.69-52.82,28.96
				c-40.65,27.58-84.13,49.98-128.67,70.26c-28.72,13.06-58.09,24.5-89.49,29.86c-11.68,2.03-23.12,5.44-34.72,7.87
				c-6.73,1.38-11.11,5.03-11.11,11.93c0.08,6.57,5.03,8.76,11.03,10.06c17.36,3.65,34.89,7.22,52.09,11.76
				c49.08,12.66,93.95,35.53,138.65,58.74c30.02,15.58,57.52,35.45,86.57,52.82c28.96,17.36,60.2,26.85,94.19,23.28
				c29.94-3.16,57.76-13.14,83.65-28.8c14.04-8.52,27.91-17.61,42.67-24.83c65.88-31.88,134.68-54.2,208.1-60.04
				c5.92-0.49,9.98,0.73,11.68,6.57c3.49,11.44,8.92,22.07,14.12,32.7c3.73,7.87,2.43,10.95-6,12.82
				c-21.01,4.46-42.03,8.76-63.36,10.95c-20.93,2.19-41.86,4.87-61.74,11.85c-33.43,11.68-64.66,27.91-94.68,46.41
				c-29.45,18.09-55.25,40.24-77.8,66.61c-20.77,24.34-39.19,50.54-57.52,76.67c-28.31,40.4-60.6,76.75-103.12,102.79
				c-5.44,3.33-10.47,7.3-15.58,11.2c-6.98,5.44-11.44,12.25-8.6,21.42c2.6,8.6,10.71,10.47,18.01,12.98
				c1.3,0.49,2.76,0.49,4.14,0.49c11.44,0.08,22.8,0.89,34.16-1.3c39.51-7.63,78.94-15.5,117.56-26.69
				c42.19-12.17,80.32-31.4,107.82-66.69c30.1-38.54,58.17-78.61,84.54-119.83c11.03-17.36,20.45-35.7,33.83-51.52
				c15.17-18.17,31.72-33.91,56.14-39.11c21.01-4.54,41.54-11.11,61.33-19.63c5.19-2.19,9.82-1.54,14.2,1.54
				c3.33,2.35,6.57,5.03,9.9,7.38c12.01,8.6,11.76,9.41,1.46,20.61c-16.39,17.93-37.4,27.34-60.2,33.75
				c-46.16,13.06-75.37,44.38-94.52,86.89c-8.84,19.63-15.25,40.24-22.8,60.36c-8.76,23.53-18.01,46.89-30.99,68.64
				c-19.39,32.37-46.81,57.04-76.99,78.94c-7.38,5.44-15.01,10.47-22.47,15.74c-4.62,3.25-6.08,7.79-5.03,13.23
				c1.22,6,5.84,7.95,11.03,8.76c4.06,0.65,8.11,0,12.17-0.89c42.11-9.41,83-22.55,122.18-40.4c27.34-12.33,50.63-30.34,70.5-53.3
				c23.53-27.1,39.27-58.41,52.09-91.27c13.95-35.78,25.88-72.29,38.37-108.63c3.25-9.33,8.11-17.36,15.17-24.1
				c11.36-10.71,20.53-23.2,29.04-36.27c7.14-10.95,9.01-11.68,21.42-9.17c2.19,0.41,4.38,1.14,6.65,1.62
				c10.63,2.52,12.09,4.3,10.63,14.93c-5.03,37.24-16.63,72.12-37.64,103.44c-11.93,17.69-19.88,36.99-24.83,57.6
				c-5.03,21.01-5.92,42.51-7.87,63.85c-2.11,22.88-6.08,45.27-15.9,66.36c-10.87,23.04-25.31,43.32-45.43,59.23
				c-5.84,4.62-9.49,10.06-7.3,17.85c2.19,7.71,7.3,12.66,15.25,13.95c4.46,0.65,9.17,1.06,13.63,0.57
				C1115.73,1812.17,1126.36,1809.66,1136.34,1804.71z M1106.49,1250.02c0-69.61,56.39-126,125.91-126c69.61,0,126,56.39,126,126
				c0,69.53-56.39,125.91-126,125.91C1162.87,1375.94,1106.49,1319.55,1106.49,1250.02z"/>
		</g>
		<path class="st6" d="M596.2,1028.38c-8.43,18.83-3.59,38.49-3.74,57.65c-0.61,72.29-0.76,144.59-0.87,216.9
			c-0.02,20.6-0.02,41.22-0.07,61.84c0,15.78-0.02,31.56-0.04,47.34c-0.02,10.56-0.16,21.11,1.64,31.6
			c0.13,0.96,0.31,1.93,0.52,2.89c1.91,9.37-0.96,17.98-6.86,25.8c-3.16,4.21-7.2,8.47-12.75,6.79c-13.13-3.92-25.91,0.49-38.82,0.2
			c-7.4-0.16-14.01-1.52-20.64-4.95c-5.2-2.69-10.56-5.27-12.75-9.53c-1.14-2.15-1.46-4.73-0.54-7.98
			c2.44-8.63,9.3-14.88,19.46-15.76c8.18-0.69,16.5-0.27,26.54-0.18c1.75,0.02,3.25-1.28,3.32-2.89c0.43-9.26,0.78-18.51,1.08-27.77
			c0.76-23.53,1.12-47,1.23-70.43c0.09-21.09-0.04-42.14-0.31-63.16c-0.4-34.45-1.19-68.79-1.93-103.04
			c-0.45-22.17-0.9-44.29-1.23-66.39c-0.02-1.48-1.21-2.8-2.8-2.96c-4.57-0.47-5.4,2.26-6.63,4.37
			c-21.47,36.62-43.3,73.09-61.98,111.02c-4.53,9.19-10.96,15.26-21.81,15.89c-11.27,0.65-17.62-5.67-22.84-14.39
			c-17.06-28.44-34.61-56.66-52.31-84.77c-2.71-4.28-4.59-6.63-8.23-12.01c-1.05-1.55-3-1.75-4.39-1.03
			c-0.96,0.47-1.66,1.39-1.66,2.62v311.67c0,1.17,0.72,2.31,1.91,2.73c7.31,2.62,16.5,0.9,25.19,0.74c2.02-0.04,3.94,0.04,5.83,0.25
			c7.76,0.74,14.57,3.27,21.56,7.06c0.04,0.02,0.11,0.07,0.16,0.09c7.53,4.1,10.09,9.41,9.21,16.47c-0.18,1.5-0.47,2.91-0.87,4.26
			c-1.68,5.51-5.47,9.57-12.91,11.41c-0.13,0.02-0.25,0.07-0.38,0.09c-7.67,1.88-15.35,2.62-23.02,2.69
			c-9.23,0.13-18.42-0.69-27.55-1.57c-1.3-0.13-2.62-0.25-3.92-0.38c-24.1-2.31-32.32-5.96-35.37-20.35
			c-0.99-4.62-1.43-10.33-1.73-17.48c-0.09-2.31-0.18-4.62-0.25-6.93c-4.39-120.92-0.85-241.87-2.69-362.82
			c-0.18-12.13-0.83-25.28-0.04-37.39c0.13-1.88,0.07-3.79,0.16-5.67c0.18-4.91,1.28-9.46,8.61-12.01
			c10.78-3.72,31.2,0.07,36.38,7.02c2.96,3.99,5.13,8.47,8.36,13.94c25.48,45.79,52.2,89.46,75.29,134.82
			c1.01,1.95,2.69,3.77,5.96,3.94c0.54,0.04,1.1-0.09,1.59-0.29c6.34-2.78,8.81-9.37,11.41-14.84
			c9.88-20.58,23.56-39.27,33.91-59.53c12.87-25.22,28.65-48.93,42.7-73.52c6.12-10.74,37.19-17.28,46.94-10.13
			C595.95,1022.39,597.54,1025.42,596.2,1028.38z"/>
		<path class="st6" d="M1142.11,1022.6c11.42,6.68,9.08,16.89,9.09,25.98c0.08,80.8-0.08,161.59-0.08,242.39
			c0,41.64,0.17,83.27,0.31,124.91c0.04,11.64,0.33,22.76,14.96,26.33c8.28,2.02,11.65,10.04,11.03,17.69
			c-0.64,7.75-5.91,13.57-13.83,16.1c-15.23,4.85-28.38,0.92-40.68-8.09c-2.68-1.97-6.2-2.28-9.1-0.68
			c-9.25,5.09-18.57,9.9-27.16,15.82c-5.78,3.99-11.6,3.84-17.59,3.97c-19.14,0.41-38.44-1.08-57.41,0.91
			c-40.26,4.23-81.65-42.45-79.12-81.93c2.06-32.08,0.98-64.23,2.44-96.36c1.27-27.72,12.83-48.07,33.37-63.81
			c15.54-11.91,34.89-12.14,53.23-13c23.38-1.1,46.96-1.72,69.91,5.22c0.03,0.01,0.06,0.02,0.08,0.03
			c5.35,1.57,10.62-2.86,10.62-8.59v-173.59c0-4.29-2.99-8.05-7.11-8.71c-2.57-0.41-5.15-0.15-7.63-0.15
			c-28.87,0.03-57.74,0.48-86.61,0.28c-13.6-0.1-24.92,10.78-25.69,24.75c-1.55,28.17,0.99,56.34,0.46,84.5
			c-0.14,7.27,5.82,8.66,10.91,11.02c7.26,3.37,12.07,8.56,10.85,17.68c-1.29,9.64-8.51,12.16-15.93,12.95
			c-19.42,2.08-40.16-1.92-39.82-29.3c0.48-37.88-4.4-75.61-2-113.49c0.92-14.46,4.65-26.9,17.43-35.57
			c4.41-2.99,8.45-4.71,13.45-4.87c45.06-1.44,90.13-3.26,135.2-1.72C1117.67,1013.68,1130.72,1012.2,1142.11,1022.6z
			 M1017.39,1267.03c-3.08,0.11-6.16,0.15-9.23,0.35c-26.11,1.68-33.43,9.31-33.71,36.12c-0.39,38.39,0.22,76.78-2.6,115.13
			c-1.16,15.76,4.89,24.64,18.91,27.79c30.96,6.94,62.04,8.92,92.86-1.44c17.45-5.87,20.21-9.63,20.2-28.47
			c-0.01-40.29-0.03-80.58-0.04-120.87c-0.01-20.64-5.19-27.08-25.6-28.18C1059.12,1266.43,1039.99,1267,1017.39,1267.03z"/>
		<path class="st6" d="M784.12,1265.19c-23.43,0.62-45.55-0.88-68.42-3.73c-10.19-1.27-19.37,5.74-19.7,15.15
			c-1.76,50.76,1.59,100.69,0.54,151.51c-0.18,8.8,7.6,16.01,17.22,16.01h145.09c8.84,0,16.22-6.12,17.15-14.15
			c0.26-2.29,0.6-4.52,1.41-6.67c2.75-7.31,7.32-11.76,16.01-12.11c9.05-0.37,11.33,5.86,13.2,11.87
			c3.6,11.58,4.01,23.49,1.21,35.18c-3.68,15.38-28.88,27.51-47.48,21.85c-17.03-5.18-33.59-4.02-50.24-0.57
			c-39.84,8.25-80.15,3.5-120.22,3.72c-10.96,0.06-21.41-6.76-32.72-9.02c-8.32-1.66-10.78-9-11.1-16.25
			c-0.37-8.1-0.3-16.21-0.3-24.32c0.02-106.66-0.14-213.33,0.18-319.99c0.14-46.79,10.1-75.3,56.27-93.73
			c5.87-2.34,27.57-5.57,33.69-5.74c18.4-0.5,36.79-1.18,55.19-1.46c45.55-0.71,72.93,4.82,91.62,43.03
			c6.82,13.94-11.17,40.32-11.09,54.47c0.19,31.78,16.32,61.39,8.94,92.88c-8.13,34.68-23.17,56.53-72.17,60.14
			C800.93,1263.8,793.47,1264.5,784.12,1265.19z M695.75,1203.24c1.15,19.92,4.86,24.64,27.69,26.57
			c30.55,2.58,61.29,2.17,91.83-1.02c15.38-1.61,22.1-7.71,22.43-22.02c1-43.61,0.98-87.23,3.37-130.82
			c0.73-13.22-9.99-24.71-24.18-25.87c-29.18-2.38-58.97-4.6-87.6,0.87c-22.69,4.33-35.01,16.03-33.4,39.41
			C698.4,1127,695.65,1162.95,695.75,1203.24z"/>
		<path class="st6" d="M2143.13,1025.8c11.42,6.59,9.08,16.66,9.09,25.62c0.08,79.69-0.08,159.39-0.08,239.08
			c0,41.07,0.17,82.14,0.31,123.2c0.04,11.48,0.32,22.45,14.96,25.97c8.28,1.99,11.65,9.91,11.03,17.44
			c-0.64,7.64-5.91,13.39-13.83,15.88c-15.21,4.78-28.36,0.91-40.65-7.96c-2.7-1.95-6.25-2.25-9.18-0.67
			c-9.24,5.01-18.54,9.75-27.12,15.58c-5.78,3.94-11.6,3.78-17.59,3.91c-19.14,0.41-38.44-1.07-57.41,0.9
			c-40.26,4.18-81.65-41.87-79.12-80.81c2.06-31.64,0.98-63.36,2.44-95.05c1.27-27.34,12.83-47.42,33.37-62.94
			c15.54-11.75,34.89-11.97,53.23-12.82c23.38-1.08,46.96-1.7,69.91,5.15c0.03,0.01,0.06,0.02,0.08,0.02
			c5.34,1.54,10.62-2.75,10.62-8.31v-171.53c0-4.15-2.97-7.78-7.07-8.44c-2.59-0.41-5.18-0.16-7.68-0.16
			c-31.5,0.03-63,0.56-94.49,0.2c-10.68-0.12-16.04,3.73-17.06,14.51c-2.95,31.11,0.3,62.22-0.29,93.32
			c-0.14,7.17,5.82,8.54,10.91,10.87c7.26,3.33,12.07,8.44,10.85,17.44c-1.29,9.51-8.51,11.99-15.93,12.78
			c-19.42,2.05-40.16-1.9-39.82-28.9c0.48-37.36-4.4-74.57-2-111.94c0.92-14.26,4.65-26.54,17.43-35.08
			c4.41-2.95,8.45-4.64,13.45-4.8c45.06-1.42,90.13-3.21,135.2-1.69C2118.7,1017,2131.74,1015.54,2143.13,1025.8z M2018.41,1266.89
			c-3.08,0.11-6.16,0.15-9.23,0.34c-26.11,1.66-33.43,9.18-33.71,35.63c-0.39,37.86,0.22,75.73-2.6,113.56
			c-1.16,15.54,4.89,24.31,18.91,27.41c30.96,6.85,62.04,8.8,92.86-1.42c17.45-5.79,20.21-9.5,20.2-28.08
			c-0.01-39.74-0.03-79.48-0.04-119.22c-0.01-20.36-5.19-26.71-25.6-27.8C2060.14,1266.3,2041.01,1266.85,2018.41,1266.89z"/>
		<path class="st6" d="M1589.88,1463.93c-2.22,7.44-7.44,12.87-15.69,13.7c-4.84,0.49-9.8,0.31-14.68,0.31
			c-71.7,0.02-143.41,0.02-216.88,0.04c-6.07-0.02-10.38-0.31-14.66,0c-1.57,0.11-3,0.04-4.28-0.2h-0.02
			c-5.67-1.03-8.45-5.33-8.74-11.77c-0.4-9.28,0.07-18.6,0.22-27.91c1.95-124.87,1.5-249.72,0.83-374.59c0-2.06-0.02-4.15-0.02-6.21
			c-0.04-6.93,0.54-12.98,1.79-18.2c4.39-18.2,17.08-26.25,40.86-26.31c1.17,0,2.35,0,3.52-0.02c8.61-0.04,17.24-0.2,25.89-0.36
			c7.76-0.16,15.53-0.29,23.29-0.34c13.52-0.09,27.03,0.09,40.48,1.01h0.02l0.02,0.02c3.21,0.2,6.41,0.45,9.62,0.76
			c31.69,3.03,63.5,3.81,95.13,7.24c4.19,0.45,10.42-6.05,14.14-4.12c8.58,4.51,6.7,21.32-1.73,26.38
			c-2.35,1.41-4.82,2.35-7.35,2.98c-4.53,1.12-9.28,1.3-14.01,1.59c-29.34,1.84-59.08-2.47-88.04,3.21
			c-1.68,0.34-3.36,0.63-5.04,0.92c-12.37,2.08-24.77,2.98-37.16,3.34c-8.14,0.25-16.27,0.25-24.41,0.2
			c-8.27-0.04-16.54-0.13-24.81-0.07c-16.09,0.11-19.07,0.81-17.21,16.36c0.43,3.54,0.83,7.08,1.23,10.65
			c2.51,22.91,4.44,46.26,5.78,70c0.02,0.02,0.02,0.02,0.02,0.04c4.39,76.01,3.12,155.73-2.51,236.6
			c-0.85,12.42-1.82,24.86-2.87,37.32c-1.08,12.66,5.16,18.16,17.28,18.29c20.22,0.22,40.46,1.68,60.63,0.94
			c41.53-1.55,83.04-4.24,124.56-6.34c9.21-0.47,17.91,0.07,26.18,6.03C1588.16,1450.42,1592.3,1455.75,1589.88,1463.93z"/>
		<path class="st6" d="M1835.27,1013.48c15.31,0.01,28.79-0.23,42.26,0.07c20.6,0.46,24.16,3.77,25.03,26.13
			c0.74,19.2,0.18,38.45,0.09,57.68c-0.22,47.46-0.56,94.92-0.71,142.38c-0.07,21.6-4.46,27.37-25.81,27.76
			c-30,0.54-60.02-0.3-90.04-0.56c-1.22-0.01-2.45-0.07-3.67-0.1c-28.77-0.53-28.72-0.53-29.12,28.67
			c-0.41,29.47-0.99,58.94-1.35,88.42c-0.11,8.84-1.77,16.7-10.21,20.86c-8.69,4.29-18.54-0.46-21.93-10.62
			c-2.47-7.4-2.11-15.18-2.12-22.87c-0.06-106.47-0.1-212.94-0.14-319.41c0-0.64,0-1.28,0.01-1.92c0.42-31.7,4.62-37.04,35.06-37.73
			C1779.52,1011.61,1806.48,1012.97,1835.27,1013.48z M1754.16,1142.2c-0.11,22.43-0.24,44.87-0.32,67.3
			c-0.08,22.91-0.03,23.18,22.78,23.09c20.81-0.08,41.62-0.56,62.42-1.27c0.93-0.03,1.85-0.05,2.79-0.06
			c14.95-0.13,26.91-12.5,26.9-27.45c-0.05-44.07,0.19-88-1.28-132.47c-0.49-14.74-12.62-26.45-27.37-26.48
			c-20.26-0.04-40.21-0.4-60.55,1.17c-14.3,1.1-25.35,13.03-25.35,27.37C1754.17,1095.6,1754.17,1117.86,1754.16,1142.2z"/>
		<path class="st6" d="M1662.24,1292.77c7.73,58.19,0,100.31,0,152.32c35.41,1.02,92.88-9.34,124.76,4.55
			c30.82,13.42,50.98-3.59,85.91-3.7c5.44-11.79,2.36-22.51,5.59-32.24c2.19-6.6,4.98-11.69,12.34-12.07
			c6.62-0.34,11.52,1.89,15.02,8.5c5.57,10.52,7.74,21.26,6.11,33.19c-4.75,34.67-4.63,34.67-38.43,34.67
			c-71.74-0.01-143.49,0.04-215.23-0.03c-19.88-0.02-28.24-8.42-30.09-29.6c-1.95-22.33-2.1-44.71-2.13-67.11
			c-0.15-111.33-0.43-222.66-0.67-333.99c-0.02-7.67-0.46-15.36,2.22-22.76c3.3-9.1,10.45-12.34,18.8-12.43
			c8.57-0.09,19.39,4.58,20.68,12.91c1.27,8.14,1.36,16.54,1.34,24.83C1668.33,1129.78,1651.46,1211.59,1662.24,1292.77z"/>
		<path class="st6" d="M1580.98,1356.7c0.04,22.55-5.89,29.7-27.7,30.28c-33.06,0.85-66.19,0.87-99.27,0.43
			c-20.93-0.29-26.72-6.68-27.88-28.42c-1.08-19.88-1.68-39.76-2.49-61.48c-0.11-27.79-0.22-55.03-0.31-82.01
			c-0.09-21.92-0.16-43.66-0.22-65.4c-0.02-6.81-0.47-13.74,2.51-20.2c0.67-1.46,1.41-2.82,2.24-4.06
			c3.63-5.58,8.76-8.85,16.32-8.41c9.26,0.54,14.46,5.98,16.77,14.61c1.46,5.42,2.02,10.94,2.2,16.5c0.11,3.14,0.11,6.3,0.07,9.46
			c-0.38,31.36-0.81,62.71-1.26,94.07c-0.36,24.63-0.72,49.24-1.08,73.88c-0.34,23.18-0.38,23.27,23.2,23.65
			c14.1,0.22,28.2,0.31,42.27,0.18c18.33-0.18,18.76-0.56,18.96-18.72c0-0.78,0.02-1.59,0.02-2.38
			c0.36-34.67,0.67-69.35,0.99-104.02c0.2-21.34,0.4-42.68,0.61-64.01c0.02-2.91,0.07-5.81,0.09-8.72
			c0.04-6.23,0.04-12.48,0.81-18.63c1.01-8.16,5.04-14.52,13.96-14.43c8.83,0.07,15.29,4.55,16.72,14.08
			c0.92,6.14,1.66,12.37,1.7,18.56c0.07,13.4,0.13,26.83,0.2,40.23C1580.67,1246.74,1580.87,1301.72,1580.98,1356.7z"/>
	</g>
</g>
</svg>
